<svg width="106" height="85" viewBox="0 0 106 85" fill="none" xmlns="http://www.w3.org/2000/svg">
	<g clip-path="url(#clip0_23_435)">
		<path d="M51.5572 65.9906C51.1409 65.9923 50.7336 65.8693 50.3885 65.6376C49.9068 65.3162 49.5701 64.8204 49.4502 64.2557C49.3303 63.691 49.4366 63.102 49.7465 62.6141L71.8549 27.5767C72.0028 27.3339 72.1987 27.1234 72.4307 26.958C72.6626 26.7926 72.9259 26.6757 73.2045 26.6144C73.4831 26.553 73.7713 26.5485 74.0517 26.601C74.3322 26.6536 74.599 26.7621 74.8361 26.9201C75.3178 27.2415 75.6545 27.7373 75.7744 28.302C75.8943 28.8667 75.788 29.4557 75.4781 29.9436L53.3679 64.9757C53.1768 65.2833 52.9105 65.5377 52.5939 65.7152C52.2772 65.8926 51.9206 65.9874 51.5572 65.9906Z" fill="#F7D136" />
		<path d="M25.6004 58.3604C25.6023 61.3246 25.4009 64.2856 24.9974 67.2225L12.434 73.3807C11.1047 68.4859 10.4689 63.4302 10.5452 58.3604C10.5452 45.9135 13.9148 35.8317 18.0914 35.8317C22.268 35.8317 25.6004 45.9205 25.6004 58.3604Z" fill="url(#paint0_linear_23_435)" />
		<path d="M106 78.7941C105.212 78.7864 104.424 78.83 103.641 78.9247L106 78.7941Z" fill="url(#paint1_linear_23_435)" />
		<path d="M103.416 31.0891C103.407 36.8428 101.737 42.4728 98.6063 47.3097L80.6479 35.8194C89.6466 21.8881 93.2681 8.2851 88.7227 5.36752C84.1772 2.44995 73.2152 11.3686 64.1988 25.3122L46.2368 13.7972C48.3812 10.4776 51.1619 7.61106 54.42 5.36139C57.678 3.11171 61.3495 1.52301 65.2247 0.686075C69.1 -0.150864 73.1029 -0.219636 77.0049 0.483687C80.9068 1.18701 84.6313 2.64865 87.9654 4.78507L89.5509 5.79818C93.806 8.51966 97.3057 12.2617 99.7285 16.6806C102.151 21.0995 103.419 26.0552 103.416 31.0891Z" fill="url(#paint2_linear_23_435)" />
		<path d="M80.646 35.8017L64.2146 25.2875C73.2133 11.3562 84.1735 2.43932 88.7385 5.34277C93.3035 8.24623 89.6447 21.8704 80.646 35.8017Z" fill="url(#paint3_linear_23_435)" />
		<path d="M103.641 78.9263C97.0953 79.5829 96.3221 83 88.3804 83C79.5714 83 79.5714 78.794 70.7607 78.794C61.95 78.794 61.9695 83 53.1783 83C44.3871 83 44.3871 78.794 35.5781 78.794C26.7692 78.794 26.7692 83 17.9585 83C9.14773 83 9.14951 78.8699 0.565796 78.794L12.7337 72.0163C14.1667 71.2097 15.6192 70.4278 17.1285 69.7447C28.4596 64.612 40.7937 62.0448 53.2419 62.2279C65.6902 62.411 77.9426 65.34 89.1164 70.8037L103.641 78.9263Z" fill="url(#paint4_linear_23_435)" />
		<path d="M0.565745 78.7939L0 79.1116L0.565745 78.7939Z" fill="url(#paint5_linear_23_435)" />
		<path d="M103.999 79.1206L103.645 78.9335L103.999 79.1206Z" fill="url(#paint6_linear_23_435)" />
	</g>
	<defs>
		<linearGradient id="paint0_linear_23_435" x1="18.0697" y1="35.8317" x2="18.0697" y2="73.3807" gradientUnits="userSpaceOnUse">
			<stop stop-color="#F7D136" />
			<stop offset="1" stop-color="#F6E291" />
		</linearGradient>
		<linearGradient id="paint1_linear_23_435" x1="103.641" y1="78.85" x2="106" y2="78.85" gradientUnits="userSpaceOnUse">
			<stop stop-color="#54A5FF" />
			<stop offset="1" stop-color="#8AD3FE" />
		</linearGradient>
		<linearGradient id="paint2_linear_23_435" x1="46.2368" y1="23.6562" x2="103.416" y2="23.6562" gradientUnits="userSpaceOnUse">
			<stop stop-color="#E94A46" />
			<stop offset="1" stop-color="#FBC82C" />
		</linearGradient>
		<linearGradient id="paint3_linear_23_435" x1="64.2146" y1="20.2981" x2="90.6792" y2="20.2981" gradientUnits="userSpaceOnUse">
			<stop stop-color="#F5E7D3" />
			<stop offset="1" stop-color="#FCF8F0" />
		</linearGradient>
		<linearGradient id="paint4_linear_23_435" x1="0.565796" y1="72.6094" x2="103.641" y2="72.6094" gradientUnits="userSpaceOnUse">
			<stop stop-color="#E94A46" />
			<stop offset="1" stop-color="#FBC82C" />
		</linearGradient>
		<linearGradient id="paint5_linear_23_435" x1="0" y1="78.9436" x2="0.565745" y2="78.9436" gradientUnits="userSpaceOnUse">
			<stop stop-color="#54A5FF" />
			<stop offset="1" stop-color="#8AD3FE" />
		</linearGradient>
		<linearGradient id="paint6_linear_23_435" x1="103.645" y1="79.027" x2="103.999" y2="79.027" gradientUnits="userSpaceOnUse">
			<stop stop-color="#54A5FF" />
			<stop offset="1" stop-color="#8AD3FE" />
		</linearGradient>
		<clipPath id="clip0_23_435">
			<rect width="106" height="85" fill="white" />
		</clipPath>
	</defs>
</svg>
