<svg xmlns="http://www.w3.org/2000/svg" xmlns:xlink="http://www.w3.org/1999/xlink" width="101.743" height="44" viewBox="0 0 101.743 44">
  <defs>
    <clipPath id="clip-path">
      <path id="Path_312" data-name="Path 312" d="M26.971,2.916a19.533,19.533,0,0,1,4.5,1.565A8.889,8.889,0,0,1,34.7,7.041a5.62,5.62,0,0,1,1.28,3.413,6.459,6.459,0,0,1-.664,2.655,7.894,7.894,0,0,1-1.849,2.133,9.674,9.674,0,0,1-2.323,1.47,6.95,6.95,0,0,1-2.323.569,11.08,11.08,0,0,1-1.849-.19c-.569-.19-1.185-.285-1.754-.474a10.9,10.9,0,0,0-1.659-.474,5.222,5.222,0,0,0-1.849-.237,5.247,5.247,0,0,0-2.939.759,8.329,8.329,0,0,0-2.323,1.944,10.379,10.379,0,0,0-1.565,2.845,10.178,10.178,0,0,0-.569,3.319,8.723,8.723,0,0,0,.664,3.509,8.487,8.487,0,0,0,1.754,2.75,12.947,12.947,0,0,0,2.228,1.754,4.951,4.951,0,0,0,2.323.569,5.176,5.176,0,0,0,2.039-.379c.664-.285,1.375-.474,2.039-.759s1.375-.569,1.944-.759a4.452,4.452,0,0,1,1.944-.379,6.773,6.773,0,0,1,2.323.474,13.026,13.026,0,0,1,2.465,1.47,7.894,7.894,0,0,1,1.849,2.133,4.97,4.97,0,0,1,.759,2.655,4.824,4.824,0,0,1-1.28,3.319,11.61,11.61,0,0,1-3.224,2.845,17.268,17.268,0,0,1-4.5,1.944,49.093,49.093,0,0,1-5.263.379,23.873,23.873,0,0,1-8.392-1.472,23.272,23.272,0,0,1-7.254-4.219,19.844,19.844,0,0,1-4.977-6.829,25.558,25.558,0,0,1-1.754-9.2A22.708,22.708,0,0,1,1.843,15.1,20.388,20.388,0,0,1,6.726,8.084a22.258,22.258,0,0,1,7.017-4.314,23.354,23.354,0,0,1,8.3-1.47,19.254,19.254,0,0,1,4.93.616Z" transform="translate(0.011 -2.299)"/>
    </clipPath>
  </defs>
  <g id="carnival-internet-logo" transform="translate(-8530.008 -559.617)">
    <g id="CI_Logo" data-name="CI Logo" transform="translate(8530.008 559.617)">
      <g id="Group_20" transform="translate(0 0)">
        <g id="Group_12">
          <g id="Group_1222" data-name="Group 1222">
            <g id="Group_1221" data-name="Group 1221">
              <g id="Group_11" clip-path="url(#clip-path)">
                <g id="Group_10" transform="translate(-17.136 -2.43)">
                  <path id="Path_1" d="M74.606,58.584c4.694-1.47,7.728,5.784,4.883,8.3C76.644,69.347,69.912,60.054,74.606,58.584Z" transform="translate(-29.566 -30.548)" fill="#227d71" opacity="0.8"/>
                  <path id="Path_2" d="M61.537,11.825c-.19.1-.569,0-.664.19-.19.759,1.185.664,1.47,1.375.285.664-1.091,1.375-.664,1.944.1.1.379.1.379.285,0,.285-.379.1-.664.379-.19.19.379.1.1.474-.474.9-2.133.474-2.039,1.47,0,.285.379.664.1.759-.285.19-.474-.379-.664-.474-.569-.474-.569.569-1.375.569a2.881,2.881,0,0,1-1.185-.285c-.569-.19-.759-.664-1.28-.569-.19,0-.19.285-.379.285-.379,0,.19-.569-.1-.664-.285-.19-.9.1-1-.285a1.549,1.549,0,0,0,0-.664c-.1-.474-.9.1-1.47-.379-.664-.474-1.565-.569-1.565-1.28a1.01,1.01,0,0,0-.379-1c-.664-.474-.379-1.375,0-1.944.285-.379.19-1.091.569-1.47.379-.285,1-.285,1.565-.664.379-.285.569.474,1.565.1.379-.19.759.474,1.28.285.569-.379-.759-1.565-.1-1.565s.569,1.565,1.28,1.375c0,.19,0-.1.19-.19s.379.285.569.19c.474-.285-.1-1.375.569-1.47.379,0,.19.379.569.569.474.285.379,1.754,1,1.185.19-.19.19-1.091.569-.9s-.19,1-.19,1.28c.379.9,1,.379,1.754.474a.3.3,0,0,1,.285.285.511.511,0,0,1-.1.331Zm-1.9,2.323c-.474,0-.474.379-.474.569s.474.285.664.19C60.352,14.955,60.067,14.148,59.641,14.148Z" transform="translate(-17.35 -4.365)" fill="#eda521" opacity="0.85"/>
                  <path id="Path_3" d="M32.382,16.708c-.379-.1-.474-.285-.759-.379a.544.544,0,0,0-.569.759c.1.19.569.19.474.379-.1.1-.379-.1-.569,0-1,.379.9.9.9,1.47,0,.1-.379.285-.759.1-.474-.285-.285-.664-.759-.9-.569-.19-.569.759-.285,1.47.19.569.285.474.379,1.091,0,.19,0,.379-.19.474-.379.19-.285-1-.759-1.375-.285,0-.379.19-.569.19s-.1-.19-.379-.19c-.1,0-.1.19-.1.285.1.285.379.759-.1.9-.9.285-1.849-1.849-1.944-.664,0,.1-.1.19-.19.285-.379.1-.285-.569-.569-.664-.9-.285-2.039-.19-2.323-.759a2.237,2.237,0,0,0-1.47-1.375c-.285-.1.285-.569.1-.664-.569-.474-.379-1.185-.9-1.849-.664-.9,1.375-.474,1.185-1.375.1-.19-.285-.379-.19-.569.1-.285.285,0,.664,0s.664-.1.664-.474c0-.19-.379-.664-.1-.9.285-.19,1.185.285,1.091-.1a.585.585,0,0,1,.19-.664c.285.1.379.759.569.474.1-.19-.285-.474.1-.664.285-.19.379.19.664.19.569,0,.379.285.9.285a2.159,2.159,0,0,1,1.565.1c.19.1.1.474.379.569.19-.1.474-.285.569-.19.285.1-.1.285.1.285.285,0,.19-1,.664-1.185a1.48,1.48,0,0,1,1.28-.1c.379.1.379-.379.569-.285a1.449,1.449,0,0,0,.9.1c.19,0,0,.379.285.474.19.1.569-.19.664,0,.1.1-.19.1-.379.19,0-.19.474-.1.759-.1.379,0,1.091.474.759.759-.1.1-.285.1-.285.19s.285.1.379.19c.1.19-.285.19-.1.379.1.1.379,0,.285.19-.1.1-.285.1-.285.285s.9.474.569.759c-.19.1-.379-.19-.474-.19-.474.1.19.664,0,.759-.285.19.19.285-.379.474C33.947,15.428,33.662,16.992,32.382,16.708Zm-4.03,3.6c-.1-.1-.285.474-.1.379S28.447,20.5,28.352,20.311Zm1.185-3.7c.1-.379-.379-.474-.569-.285C28.873,16.613,29.347,16.992,29.537,16.613Z" transform="translate(-2.181 -5.455)" fill="#63184e" opacity="0.8"/>
                  <path id="Path_4" d="M44.834,78.08c.19.1.19-.19.379-.19a.292.292,0,0,0,.1.19c.1.1.285-.1.379-.1.759,0,.19-.9.664-1,.379-.1.474.569.759.9.379.379,1-.19,1.565-.379a1.989,1.989,0,0,1,1.28.1c.285.19.379.474.759.664.19,0,.19-.19.285-.1s.1.474.379.474c.664,0,1.185,0,1.47.664.1.19-.1.474,0,.569s.285.19.379.379c-.1.379-.474.285-.664.569,0,.285.759.19,1,.569.19.285-.285.664,0,1,.1.1.19,0,.379.1.664.379-.1.9-.569.19-.1-.1-.285.1-.474.19-.474.379-.285.664-.569,1-.1.1.1.285.1.379-.1.1-.569.1-.569.19-.1.379-.19.19-.474.379-.19.1.19.19.285.379.285.379-.664.569-.664.285,0-.19.1-.379-.1-.379-.9.1-.474,1.091-1.185,1.185-.379,0-1.659-.9-1.944-.569-.379.285-.379.664-.759.474-.19-.19,0-.569-.1-.569-.285,0-.1,1-.474.9-.332-.049.142-.521.049-.853,0-.1-.19-.1-.19,0-.1.379-.379.569-.474.19-.19-.9-.1-.379-.664-.379-.1,0-.19-.19-.19-.285s.1-.19.1-.285c.1-.285-.1-.19-.285,0-.1.1.1.569-.1.664-.285.1-.285-.379-.569-.379-.19,0-.1-.1-.1-.285,0-.1-.19.1-.19,0v-.1c0-.19.285,0,.285-.1,0-.19-.379-.285-.285-.474.1-.1.285.1.474,0s.19-.474-.285-.285c-.1,0-.379.1-.379,0-.1-.19.19-.569.379-.569.379-.19-.19-.569-.1-1,0-.19.19-.285.285-.474a6.042,6.042,0,0,0,.19-.664c0-.19.19-.19,0-.379-.1-.1-.285.1-.379,0a.7.7,0,0,1,.1-1,.494.494,0,0,1,.759.1c.285.19.379,0,.1-.19-.1-.1-.19,0-.379-.1-.1-.1.19-.285.1-.379-.1-.19-.664.19-.759-.1-.1-.19-.474-.1-.569-.379C43.079,78.08,44.739,77.938,44.834,78.08Z" transform="translate(-13.969 -40.325)" fill="#0e5c62" opacity="0.8"/>
                  <path id="Path_5" d="M31.851,80.549a2.231,2.231,0,0,1,1.185-.664c1.944-.759,1.091-2.56,3.319-1.659.664.285,1.565.19,2.133.474s.664.9,1.375,1c2.133.474,1.659,4.219.9,5.784-1.375,2.75-5.453,3.035-7.728,1.281a4.03,4.03,0,0,1-1.375-4.5A6.931,6.931,0,0,0,31.851,80.549Z" transform="translate(-7.719 -40.851)" fill="#2d2b6d" opacity="0.8"/>
                  <path id="Path_6" d="M70.343,78.436c-.19-.19-.379,0-.474-.285v-.285c.1-1-1.28-2.228-1.565-3.129-.1-.19.1-.474.19-.569.474-.569,1.375.759,2.133.569a2.575,2.575,0,0,1,1.185.1l.1-.1h0c-.664-.664-2.039-.664-2.323-1.47-.19-.474.19-.9.664-1.375.379-.379,1.375.1,1.944.19,1,.1,2.939,1,3.129,0,.1-.19-.285-.285-.664-.379-1.28-.19-3.319.569-4.219-.569-.474-.664,0-1.565.285-2.133.1-.19.19-1-.19-1-.285,0-.379.19-.664.19-.569,0-.285-.379-.664-.9-.379-.474,1.28-1.659.569-1.754-.474-.1-.664,1.185-1.091,1-.474-.19.1-1,.285-1.565.379-1.091,1.375-2.56.474-3.413-.19-.19-.379-.474-.474-.379s-.1.379-.19.664v.379c.19.759.474,1.754-.19,2.133-.1.1-.19-.379-.285-.19-.285.474-.285,2.56-1.091,2.039-.569-.379.379-1.185.285-2.039,0-.19.1-.9-.1-.664-.19.19,0,.664-.285.664-.19,0-.1-.379-.285-.19-.19.474-.19,2.228-.664,1.659-.379-.379.379-1.47-.1-1.47-.379,0,.1,1.28-.285,1.185s-.9-.759-.569-1.091a1.984,1.984,0,0,1-.569-.379c.1.9,1,1.565.379,2.228-.285.285-.569,0-1.28,0-.379,0-.664.379-1,.19A9.38,9.38,0,0,1,61,64.733c-.19-.19-.19-1.091-.664-.9-.379.1.19.759.379,1,.474.759,1.754,1.091,1.47,1.944-.1.474-.664.759-1.47.664a10.127,10.127,0,0,1-3.033-1.091c-.1.1-.19.285-.285.285a9.064,9.064,0,0,1,2.845,1.091c.285.19-.1,1,0,1.185,0,.285.474.19.474.379,0,.285-.19.19-.285.379s.379.379.379.664a5.968,5.968,0,0,1-.19,1.28c0,.1-.19.474-.1.664.19.1.474-.1.664.285a5.7,5.7,0,0,0,1.375,2.133c.1.19-.569.664-.379.664s0,.19.19.19.379-.9.569-.9c.285,0,.19.285.379.285.759,0,1,.759,1.565.759s.664-.379,1.091-.474c.569-.19.759-.759,1.28-.759,1.185,0,1.659,1.47,1.565,2.323,0,.285-.1.285,0,.474.569,1.47.569,3.413,2.133,3.319h.19C72.287,80.476,71.007,79.1,70.343,78.436Z" transform="translate(-21.368 -32.005)" fill="#759c3f" opacity="0.8"/>
                  <path id="Path_7" d="M27.274,83.324c.474-1.091,1.47-1.565.9-2.133-.664-.664.19-1.28-.759-2.133-.1-.1.285-.285.19-.474-.19-.285-.474,0-.664-.1-.19-.19.19-.569.1-.759-.19-.285-.664.19-.9,0-.1-.1-.1-.285-.19-.474-.285-.379-.379-.474-1-.285-.19.1-.664.285-.664.1-.1-.285-.1-.379-.379-.379a7.658,7.658,0,0,1-1.47-.095c-.379-.1-1.091.759-1.659,1.47-.19.285-1.091.1-1.185.379-.1.379.19.569.1.759-.1.285-1,.1-1,.379-.1.9-.664,1.565-.379,1.754.379.285.1.664.19,1.47.1.664.569.379.9.9.474.664.379,1.091.664,1.28.19.19.569-.379.759-.285s0,.379.19.474.379-.1.664-.1.1.379.379.474c.474.19,1.091-.664,1.47-.474.19.1.19.664.474.569s.285-.569.379-.759a.493.493,0,0,1,.379-.19c.285,0,.379.569.569.285C26.183,83.988,26.847,84.225,27.274,83.324Z" transform="translate(-0.771 -40.117)" fill="#b51f33" opacity="0.8"/>
                  <path id="Path_8" d="M45.384,17.613a3.529,3.529,0,0,1,1.091-.664c1.754-.664,1-2.323,3.034-1.565.569.285,1.47.285,1.849.474.569.285.569.759,1.28,1,1.944.379,1.565,3.793.759,5.263-1.28,2.56-4.978,2.75-7.017,1.185a3.764,3.764,0,0,1-1.28-4.125A6.861,6.861,0,0,0,45.384,17.613Z" transform="translate(-14.804 -7.83)" fill="#cd3927" opacity="0.95"/>
                  <path id="Path_9" d="M53.073,11.166c.379.569,1.565-.474,1.185-.9C53.783,9.791,52.882,10.834,53.073,11.166Z" transform="translate(-19.078 -5.176)" fill="#ecc21c" opacity="0.95"/>
                  <path id="Path_10" d="M59.663,8.693a.456.456,0,0,0,.19.569c.285.19.664-.19.569-.474C60.468,8.359,59.851,8.266,59.663,8.693Z" transform="translate(-22.539 -4.268)" fill="#ecc21c" opacity="0.95"/>
                  <path id="Path_11" d="M55.309,14.425c-.664.379.1.569.474.474S55.783,14.139,55.309,14.425Z" transform="translate(-20.13 -7.39)" fill="#ecc21c" opacity="0.95"/>
                  <path id="Path_12" d="M72.261,12.671a.547.547,0,0,0,.759-.759C72.64,11.39,71.6,12.2,72.261,12.671Z" transform="translate(-29.069 -6.017)" fill="#ecc21c" opacity="0.95"/>
                  <path id="Path_13" d="M85.273,19.306c.19.19,1-.19.9-.474C86.031,18.6,85.083,19.117,85.273,19.306Z" transform="translate(-36.013 -9.714)" fill="#ecc21c" opacity="0.95"/>
                  <path id="Path_14" d="M84.534,21.159c-1,1.754.569.19.664-.1C85.2,20.686,84.629,20.876,84.534,21.159Z" transform="translate(-35.463 -10.808)" fill="#ecc21c" opacity="0.95"/>
                  <path id="Path_15" d="M101.978,28.648c.19-.379-.285-.569-.474-.474C100.792,28.316,101.693,29.311,101.978,28.648Z" transform="translate(-44.421 -14.645)" fill="#ecc21c" opacity="0.95"/>
                  <path id="Path_16" d="M57.467,7.918c.379.1.285-.285.19-.379C57.137,6.922,56.756,7.68,57.467,7.918Z" transform="translate(-21.197 -3.682)" fill="#ecc21c" opacity="0.95"/>
                  <path id="Path_17" d="M100.888,18.58c.474,0,.569-1,0-1.185C100.271,17.3,100.271,18.58,100.888,18.58Z" transform="translate(-43.994 -8.987)" fill="#ecc21c" opacity="0.95"/>
                  <path id="Path_18" d="M78.5.693c-.569.1-.759.285-.9,1.185a1.019,1.019,0,0,0,.664.9h.1c.569,0,1.28-.474.9-.9-.19-.285-.664.19-.664-.1C78.691,1.5,79.4.6,78.5.693Z" transform="translate(-31.99 -0.202)" fill="#e9a422" opacity="0.95"/>
                  <path id="Path_19" d="M68.354,16.117c-.285.19.9.664,1.185.569C69.823,16.4,68.637,15.831,68.354,16.117Z" transform="translate(-27.105 -8.276)" fill="#e9a422" opacity="0.95"/>
                  <path id="Path_20" d="M97.858,14.4c.285.474,1.091-.19.9-.379C98.521,13.829,97.62,14.02,97.858,14.4Z" transform="translate(-42.623 -7.174)" fill="#e9a422" opacity="0.95"/>
                  <path id="Path_21" d="M72.693,3.6c-.664.1-.379,1.754.474,1.47C73.784,4.975,73.072,3.6,72.693,3.6Z" transform="translate(-29.217 -1.735)" fill="#e9a422" opacity="0.95"/>
                  <path id="Path_22" d="M15.969,24.941c0-.1,0-.19-.1-.19-.1-.19-.474.285-.474.379a.3.3,0,0,0,.569-.19Z" transform="translate(0.72 -12.835)" fill="#c42126" opacity="0.95"/>
                  <path id="Path_23" d="M9.981,20.228c.19-.1.19-.379.285-.474s.19.19.285.285c.285.285.19-1.28,0-1.375C10.218,18.331,9.412,20.607,9.981,20.228Z" transform="translate(3.674 -9.639)" fill="#c42126" opacity="0.95"/>
                  <path id="Path_24" d="M13.877,19.675a.348.348,0,0,0,.1-.285c-.1-.19-.379-.1-.379.19C13.544,19.675,13.783,19.77,13.877,19.675Z" transform="translate(1.673 -9.987)" fill="#c42126" opacity="0.95"/>
                  <path id="Path_25" d="M9.743,16.729c.569-.474-.1-1.185-.474-.9C8.747,16.444,9.316,17.013,9.743,16.729Z" transform="translate(4.054 -8.131)" fill="#c42126" opacity="0.95"/>
                  <path id="Path_26" d="M46.843,25.411a.57.57,0,0,0-.1-.379C45.847,23.941,46.7,26.975,46.843,25.411Z" transform="translate(-15.552 -12.878)" fill="#c42126" opacity="0.95"/>
                  <path id="Path_27" d="M50.862,24.667c.379-.285.474-1.185.1-1.28C50.343,23.2,49.867,25.521,50.862,24.667Z" transform="translate(-17.628 -12.135)" fill="#c42126" opacity="0.95"/>
                  <path id="Path_28" d="M14.745,10.734c.1.19.285.1.379-.1.1-.1,0-.285,0-.379C14.933,9.88,14.554,10.45,14.745,10.734Z" transform="translate(1.092 -5.171)" fill="#c42126" opacity="0.95"/>
                  <path id="Path_29" d="M14.4,8.156a.458.458,0,0,0-.1-.664.348.348,0,0,0-.285-.1C13.21,7.349,14.016,8.914,14.4,8.156Z" transform="translate(1.629 -3.73)" fill="#c42126" opacity="0.95"/>
                  <path id="Path_30" d="M18.471,9.053c.474-.569-.379-1.565-.759-1.091C17.19,8.579,18,9.622,18.471,9.053Z" transform="translate(-0.407 -3.963)" fill="#c42126" opacity="0.95"/>
                  <path id="Path_31" d="M11.778,6.374c.1.19.285-.1.285-.285a.2.2,0,0,0-.19-.19h-.1C11.586,6,11.683,6.279,11.778,6.374Z" transform="translate(2.683 -2.944)" fill="#c42126" opacity="0.95"/>
                  <path id="Path_32" d="M40.185,12.509a.64.64,0,0,0,.379-.569C40.754,10.85,39.095,12.888,40.185,12.509Z" transform="translate(-12.118 -5.95)" fill="#c42126" opacity="0.95"/>
                  <path id="Path_33" d="M26.481,5.185c.285-.474,0-1.091-.379-1-.1.1-.285.19-.285.285C25.3,5,26.149,5.659,26.481,5.185Z" transform="translate(-4.672 -2.04)" fill="#c42126" opacity="0.95"/>
                  <path id="Path_34" d="M43.692,11.012c.474-.569-.285-1-.474-.474C42.981,10.918,43.36,11.439,43.692,11.012Z" transform="translate(-13.87 -5.259)" fill="#c42126" opacity="0.95"/>
                  <path id="Path_35" d="M13.935.357c.285-.1.19-.569,0-.664S13.508.546,13.935.357Z" transform="translate(1.616 0.323)" fill="#c42126" opacity="0.95"/>
                  <path id="Path_36" d="M35.963,6.858a.234.234,0,0,0,.379.1c.285-.19.1-.759-.19-.664a.456.456,0,0,0-.19.569Z" transform="translate(-10.075 -3.143)" fill="#c42126" opacity="0.95"/>
                  <path id="Path_37" d="M45.128,4.594c.285.379.664.19.9-.285C46.408,3.03,44.417,3.694,45.128,4.594Z" transform="translate(-14.833 -1.733)" fill="#c42126" opacity="0.95"/>
                  <path id="Path_38" d="M35,4.849c.1.285.379-.569.1-.379a.981.981,0,0,0-.1.379Z" transform="translate(-9.588 -2.177)" fill="#c42126" opacity="0.95"/>
                  <path id="Path_39" d="M50.181,6.718C49.991,5.96,49,6.623,49,7.1,48.9,7.809,50.465,7.714,50.181,6.718Z" transform="translate(-16.946 -3.194)" fill="#c42126" opacity="0.95"/>
                  <path id="Path_40" d="M33.9,29.2c.285,0,.285.664-.1.569C33.9,29.579,33.751,29.485,33.9,29.2Z" transform="translate(-8.957 -15.198)" fill="#c42126" opacity="0.95"/>
                  <path id="Path_41" d="M41.238,25.528c.9-.9-.379-2.323-1.185-1.565C39.295,24.863,40.669,26.238,41.238,25.528Z" transform="translate(-12.128 -12.33)" fill="#c42126" opacity="0.95"/>
                  <g id="Group_1" transform="translate(14.173 32.298)" opacity="0.8">
                    <path id="Path_42" d="M7.615,40.226l.19-.19a2.17,2.17,0,0,0-1.091-2.845c-.1,0-.19-.1-.285-.1-.379-.1-.759.1-1.091-.19-.1-.1,0-.379-.1-.474a4.557,4.557,0,0,0-.664-1c-1-.9-3.129-1-3.7.19a5.722,5.722,0,0,0-.379.9c0,.19-.1.379-.1.569-1.28-.19-2.655.474-1.944,1.659.1.19.379.285.285.379s-.19,0-.285,0c-.1.1,0,.19-.1.379-.1.285-.379.285-.759.379-1.944,1,0,4.219,2.133,4.5a3.342,3.342,0,0,0,1.659-.19c.1,0,0-.1.19-.19.474-.19.569-.1.759-.474,0,0,.1-.379.285-.379.569.19.285,1.185.664,1.47a2.278,2.278,0,0,0,2.75-.285c.1-.19.379-.285.569-.474.474-.474-.1-1.28-.285-1.565-.1-.1-.379-.19-.474-.379,0-.285.285-.569.379-.9.1-.19.474.1.569-.1.1-.1.285-.285.379-.19.19.569.9.9,1.091.1C8.421,40.51,8.231,40.226,7.615,40.226Z" transform="translate(3.19 -34.749)" fill="#7e174a"/>
                  </g>
                  <path id="Path_43" d="M3.668,60.509c.474-1.091,1.47-1.565.759-2.228-.664-.664.19-1.28-.759-2.228-.19-.1.285-.285.19-.474-.19-.285-.474,0-.664-.1-.19-.19.19-.569.1-.759-.19-.285-.664.19-.9,0-.1-.1-.1-.379-.19-.474-.285-.379-.379-.474-1-.285-.19.1-.664.285-.664.1-.1-.379-.1-.474-.427-.474a7.658,7.658,0,0,1-1.47-.095c-.38-.1-1.091.758-1.66,1.47-.19.285-1.091.1-1.185.379-.1.379.19.569.1.759-.1.285-1,.1-1,.379,0,.9-.569,1.565-.285,1.849.379.285.1.664.19,1.47.1.664.569.379,1,.9.474.664.379,1.091.664,1.28.19.19.569-.379.9-.285.19.1,0,.379.19.474s.379-.1.664-.1.1.379.379.474c.474.285,1.091-.664,1.47-.474.19.1.19.664.569.569.285-.1.285-.569.379-.759a.493.493,0,0,1,.379-.19c.285,0,.379.569.569.285C2.482,61.22,3.239,61.41,3.668,60.509Z" transform="translate(11.694 -27.968)" fill="#3f1748" opacity="0.95"/>
                  <g id="Group_2" transform="translate(23.045 34.158)" opacity="0.8">
                    <path id="Path_44" d="M59.844,56.653c-.1-.1-.19-.1-.285-.19-.569-.379-1-1.091-1.47-.759-.1.1-.19.19-.19.285,0,.19.379.474.569.759a3.108,3.108,0,0,0,1.375,1.185v-1.28Z" transform="translate(-33.528 -46.701)" fill="#005d9a"/>
                    <path id="Path_45" d="M6.546,47.33c-.19-.19.19-.1.379-.285s.664.1,1.091,0c0,0-.19-.1-.1-.1a.926.926,0,0,1,1.091.1c.1.1-.19,0-.19,0C7.872,47,6.923,47.615,6.546,47.33Z" transform="translate(-6.494 -42.072)" fill="#005d9a"/>
                    <path id="Path_46" d="M15.569,65.4c-.19-.379.569-1.375,1.185-1a.71.71,0,0,0,.474.1c.759-.19.759-1.091,1.565-1.375.19-.1.285,0,.569-.1.1,0,.1.1.19.1.19,0,.379-.285.474-.1.19.285-.569.379-.9.569-1.185.569-1.375,2.228-2.939,2.228C15.852,65.777,15.663,65.683,15.569,65.4Z" transform="translate(-11.251 -50.563)" fill="#005d9a"/>
                    <path id="Path_47" d="M16.665,41.379c-.19-.1.474-.19.759,0C17.8,41.568,16.853,41.568,16.665,41.379Z" transform="translate(-11.825 -39.155)" fill="#005d9a"/>
                    <path id="Path_48" d="M22.76,41.942c-.19-.19.379-.19.474,0C23.47,42.037,22.948,42.037,22.76,41.942Z" transform="translate(-15.028 -39.434)" fill="#005d9a"/>
                    <path id="Path_49" d="M24.1,42.195h0a.093.093,0,0,1,.1-.1v.1Z" transform="translate(-15.753 -39.591)" fill="#005d9a"/>
                    <path id="Path_50" d="M21.125,53.9a.178.178,0,0,1,0-.285h0c.285-.285.664.285.379.379C21.408,54.086,21.313,53.992,21.125,53.9Z" transform="translate(-14.151 -45.604)" fill="#005d9a"/>
                    <path id="Path_51" d="M36.361,44.79c-.1.1-.285-.19-.19-.19S36.5,44.7,36.361,44.79Z" transform="translate(-22.087 -40.906)" fill="#005d9a"/>
                    <path id="Path_52" d="M48.572,38.322c-.1-.1.1-.569.1-.569s.663-1.185,1.659-.9c.664.1,1.565,0,1.659.9,0,.569.664,1.47-.285,1.849-1.565.569-1.185-.569-2.465-1C49.235,38.51,48.666,38.417,48.572,38.322Z" transform="translate(-28.609 -36.809)" fill="#005d9a"/>
                    <path id="Path_53" d="M50.34,59.725a1.462,1.462,0,0,1,.9,0c.759.379,1.47,1.565.759,1.849-.569.285-1.091-.664-1.565-1.185C50.34,60.245,50.008,59.818,50.34,59.725Z" transform="translate(-29.476 -48.823)" fill="#005d9a"/>
                    <path id="Path_54" d="M43.27,60.39c0,.285-.285.285-.474.379a1.373,1.373,0,0,1-1.091-.1c-.285-.379.19-.9.759-.9a.633.633,0,0,1,.806.617Z" transform="translate(-24.966 -48.873)" fill="#005d9a"/>
                    <path id="Path_55" d="M55.06,65.4c.19,0,.379.1.664.1.19.19.569.285.664.474.19.379-.664,1.28-1.565.9-.569-.474,0-.9.1-1.185C54.965,65.685,55.06,65.4,55.06,65.4Z" transform="translate(-31.778 -51.845)" fill="#005d9a"/>
                    <path id="Path_56" d="M12.732,46.881c-.474-.1.285,0,.664-.1.474-.1-.474.379-.569.285S12.827,46.881,12.732,46.881Z" transform="translate(-9.695 -42.049)" fill="#005d9a"/>
                    <path id="Path_57" d="M10.66,39.75c-.285.569-2.323.285-2.465-.379-.1-.474,1.185,0,1.754.1C10.328,39.56,10.755,39.465,10.66,39.75Z" transform="translate(-7.386 -38.047)" fill="#005d9a"/>
                    <path id="Path_58" d="M19.689,47.113a1.2,1.2,0,0,1,.569-.1c.285-.1,1-.379,1.185-.19.664.569-.474.474-.9.569-.19,0-.379.1-.569.1a.855.855,0,0,1-.474-.1C19.5,47.3,19.595,47.208,19.689,47.113Z" transform="translate(-13.333 -42.045)" fill="#005d9a"/>
                    <path id="Path_59" d="M21.175,42.257c-.285.285-1,0-1.375-.19s-.759,0-.9-.285c0-.285.664.1,1,.1.285.1.9,0,1.185.19C21.081,42.162,21.27,42.162,21.175,42.257Z" transform="translate(-13.018 -39.369)" fill="#005d9a"/>
                    <path id="Path_60" d="M24.289,42.8c-.1-.19.474.1.474-.1a.292.292,0,0,1-.19-.1c-.19-.19.285,0,.474.1.379.285,1.28.285,1.185.569C26.138,43.606,24.573,43.179,24.289,42.8Z" transform="translate(-15.846 -39.817)" fill="#005d9a"/>
                    <path id="Path_61" d="M37.4,43.257a.093.093,0,0,0-.1.1c0,.1.1.1.19,0S37.49,43.16,37.4,43.257Z" transform="translate(-22.694 -40.179)" fill="#005d9a"/>
                    <path id="Path_62" d="M37.7,43.839v.1h0c.285.1.569.379.474.19C38.174,43.98,37.89,43.648,37.7,43.839Z" transform="translate(-22.905 -40.476)" fill="#005d9a"/>
                    <path id="Path_63" d="M41.6,43.881c-1,.1-1.944.19-2.939.379-.379.1-.759.474-1.185.474-.569-.1-.379-.759-.9-1.185a3.384,3.384,0,0,0-2.133-.474c-.379-.1-1.28-.569-1.565.379,0,0,.19.1.19.19s-.285.1-.379.1H32.5s.1.19-.1.19c-.1,0-.19-.285-.19-.1-.1.19,0,.379-.285.379-.19,0,.1-.379-.1-.285-.285.1-.569-.1-.664,0-.285.19.1.569.379.569.1,0,0,.1.1.1s.19,0,.1.1h-.19a.093.093,0,0,1-.1-.1c-.19-.285-.379-.759-.569-.569s.379.285.285.474c-.1.1-.1.1-.285.1-.9-.1-1.091-.9-1.754-.759-.19,0-.285-.1-.474-.1-.474-.19-1.091-.474-1.185-.1-.1.569,1.754.285,2.323.664.19.1.379.569.474.759.1.1-.379.1-.285.19.19.19.9,0,.569.19-.1.1-.569.1-.664.1-1.091.474,0,.664.1,1.185,0,.1.379.1.379.285h0c-.1.19-1.28-.664-1.375-.379s.9.379.9.569-.285-.1-.474-.1c-.1,0-.1.1-.19.1-.19.285.664.1.379.379-.1.1-.474-.379-.664-.19s.474.1.19.285c-.19.1-1.185-.285-1.47-.19-.9.474-2.56,0-2.465.569.19.759,3.413-.569,4.03.19a.789.789,0,0,1,.1,1h0c-.19.19-.1,0-.19.19A15.418,15.418,0,0,1,26.2,51.277c-.474.285-1.375.474-1,.664,1.565,1.091,2.939-3.034,5.168-2.228a.633.633,0,0,1,.379.664c0,.1-.19,0-.19.1-.1.379-1.375.664-1.091,1.091,0,.1.19.1.1.1-.285.1-.474.569-.759.664-.9.285,0,1.375-.9,1.944-.1,0-.19.19-.19.379s.379.1.569,0c.474-.379.474-1,.9-1.565.285-.474.19-1,.569-1.47a9.38,9.38,0,0,1,1.754-1.565c.19-.1.569-.569,1-.474.379.1.664.759,1,.664.285-.1,0-.759.285-1a2.5,2.5,0,0,1,1.849-.1c.569.19.759,2.039,1.849,1.28.569-.379-2.323-.9-.379-2.228.664-.474.379-1.565,1.185-2.133a1.639,1.639,0,0,1,1-.19c.664,0,1.754.285,1.754-.285,0-.379-1.28,0-1.754,0a.855.855,0,0,1-.474-.1c-.1-.1-.379-.19-.285-.285A2.073,2.073,0,0,1,39,44.923a22.507,22.507,0,0,1,2.56-.664c.1,0,0-.1.1-.1h.19C41.6,43.976,41.6,43.976,41.6,43.881ZM30.083,47.674h-.1a.331.331,0,0,1,.19-.1c.1,0-.1,0-.1.1Zm.379-1.043c-.1.1-.19,0-.285-.1s.19-.19.285-.1v.19Zm.1-.616a.57.57,0,0,1-.379-.1c-.1-.19.379-.19.474,0C30.7,45.92,30.7,46.015,30.557,46.015Zm.332-.948a.331.331,0,0,1,.19-.1C31.078,45.067,30.889,45.067,30.889,45.067Z" transform="translate(-16.284 -39.998)" fill="#005d9a"/>
                    <path id="Path_64" d="M41.2,44.4Z" transform="translate(-24.746 -40.801)" fill="#005d9a"/>
                  </g>
                  <path id="Path_65" d="M77.811,66.093c.285.1.19.759-.1.9C77.384,66.946,77.623,66,77.811,66.093Z" transform="translate(-31.965 -34.596)" fill="#227d71" opacity="0.8"/>
                  <path id="Path_66" d="M79.352,64.4c-.1.1-.19.19-.19.285-.19.19-.19.759.19.474l.1-.1V64.4Z" transform="translate(-32.746 -33.709)" fill="#227d71" opacity="0.8"/>
                  <path id="Path_67" d="M85.969,67.743c1.091.474,1.375,1.091,1.091,3.034a1.665,1.665,0,0,1-1.849,1.47h-.287c-1.185-.379-2.276-1.754-1.327-2.56.569-.379,1.185.759,1.375.285C85.258,69.5,84.4,66.984,85.969,67.743Z" transform="translate(-34.955 -35.392)" fill="#005c99" opacity="0.8"/>
                  <path id="Path_68" d="M102.227,64.792c1.375.379-.19,3.129-1.185,3.034C100.283,67.825,101.563,64.6,102.227,64.792Z" transform="translate(-44.196 -33.911)" fill="#8e9537" opacity="0.8"/>
                  <path id="Path_69" d="M72.415,69.374c.19-.285.379,2.039-.19,1.375C71.751,70.227,72.037,69.753,72.415,69.374Z" transform="translate(-29.033 -36.312)" fill="#005c99" opacity="0.8"/>
                  <path id="Path_70" d="M76.436,66.769c.19.285-1.091.569-1.28.285C74.872,66.769,76.2,66.485,76.436,66.769Z" transform="translate(-30.684 -34.893)" fill="#005c99" opacity="0.8"/>
                  <path id="Path_71" d="M64.809,79.632c-.379-.379.569-.569,1.185-.285C66.845,79.917,65.185,80.012,64.809,79.632Z" transform="translate(-25.218 -41.498)" fill="#005c99" opacity="0.8"/>
                  <path id="Path_72" d="M98.181,78.178c1.375.569-.285,4.125-1.754,3.129C95.289,80.643,97.327,77.893,98.181,78.178Z" transform="translate(-41.714 -40.944)" fill="#005c99" opacity="0.8"/>
                  <path id="Path_73" d="M70.7,54.414c4.789-.9,4.6,5.974,0,5.263a2.594,2.594,0,0,1-2.322-2.942A2.934,2.934,0,0,1,70.7,54.414Zm1.849,2.039c-.19.19,0,.474.19.569.1.1.474.1.664.1.285.1.19-.474.19-.664-.049-.383-.616-.285-1.043,0Z" transform="translate(-27.125 -28.415)" fill="#f4d30f"/>
                  <path id="Path_74" d="M75.837,66.879a4.5,4.5,0,0,1,.9.759c1.091,1.375,2.56.379,2.228,2.323-.1.569.1,1.375,0,1.754-.19.569-.664.664-.664,1.375,0,1.849-3.509,2.133-5.168,1.849a4.158,4.158,0,0,1-3.129-4.883,4.245,4.245,0,0,1,.379-1.091,3.909,3.909,0,0,1,3.888-1.944C74.937,67.068,75.648,66.781,75.837,66.879Z" transform="translate(-27.952 -35.002)" fill="#ed9f21" opacity="0.8"/>
                  <path id="Path_75" d="M69.091,33.73c.9.379,2.465.379,3.034.9A4.883,4.883,0,0,1,73.311,36.2a3.528,3.528,0,0,1,.1,2.939c-1.091,2.039-3.413.664-4.409,1.849-.474.569-.474,1.659-1,1.944a3.338,3.338,0,0,1-2.323.285,2.3,2.3,0,0,1-1.659-2.655,2.687,2.687,0,0,1,.569-1.091c.19-.19.379-.19.569-.379s0-.569-.19-.759c-1-1-3.413-.9-4.125-1.659a4.386,4.386,0,0,1-.759-4.03A4.922,4.922,0,0,1,64.492,29.7a5.9,5.9,0,0,1,1.849.474,6.555,6.555,0,0,1,1.849,1.754C68.714,32.592,68.428,33.54,69.091,33.73Zm-4.314-2.8a.324.324,0,0,1,.1-.569C65.2,30.221,66.437,31.312,64.777,30.933Z" transform="translate(-22.676 -15.461)" fill="#d35227" opacity="0.8"/>
                  <path id="Path_76" d="M-17.731,41.045c.285-.285.664.664.379,1.091a.64.64,0,0,1-.569.379.738.738,0,0,1-.285-.664C-18.11,41.423-18.015,41.138-17.731,41.045Z" transform="translate(18.394 -21.399)" fill="#7e174a" opacity="0.8"/>
                  <path id="Path_77" d="M-.5,33.662c.569-.285.9,1.185.285,1.185a.633.633,0,0,1-.664-.379C-1.253,34.135-.874,33.85-.5,33.662Z" transform="translate(9.361 -17.525)" fill="#7e174a" opacity="0.8"/>
                  <path id="Path_78" d="M-8.18,33.015c.664-.474.9,1.28.379,1.659-.285.19-.474.1-.759-.1-.19-.1,0-.19-.19-.474C-8.938,33.677-8.464,33.3-8.18,33.015Z" transform="translate(13.442 -17.161)" fill="#7e174a" opacity="0.8"/>
                  <path id="Path_79" d="M3.134,40.074c.19-.19.1.759-.1.759C2.755,40.642,2.946,40.263,3.134,40.074Z" transform="translate(7.296 -20.902)" fill="#7e174a" opacity="0.8"/>
                  <path id="Path_80" d="M55.975,3a2.686,2.686,0,0,0,1.091-.569c.664-1.47.664-2.939-.285-2.749C55.689-.033,55.6,2.337,55.975,3Z" transform="translate(-20.512 0.334)" fill="#7e174a" opacity="0.8"/>
                  <path id="Path_81" d="M5.939,42.8c.806.1-.285,1.043-.474.569a.422.422,0,0,1,.285-.569Z" transform="translate(5.961 -22.35)" fill="#7e174a" opacity="0.8"/>
                  <path id="Path_82" d="M-7.838,38.291c-.664-.379-.1-1.28.285-1.659C-5.895,35.162-6.368,39.1-7.838,38.291Z" transform="translate(13.101 -18.931)" fill="#7e174a" opacity="0.8"/>
                  <path id="Path_83" d="M9.524,57.925c.1-.1.1-.1.19,0s.1.19,0,.19-.1.1-.19,0S9.427,57.925,9.524,57.925Z" transform="translate(3.848 -30.266)" fill="#7e174a" opacity="0.8"/>
                  <path id="Path_84" d="M5.656,61.025a.288.288,0,0,1,.379,0,.178.178,0,0,1,0,.285h0a.288.288,0,0,1-.379,0S5.561,61.215,5.656,61.025Z" transform="translate(5.866 -31.897)" fill="#7e174a" opacity="0.8"/>
                  <path id="Path_85" d="M6.5,67.185c.1-.19.19-.285.379-.285s.285.19.19.285h0c-.1.19-.19.285-.379.285C6.595,67.469,6.5,67.28,6.5,67.185Z" transform="translate(5.4 -35.024)" fill="#7e174a" opacity="0.8"/>
                  <path id="Path_86" d="M-.066,76.633c.379.474,0,.569-.379,1.28-.19.381-.666-.284-.569-.569C-1.062,76.917-.492,76.158-.066,76.633Z" transform="translate(9.359 -40.063)" fill="#7e174a" opacity="0.8"/>
                  <path id="Path_87" d="M10.134,82.417c-.285-.285.474-.664.664-.474C11.222,82.228,10.463,82.7,10.134,82.417Z" transform="translate(3.522 -42.908)" fill="#7e174a" opacity="0.8"/>
                  <path id="Path_88" d="M3.2,93.231a1.323,1.323,0,0,1,.569-1.185c1.944-1.754.569,4.409-.379,1.944a2.534,2.534,0,0,1-.19-.759Z" transform="translate(7.139 -48.08)" fill="#7e174a" opacity="0.8"/>
                  <path id="Path_89" d="M8.128,59.526c.474.285-.9,1.47-1.28.9C6.564,59.9,7.654,59,8.128,59.526Z" transform="translate(5.242 -31.063)" fill="#7e174a" opacity="0.8"/>
                  <path id="Path_90" d="M-18.126,91.894c.1-.1-.379-.1-.474-.285,0-.1,0-.285.1-.285s.1-.1.19-.1c.19-.19.569.1.664.285.19.285-.19.379-.474.664C-18.221,92.274-18.126,91.989-18.126,91.894Z" transform="translate(18.6 -47.786)" fill="#7e174a" opacity="0.8"/>
                  <path id="Path_91" d="M-6.56,89.095c.285-.379.664.474.474.759-.19.19-.19-.569-.474-.474C-6.8,89.379-6.7,89.189-6.56,89.095Z" transform="translate(12.344 -46.645)" fill="#7e174a" opacity="0.8"/>
                  <g id="Group_3" transform="translate(1.842 9.685)" opacity="0.8">
                    <path id="Path_92" d="M7.417,17.639H7.323c-.285-.379-.19-2.039.285-2.039s.474,1.375.285,1.849c-.1.1-.379.474-.474.379a.132.132,0,0,1,0-.189Z" transform="translate(4.109 -13.025)" fill="#63266e"/>
                    <path id="Path_93" d="M18.092,30.188c.19,0,.1.474,0,.664-.1.1-.379.19-.474,0C17.381,30.662,17.76,30.091,18.092,30.188Z" transform="translate(-1.351 -20.691)" fill="#63266e"/>
                    <path id="Path_94" d="M24.689,40.938a.784.784,0,0,1-.9,0c-.1-.19.474-.9.759-.759C24.784,40.131,24.878,40.843,24.689,40.938Z" transform="translate(-4.629 -25.942)" fill="#63266e"/>
                    <path id="Path_95" d="M-7.152,35.036c0,.19-.285.569-.474.569S-8,35.226-8.1,35.036c0-.1.1-.19.19-.285C-7.626,34.61-7.152,34.847-7.152,35.036Z" transform="translate(12.135 -23.074)" fill="#63266e"/>
                    <path id="Path_96" d="M.822,49.987c.19-.1,0,.379.1.569.285.9-.379,1.849-.569,2.75-.1.285,0,1.091-.285.9C-1.169,53.5-.552,50.65.822,49.987Z" transform="translate(8.191 -31.102)" fill="#63266e"/>
                    <path id="Path_97" d="M-16.511,47.851c-.1,0-.1-.1-.1-.19-.1-.474,1.28-1.185,1.47-.664v.1C-15.041,47.566-15.942,47.851-16.511,47.851Z" transform="translate(16.611 -29.441)" fill="#63266e"/>
                    <path id="Path_98" d="M-2.65,49.2c.474,0-.379.759-.474,1.28-.1.285-.474,1-.664.664A1.426,1.426,0,0,1-3.7,50a1.426,1.426,0,0,1,.9-.706C-2.887,49.3-2.792,49.2-2.65,49.2Z" transform="translate(9.908 -30.695)" fill="#63266e"/>
                    <path id="Path_99" d="M-.176,62.8c.1,0,.1.19,0,.285S-.273,62.8-.176,62.8Z" transform="translate(8.006 -37.847)" fill="#63266e"/>
                    <path id="Path_100" d="M-.808,63.4c.285,0,0,1.185-.19,1.091C-1.52,64.4-1.185,63.4-.808,63.4Z" transform="translate(8.541 -38.163)" fill="#63266e"/>
                    <path id="Path_101" d="M2.539,29.432a.63.63,0,0,1,.474-.379c.1,0,1,.379,1.091-.1a.96.96,0,0,0-.285-1c-.1,0-.379.19-.474.1s0-.569.1-.759.664-.474.664-.379c.1.1-.285.379-.19.474.19.19.9.1,1.185-.1a.9.9,0,0,0,.19-.664,1.475,1.475,0,0,0-.759-.569c-.285,0-.759.379-1,.285-.19-.1-.569-.379-.569-.474s.379,0,.474-.1-.19-.285-.285-.474.569-.759.474-.9c-.379-.569-1,.474-1.185.379-.1,0-.1-.1-.1-.19a2.456,2.456,0,0,1,1.469-1.658c.1,0,.285.285.379.285.285-.1.379-.664.569-.9.19-.285,1.28-.664,1.091-1-.187-.285-.9.758-1.279.758-.1,0-.285-.285-.379-.285-.285.1-.474.664-.664.759-.379.379-1.375,1.28-1.849,1.185-.1,0-.1-.1-.1-.19.1-.379,1-.664,1.28-1,.1-.19.379-.474.379-.664a.7.7,0,0,0-.569-.569c-.285,0-.664.474-.664.759,0,.1.19.19.1.285-.1.285-.664,1-1,.9-.19-.1-.1-.569,0-.759s.569-.1.569-.379-.759-.379-1-.285c-.1.1-.1.379-.19.474s-.095.094-.192.094c-.285-.1-.379-.474-.569-.664s.379-1.091.19-1.375c-.1-.19-1.47-.664-1.47-.759.1-.664.759-.474.9-1.091A2.687,2.687,0,0,1-.07,17.436c.285-.285.569-.664.9-1,.285-.285.474-.569.759-.9a14.428,14.428,0,0,1,1.849-1.28c1.091-.19-.285-.664-.474-.474a12.018,12.018,0,0,0-1.47,1.754c-.19.285-1,.474-1.185.759s-.1.664-.379,1c-.474.569-1,1.754-1.659,1.849-.474.1-.9-.664-1.185-1.185-.285-.569.19-2.845-.569-2.75s.285,2.56-.1,3.224c-.1.1-.19.19-.285.19a1.613,1.613,0,0,1-.664-.1A5.38,5.38,0,0,1-5.71,17.152c-.1-.379-.285-.9-.379-1.375-.1-.285-.285-1.091-.379-1.375a2.478,2.478,0,0,1-.285-.758c0-.379-.19-.664-.1-1,0-.1-.1-.1,0-.19,0-.1.285-.1.285-.19.285-.379.569-1.47.285-1.754a1.918,1.918,0,0,0-2.323.1,2.645,2.645,0,0,0-.474,2.039c.1.19.664.285.9.474.285.19.474.9.664,1.185.1.1.19.1.285.19a12.409,12.409,0,0,1,1.09,2.655c0,.1.1.379.1.474s.285.285.285.379v.285c0,.19.19.569.19.759a1.93,1.93,0,0,1-.664.569c-.19.19-.759.569-1,.474-.1,0-.1-.474-.19-.474-.19,0-.664.569-.569.759s.664-.19.759-.1c.19.19-.19.759-.285,1-.1.19-.19.569-.379.664s-.759-.19-.9-.1a.178.178,0,0,0-.071.142.178.178,0,0,0,.071.142c.1.19.664,0,.759.1.1.19-.19.664-.19,1,0,.285.19,1,.1,1.185-.1.1-.19.285-.379.285a.423.423,0,0,1,.474,0c.19.1-.19.664-.285,1a2.04,2.04,0,0,1-.379.521c-.285.19-.664.379-1,.569-.379.285-1.091.569-1.091.9-1.185.285-3.413,1.47-2.75,2.323.758,1,2.227-1.469,3.413-2.225.9-.664,1.944-2.228,2.56-1.849.616.285-1.043,2.039-.237,2.655.379.285.474-1.091,1.28-1.091.19,0,.285-.379.474-.285.379.285-.474,1.47,0,1.47.285,0,.19-1.28.664-1.185a6.534,6.534,0,0,1,.759.285,1.143,1.143,0,0,1,.474.474v.19c-.475.377-.76.993-.191.993.474,0,.19-.759.664-.569.664.285.285,1.375,1.375,1.47.285,0,.19.664.569.569.474-.19.664.1,1.091.19.285.1.664-.1,1.185-.1.19,0,.285-.474.474-.474.664.1.285-.19.474-.474.285-.379,1.754,1.185,2.133.9C3.818,30.807,2.444,29.622,2.539,29.432Z" transform="translate(15.055 -10.169)" fill="#63266e"/>
                    <path id="Path_102" d="M-3.315,41.6c-.1,0-.19.1-.285.1A.348.348,0,0,1-3.315,41.6Z" transform="translate(9.768 -26.695)" fill="#63266e"/>
                    <path id="Path_103" d="M23.419,52.684a4.922,4.922,0,0,0-1.659-.569c-.474-.1-1.565-.9-1.659-.664v.1c.759.9.569.569,1.565.9.664.19,1.28,1.28,1.944.664C23.7,52.874,23.419,52.779,23.419,52.684Z" transform="translate(-2.696 -31.856)" fill="#63266e"/>
                    <path id="Path_104" d="M-10.673,43.554c.474,1.091,2.228-1.091,3.319-1.754C-8.636,42.369-11.2,42.464-10.673,43.554Z" transform="translate(13.525 -26.803)" fill="#63266e"/>
                    <path id="Path_105" d="M-5.777,29.853a1.559,1.559,0,0,1-.285.9,1.974,1.974,0,0,1-1.28,0A1.465,1.465,0,0,1-8.1,29.664c0-1,1.28-1.093,1.375-1a1.575,1.575,0,0,1,.948,1.185Z" transform="translate(12.135 -19.882)" fill="#63266e"/>
                    <path id="Path_106" d="M.087,59.1c.285,0,.1,1.091-.19,1.091C-.482,60.238-.2,59.1.087,59.1Z" transform="translate(8.025 -35.901)" fill="#63266e"/>
                    <path id="Path_107" d="M11.439,58.513c-.474.379-1.754-.664-1.849-1.185-.1-.38.569-1.328.948-1.328C11.247,56,12.008,58.039,11.439,58.513Z" transform="translate(2.837 -34.271)" fill="#63266e"/>
                  </g>
                  <path id="Path_108" d="M29.672,70.572a2.179,2.179,0,1,1-2.372-1.09A2.506,2.506,0,0,1,29.672,70.572Zm-1.185,2.086c-.19-.1-.379.19-.379.285s.1.379.1.474c0,.285.474,0,.569,0,.38-.19.094-.569-.286-.759Z" transform="translate(-4.639 -36.372)" fill="#b41e45" opacity="0.8"/>
                  <path id="Path_109" d="M11.473,65.868a2.5,2.5,0,0,1,0,1.185c-.285,1.754,1.565,2.228-.285,3.319-.474.285-.9,1-1.375,1.185-.474.285-1,0-1.47.379-1.375,1.185-4.125-1.28-5.073-2.845A4.179,4.179,0,0,1,4.74,63.4a4.5,4.5,0,0,1,1.28-.472,4.381,4.381,0,0,1,4.314,1.754C10.666,65.346,11.282,65.631,11.473,65.868Z" transform="translate(7.397 -32.901)" fill="#721445" opacity="0.8"/>
                  <g id="Group_4" transform="translate(3.606 7.096)" opacity="0.8">
                    <path id="Path_110" d="M-1.909,80.02c-.1-.285-.759-.19-.759-.569a.57.57,0,0,1,.1-.379A5.647,5.647,0,0,1,.083,75.659c.474-.19.9-.759,1.28-.759.1,0,.19.1.285.19.664.664-.569,1.28-1.185,1.944-.379.474-.9,1-1.091,1.28-.285.379,0,.569.19,1.185.284.664-1.092,1.091-1.184,1.754a11.073,11.073,0,0,1-.761,2.321.813.813,0,0,1-.664.569c-.19,0-.285-.1-.379-.285C-3.711,82.343-1.34,81.68-1.909,80.02Z" transform="translate(8.784 -42.905)" fill="#b41f70"/>
                    <path id="Path_111" d="M19.832,7.5c.285-.285.1.19.474.474s-.1,1,0,1.375c0,.1.1-.19.19-.1a.978.978,0,0,1-.1,1.375.093.093,0,0,0-.1.1c-.19.1,0-.19,0-.285C20.306,9.257,19.311,7.977,19.832,7.5Z" transform="translate(-3.38 -7.415)" fill="#b41f70"/>
                    <path id="Path_112" d="M-14.084,19.449c.664-.285,2.228.759,1.659,1.47a.562.562,0,0,0-.1.664c.379,1,1.754,1,2.323,1.944.19.285.1.379.19.759,0,.1-.19.1-.19.19,0,.285.474.474.19.664-.474.285-.569-.759-1-1.185-1-1.47-3.6-1.754-3.7-3.793A.78.78,0,0,1-14.084,19.449Z" transform="translate(14.701 -13.718)" fill="#b41f70"/>
                    <path id="Path_113" d="M30.352,20.672c.19-.19.285.664.1,1.091C30.161,22.235,30.161,21,30.352,20.672Z" transform="translate(-8.922 -14.372)" fill="#b41f70"/>
                    <path id="Path_114" d="M29.441,28.934c.285-.285.285.474,0,.664C29.25,29.69,29.25,29.027,29.441,28.934Z" transform="translate(-8.437 -18.698)" fill="#b41f70"/>
                    <path id="Path_115" d="M29.1,30.6h.1v.19H29a.292.292,0,0,0,.1-.19Z" transform="translate(-8.281 -19.608)" fill="#b41f70"/>
                    <path id="Path_116" d="M9.16,26.824a.423.423,0,0,1,.474,0c.379.285-.474.9-.664.474C8.874,27.106,9.065,27.011,9.16,26.824Z" transform="translate(2.266 -17.584)" fill="#b41f70"/>
                    <path id="Path_117" d="M25.053,46.661c-.19-.1.285-.285.379-.19S25.147,46.756,25.053,46.661Z" transform="translate(-6.182 -27.941)" fill="#b41f70"/>
                    <path id="Path_118" d="M30.9,62.38c.19-.1,1.091.19,1.091.19s1.849.9,1.565,2.228c-.19.9,0,2.039-1.47,2.133-1.091.1-2.465.9-3.129-.285-1.091-2.039,1-1.47,1.659-3.224C30.568,63.327,30.663,62.474,30.9,62.38Z" transform="translate(-8.095 -36.31)" fill="#b41f70"/>
                    <path id="Path_119" d="M-2.768,64.927a1.3,1.3,0,0,1,0,1.185c-.569,1-2.56,1.944-3.129,1.091-.474-.759,1.091-1.47,1.849-1.944C-3.669,64.834-2.958,64.6-2.768,64.927Z" transform="translate(10.117 -37.578)" fill="#b41f70"/>
                    <path id="Path_120" d="M-2.271,55.963c-.379-.1-.379-.379-.569-.664-.191-.475-.191-1.186.19-1.373a1.152,1.152,0,0,1,1.373.472.855.855,0,0,1,.1.474A1.1,1.1,0,0,1-2.271,55.963Z" transform="translate(8.529 -31.838)" fill="#b41f70"/>
                    <path id="Path_121" d="M-11.423,71.317a3.408,3.408,0,0,1-.19.9c-.285.285-.474.664-.759.9-.569.19-2.133-.9-1.565-2.039.9-.664,1.47,0,1.944.19C-11.9,71.222-11.423,71.222-11.423,71.317Z" transform="translate(14.363 -40.745)" fill="#b41f70"/>
                    <path id="Path_122" d="M20.97,15.6c.19-.569,0,.379.1.9.19.569-.569-.569-.474-.759C20.781,15.6,20.97,15.889,20.97,15.6Z" transform="translate(-3.854 -11.629)" fill="#b41f70"/>
                    <path id="Path_123" d="M31.582,12.925c-.9-.285-.379-3.034.569-3.129.759-.1.1,1.47-.1,2.323C31.867,12.64,32.2,13.114,31.582,12.925Z" transform="translate(-9.393 -8.665)" fill="#b41f70"/>
                    <path id="Path_124" d="M19.81,24.86a1.786,1.786,0,0,1,.19.759c.1.379.664,1.28.379,1.565-1,.9-.759-.664-1-1.185a1.81,1.81,0,0,1-.285-.759,1.016,1.016,0,0,1,.19-.569C19.526,24.574,19.81,24.765,19.81,24.86Z" transform="translate(-3.074 -16.476)" fill="#b41f70"/>
                    <path id="Path_125" d="M28.023,26.845c-.379-.379,0-1.28.285-1.754s0-1.091.569-1.091c.379,0-.19,1-.19,1.28-.1.379,0,1.185-.285,1.47C28.213,26.75,28.118,26.939,28.023,26.845Z" transform="translate(-7.683 -16.137)" fill="#b41f70"/>
                    <path id="Path_126" d="M26.929,30.79c.285-.1-.1.569.19.569.1,0,0-.1.19-.19.285-.19.1.379-.1.569-.474.569-.379,1.659-.9,1.565C25.934,33.255,26.22,31.122,26.929,30.79Z" transform="translate(-6.779 -19.703)" fill="#b41f70"/>
                    <path id="Path_127" d="M27.668,48.1c0-.1-.19-.1-.19-.1-.19,0-.1.1,0,.285S27.668,48.19,27.668,48.1Z" transform="translate(-7.423 -28.758)" fill="#b41f70"/>
                    <path id="Path_128" d="M26.36,48.125c-.1-.1-.19-.1-.19,0-.19.379-.569.664-.285.664S26.645,48.5,26.36,48.125Z" transform="translate(-6.59 -28.786)" fill="#b41f70"/>
                    <path id="Path_129" d="M18.825,81.52c.19.1.379,0,.569-.19l.285-.569c.379-1.091-.664-2.75-1-3.793-.19-.474.1-1.47-.379-1.47C17.451,75.548,17.071,80.525,18.825,81.52Z" transform="translate(-2.278 -43.22)" fill="#b41f70"/>
                    <path id="Path_130" d="M27.453,92.8c-.1,0,.1-.285.1-.285,0-.1-.19-.285-.19-.379l.1.1c.19-.759,0-2.75-.569-2.845a.093.093,0,0,0-.1.1c-.1-.1-.19-.19-.19-.285.1.285.1.569.19.9.474,1.944-.759,5.073,1.091,5.974.474.285.664-.9.474-1.28-.19-.664-.379-1.375-.569-1.944" transform="translate(-7.019 -50.425)" fill="#b41f70"/>
                    <path id="Path_131" d="M6.068,42.264c-.1,0-.19.19-.285.19s-.1-.379-.1-.474h0a.348.348,0,0,0-.1-.285c-.1,0-.285.1-.379-.1,0-.19.474-.285.19-.285-.379-.1-.664,0-.664-.379,0-.285.569.1.474-.1-.19-.379.19-.759,0-.9-.285-.285-.9.19-.9.474,0,.19-.1,0-.19.1,0,0,0,.285-.1.19v-.19l.1-.1c.19-.285,1-.569.759-.759-.285-.19-.474.474-.9.285-.19-.1-.1-.19-.1-.379.19-1.091,1.375-1.47,1.28-2.323,0-.285.1-.285.19-.569.285-.569.759-1.47.19-1.565-1-.1-.474,2.323-1.091,3.129-.19.285-1,.474-1.375.664-.19.1-.1-.569-.285-.379-.285.285-.1,1.185-.285.759-.1-.19-.1-.759-.19-1-.9-1.375-1.091,0-1.849.19-.19,0-.19.474-.474.569H-.1c-.379-.19,1.185-1.659.569-1.754-.379-.1-.664,1.185-1,1.185-.285,0,.19-.285.19-.664a.2.2,0,0,0-.19-.19c-.379-.285-.19.9-.569.569-.285-.285.474-.9.285-1.091-.379-.285-.19.664-.474.285-.285-.285.474-1.565.19-1.944-.9-1.185,0-3.413-.9-3.129-1.375.285,1,4.5-.19,5.263a1.514,1.514,0,0,1-1.659.1c-.286-.188,0-.1-.286-.285a20.49,20.49,0,0,1-3.034-3.793c-.474-.664-.759-1.754-1.185-1.375C-10.1,34.345-3.369,36-4.554,38.944a1.117,1.117,0,0,1-1.091.569c-.1,0,0-.285-.19-.285-.662-.095-1.183-1.751-1.753-1.374-.1,0-.1.285-.1.19-.19-.379-1-.569-1.185-1-.569-1.185-2.228,0-3.224-1.091-.1-.1-.379-.285-.569-.19s-.19.569,0,.759c.711.759,1.706.664,2.608,1.138.759.379,1.659.19,2.465.759a9.643,9.643,0,0,1,2.56,2.228c.19.285,1,.759.759,1.185-.19.379-1.375.569-1.185,1,.19.379,1.28,0,1.565.285A2.771,2.771,0,0,1-3.6,45.583c-.284.758-3.413,1.09-2.131,2.465.664.759,1.375-3.034,3.7-.569.9.9,2.655.474,3.6,1.47a1.955,1.955,0,0,1,.379,1.28c-.1.9-.379,2.323.474,2.323.569,0-.1-1.565,0-2.323a1.2,1.2,0,0,1,.1-.569c.19-.19.285-.474.474-.285a1.984,1.984,0,0,1,.379.569c.379,1,.759,2.465,1.185,3.319,0,.1.19.1.19.1a4.81,4.81,0,0,1,.1,1.185,7.691,7.691,0,0,0,1,4.883c-.474-2.939-.379-6.732-1.28-9.482-.19-.474-.9-1-.759-1.47.1-.759,1.28-.474,1.944-1.185.9-.759.664-2.039.9-2.845C6.732,43.733,7.633,42.548,6.068,42.264ZM-.9,38.566c-.1.1-.19,0-.19-.1a.292.292,0,0,1,.1-.19s.19.19.1.285Zm1.849.474H.664c-.1-.1,0-.285.19-.285.094-.19.236.19.094.285Zm.9.19a.348.348,0,0,1-.285-.1c-.1-.1,0-.474.19-.474.284-.19.284.474.094.572Zm1.565.521c-.1.1-.285-.19-.19-.19S3.509,39.656,3.414,39.751Z" transform="translate(13.703 -20.414)" fill="#b41f70"/>
                    <path id="Path_132" d="M26.1,52.9Z" transform="translate(-6.756 -31.335)" fill="#b41f70"/>
                  </g>
                  <path id="Path_133" d="M15.393,26.474a2.858,2.858,0,0,0-.19,1c-2.94,2.323-7.918,1.185-9.1-2.229,0-.19.19-.379.379-.664-.569-1.185,0-2.655,1.091-4.219.569-.569,1.28-.664,1.849-1.565,2.039-1.09,7.11-.663,7.256,2.323.1.19.664.285.569.474a5.668,5.668,0,0,1-.569,4.219C16.388,26.142,15.582,26.237,15.393,26.474Z" transform="translate(5.611 -9.438)" fill="#342a6f" opacity="0.8"/>
                  <path id="Path_134" d="M3.152,23.858c1.091.1,1.754.9,2.56.759,1.849-.19,2.133-.664,3.509-.285,1.849.569.9-1.091,2.133-.19.664.474,1.185.379,1.565-.1s-1.565-.19-2.133-1a.926.926,0,0,1-.1-1.091c.569-.569,1.659.379,2.228.285.379,0,1.091-.759,1.565-.379,2.56,1.659.759-.569.474-1.28-.19-.379.9-.1.285-.664-.285-.142-.285-.948-.285-1.233a2.1,2.1,0,0,1,1.091-1.375c1.754-1,3.129,1.091,3.7,3.034.1.285.379-.285,1.185.19,1,.569.474,3.7,1.565,3.129,1.659-.9,2.75-.285,2.56,1.375,0,.379-.569.569-.474,1.091.285,1.47-.474,1.754-.19,2.56.474,1.091,1.28,1.375,1.185,2.655s2.039,1.28,3.034,1.754c.569.285.569.664,1,1.28.285.379,1.185.664.9,1.091-.379.474-1,.19-1.659-.19-.474-.285-.285.19-1.091,0A8.715,8.715,0,0,1,25.2,33.34c-.285-.285-1.091-.569-2.228.474-.664.569.1,1.091-.1,1.849-.19.664,1.185.759,1.375,1.754a1.039,1.039,0,0,1,0,.759.868.868,0,0,1-1,.569,2.073,2.073,0,0,1-.474-.285c-.19-.285,0-.379-.19-.569-.1-.1-.19.1-.474.1-.379,0-.19-.664-.569-1.28-.285-.379-.474-.759-1-.759-.285,0-.379-.759-.9-.9-1.754-.19-1.47,1.47-2.655,2.56-.379.379-1.754-.569-2.133-.19a3.067,3.067,0,0,1-4.314-.285,2.069,2.069,0,0,0-.379-.474c-1.47-2.465.285-3.6,3.509-3.224.379.1.664-.1.9-.474.1-.379.759-.759,0-1.28-.285-.19-1,.1-1.28,0-.664-.19-1-.759-1.47-.664-1.185.19-2.939,1.754-2.75.9.1-.474-.19-.569-.474-.569-.9-.19-1,.474-1.754.379-.379-.1-1.375.285-1.659-.379C5,30.78,6.567,29.784,7.23,30.069a3.326,3.326,0,0,0,2.133.19c1.28-.285,2.133-.285,2.75-1.185.379-.569-1-1.28-2.323-1-.759.19,0-.569-.759-.569-.285,0-.285.474-.9.285a3.157,3.157,0,0,1-.569-.285c-.664-.379-1.185,0-2.228.19a2.088,2.088,0,0,1-.759-.094c-.474-.285-.759-.664-1.185-.9-.9-.474-1.375.9-1.944.1-.285-.379.759-1.185.379-1.565C1.208,24.189,2.061,23.763,3.152,23.858ZM23.3,27.983c.19.1.285-.285.19-.379C23.3,27.414,23.207,27.888,23.3,27.983Zm4.077,5.974c.1-.1-.1-.19-.19-.19C26.9,33.624,27.094,34.241,27.379,33.956Z" transform="translate(8.084 -8.812)" fill="#9a1e5d" opacity="0.8"/>
                  <path id="Path_135" d="M57.065,43.317c.19-.19.285,0,.379.19.19.285-.664,1.091-.9.664C56.354,43.789,56.733,43.6,57.065,43.317Z" transform="translate(-20.89 -22.581)" fill="#d03c27" opacity="0.8"/>
                  <path id="Path_136" d="M32.356,45.676c.285-.19.285.9-.19.474C31.882,45.96,32.166,45.866,32.356,45.676Z" transform="translate(-8.034 -23.851)" fill="#d03c27" opacity="0.8"/>
                  <path id="Path_137" d="M28.889,47.685c-.1.19-.569.19-.569,0a.288.288,0,0,1,0-.379C28.51,46.927,29.079,47.213,28.889,47.685Z" transform="translate(-6.037 -24.627)" fill="#d03c27" opacity="0.8"/>
                  <path id="Path_138" d="M34.233,52.48c.1-.1.379.19.19.379a.288.288,0,0,1-.379,0C33.711,52.764,34.043,52.669,34.233,52.48Z" transform="translate(-9.01 -27.43)" fill="#d03c27" opacity="0.8"/>
                  <path id="Path_139" d="M36.943,55.218c-.1.1-.1.19-.19.19-.285.19-.569-.379-.474-.569C36.516,54.507,37.228,54.791,36.943,55.218Z" transform="translate(-10.251 -28.605)" fill="#d03c27" opacity="0.8"/>
                  <path id="Path_140" d="M26.947,57.114c.19.19.1.379.285.569s.379-.19.569-.19c.474-.19-.285,1.375-.664,1.47C26.425,59.15,26.33,56.543,26.947,57.114Z" transform="translate(-5.138 -29.834)" fill="#d03c27" opacity="0.8"/>
                  <path id="Path_141" d="M31.422,60.257a.288.288,0,0,1,0,.379c-.19.19-.569,0-.379-.285C31.137,60.257,31.327,60.16,31.422,60.257Z" transform="translate(-7.479 -31.509)" fill="#d03c27" opacity="0.8"/>
                  <path id="Path_142" d="M24.665,61.506c.569.664-.664,1.28-1,.759C23.2,61.6,24.286,61.032,24.665,61.506Z" transform="translate(-3.567 -32.095)" fill="#d03c27" opacity="0.8"/>
                  <path id="Path_143" d="M79.553,63.625c0,.19-.19.285-.285.379C77.609,64.907,80.169,61.966,79.553,63.625Z" transform="translate(-32.569 -33.029)" fill="#d03c27" opacity="0.8"/>
                  <path id="Path_144" d="M28.648,69.917c.285-.19.379,0,.474.19.1.1-.1.285-.19.379C28.555,70.863,28.364,70.1,28.648,69.917Z" transform="translate(-6.175 -36.569)" fill="#d03c27" opacity="0.8"/>
                  <path id="Path_145" d="M27.179,72.277c.19.474-.379.9-.9.759C25.141,72.751,26.895,71.186,27.179,72.277Z" transform="translate(-4.801 -37.65)" fill="#d03c27" opacity="0.8"/>
                  <path id="Path_146" d="M33.3,71.942c.379.664-1.28,1.565-1.659.9S32.917,71.279,33.3,71.942Z" transform="translate(-7.79 -37.553)" fill="#d03c27" opacity="0.8"/>
                  <path id="Path_147" d="M22.474,73.88c.19-.1.379.19.285.379s-.285.19-.474.19h0C22,74.164,22.38,73.975,22.474,73.88Z" transform="translate(-2.846 -38.684)" fill="#d03c27" opacity="0.8"/>
                  <path id="Path_148" d="M64.99,75.38a.633.633,0,0,1,.379.664C64.99,77.371,63.52,74.716,64.99,75.38Z" transform="translate(-25.022 -39.426)" fill="#d03c27" opacity="0.8"/>
                  <path id="Path_149" d="M42.524,78.983a.751.751,0,0,1-.474.9c-.19.1-.379,0-.569,0-.19-.1-.285-.19-.285-.379C40.722,78.84,42.192,78.366,42.524,78.983Z" transform="translate(-12.797 -41.227)" fill="#d03c27" opacity="0.8"/>
                  <path id="Path_150" d="M68.8,78.206c.379.759-.9.9-.9.379C67.848,78.113,68.608,77.827,68.8,78.206Z" transform="translate(-26.887 -40.877)" fill="#d03c27" opacity="0.8"/>
                  <path id="Path_151" d="M23.06,80.648c.285.19.1.759-.285.759S22.587,80.362,23.06,80.648Z" transform="translate(-3.053 -42.227)" fill="#d03c27" opacity="0.8"/>
                  <path id="Path_152" d="M56.441,80.387a.357.357,0,0,1,.569.1c.285.285-.1.9-.569.664C56.25,81.05,56.25,80.482,56.441,80.387Z" transform="translate(-20.788 -42.062)" fill="#d03c27" opacity="0.8"/>
                  <path id="Path_153" d="M57.831,82.436A.671.671,0,0,1,58.922,83C58.874,84.474,56.456,83.1,57.831,82.436Z" transform="translate(-21.372 -43.116)" fill="#d03c27" opacity="0.8"/>
                  <path id="Path_154" d="M54.2,82.743c.285-.285.285.664,0,.379Z" transform="translate(-19.685 -43.327)" fill="#d03c27" opacity="0.8"/>
                  <path id="Path_155" d="M54.916,84.869c.1.19,0,.285-.1.379-.1.19-.379,0-.474-.1C54.11,84.869,54.821,84.585,54.916,84.869Z" transform="translate(-19.736 -44.412)" fill="#d03c27" opacity="0.8"/>
                  <path id="Path_156" d="M55.783,86.681c.379.759-.759.9-.9.379C54.74,86.492,55.594,86.3,55.783,86.681Z" transform="translate(-20.035 -45.323)" fill="#d03c27" opacity="0.8"/>
                  <path id="Path_157" d="M76.263,84.634c-.569.759-1.565-.19-1.47-.759C74.983,83.069,77.021,83.638,76.263,84.634Z" transform="translate(-30.511 -43.75)" fill="#d03c27" opacity="0.8"/>
                  <path id="Path_158" d="M56.134,91.975a.71.71,0,0,1-.759-.474C55.091,90.126,57.7,91.785,56.134,91.975Z" transform="translate(-20.291 -47.677)" fill="#d03c27" opacity="0.8"/>
                  <path id="Path_159" d="M44.22,50.993c-.19.285.285,1.28.379,1.659,0,.474-.474.474-.474,1,.1.569.379.19,1,.379a1.3,1.3,0,0,1,.759.474c.474.664-.474.664-1.091.759-.664.19,0,1-.1,1.659-.19.664-.19,1.28.285,1.28.569,0,1,0,1.28.474a1.083,1.083,0,0,1-.285,1.375.78.78,0,0,1-.664.1c-.379,0-1.185.664-1.849.569-.379,0-.474-.759-1-.9-.711-.142-.237,1.422-1.375,2.181-.19.1-.285.759-.759.569-.664-.285-.569.474-1,.474-.474,0-.19.759-.569.759-1.091,0-1.659-1.185-3.129-1.375-2.228-.19-3.6-2.323-5.073-4.03-.19-.19-.759-.1-.9-.379-.285-.569.1-1,.1-1.565,0-.285-.664-.1-.759-.379-.285-.569.19-.9.379-1.565.1-.285.759-.285.9-.569.285-.569-.379-.9,0-1.28a3.817,3.817,0,0,0,1-1.375c.474-1.091,2.56-.569,2.939-1.849.1-.285-.1-.664,0-1.091.19-.569.9-1.091,1.28-.664a2.881,2.881,0,0,1,.476.661c.474.759,1.091.1,1.091-.474,0-1,.285-1.28,1-1.185.9.1,1.091,1.659.379,1.849a.487.487,0,0,0-.285.664h0c.285.474,1.754.664,2.133-.19.19-.379-.1-.379-.19-.664-.285-.569.664-1.47.9-1,.1.19.664-.19,1.091.285.1.19.19.664.379.759C43.224,49.192,44.6,50.377,44.22,50.993Z" transform="translate(-6.386 -24.379)" fill="#cd2651" opacity="0.8"/>
                  <path id="Path_160" d="M63.367,56.36c.285.1.664-.664.19-.569A.471.471,0,0,0,63.367,56.36Z" transform="translate(-24.489 -29.177)" fill="#d03c27" opacity="0.8"/>
                  <path id="Path_161" d="M16.14,51.381c.19.759-1.849,1-1.944.285C14.1,51,16.045,50.717,16.14,51.381Z" transform="translate(1.355 -26.664)" fill="#d03c27" opacity="0.8"/>
                  <path id="Path_162" d="M72.409,60.938c.9,1.28-1.659,2.323-2.323,1.375C69.185,61.033,71.7,60.085,72.409,60.938Z" transform="translate(-27.938 -31.717)" fill="#d03c27" opacity="0.8"/>
                  <path id="Path_163" d="M38.918,90.779c.664.9-.759,2.039-1.47,1.659C36.643,92.059,38.208,89.925,38.918,90.779Z" transform="translate(-10.757 -47.476)" fill="#d03c27" opacity="0.8"/>
                  <g id="Group_5" transform="translate(19.549 10.692)" opacity="0.8">
                    <path id="Path_164" d="M17.126,71.315l.1.1c-.1.759-1.754,2.56-2.323,1.944-.474-.474,1-2.039,1.565-2.323.19-.1.9-.1.9.1C17.41,71.221,17.221,71.221,17.126,71.315Z" transform="translate(-8.964 -42.679)" fill="#d03731"/>
                    <path id="Path_165" d="M19.287,47.359c-.1-.19.379-.759.664-.759.19,0,.569.285.569.474C20.33,47.453,19.382,47.643,19.287,47.359Z" transform="translate(-11.314 -29.864)" fill="#d03731"/>
                    <path id="Path_166" d="M22.7,27.6c.285,0,.9.664.759,1-.19.379-1.375.379-1.565.1A1.2,1.2,0,0,1,22.7,27.6Z" transform="translate(-12.694 -19.872)" fill="#d03731"/>
                    <path id="Path_167" d="M48.246,68.984a.944.944,0,0,1,1-.1,1.127,1.127,0,0,1-.1,1.091c-.1.1-.285.19-.379.1C48.434,70.075,48.055,69.269,48.246,68.984Z" transform="translate(-26.523 -41.533)" fill="#d03731"/>
                    <path id="Path_168" d="M54.618,39.416c-.285-.1.285-.379.474-.664.569-1.28,2.228-1.659,3.319-2.465C58.79,36,59.5,35.1,59.6,35.623,59.926,37.662,56.465,40.222,54.618,39.416Z" transform="translate(-29.859 -24.008)" fill="#d03731"/>
                    <path id="Path_169" d="M69.289,64.294c.1.1,0,.285-.1.379-.379.664-2.465-.1-2.133-.9,0-.1.1-.1.1-.19C67.535,63.014,68.718,63.82,69.289,64.294Z" transform="translate(-36.425 -38.692)" fill="#d03731"/>
                    <path id="Path_170" d="M57.3,47.513c-.474-.474,1.091-.474,1.754-.9.379-.19,1.47-.474,1.28,0C60.052,47.8,58.2,48.6,57.3,47.513Z" transform="translate(-31.266 -29.734)" fill="#d03731"/>
                    <path id="Path_171" d="M69.573,32.185c-.1-.1.1-.285.19-.285C69.951,31.9,69.667,32.185,69.573,32.185Z" transform="translate(-37.752 -22.133)" fill="#d03731"/>
                    <path id="Path_172" d="M70.162,30.7c-.285-.379,1.185-1.375,1.375-1C71.818,30.417,70.54,31.081,70.162,30.7Z" transform="translate(-38.056 -20.935)" fill="#d03731"/>
                    <path id="Path_173" d="M19.133,19.98a1.035,1.035,0,0,1-.9-.19c-.1-.1-.569-1.47-1.185-1.091a1.416,1.416,0,0,0-.664,1.375c.1.19.569.19.569.379,0,.285-.569.664-.9.664a1.983,1.983,0,0,1-1.185-.285c0-.285.664-.1.664-.379.1-.379-.759-1.091-1.185-1.185a1.254,1.254,0,0,0-.9.569,1.4,1.4,0,0,0,.285,1.47c.285.285,1.185.474,1.28.759s.19,1.091,0,1.185-.474-.379-.569-.379-.1.664-.19.9c-.1.19-1.375.19-1.375.379-.19,1.091,1.47.474,1.565.759a.348.348,0,0,1-.1.285,3.139,3.139,0,0,1-3.034.19c-.1-.1,0-.664-.19-.759-.379-.19-1.185.285-1.47.285-.474,0-1.944-.569-2.039-.1s1.659.1,1.944.379c.1.1,0,.569.1.664.285.19,1.091-.19,1.47-.19.759,0,2.56,0,2.939.664a.348.348,0,0,1-.1.285c-.474.285-1.659-.285-2.133-.285-.285,0-.9.1-1.091.379a1.523,1.523,0,0,0-.1,1.28,1.379,1.379,0,0,0,1.47-.1c.1-.1.1-.474.19-.474.379-.285,1.659-.285,1.849.1.19.285-.474.759-.759.9-.285.1-.664-.474-.9-.285-.285.285.379,1.375.664,1.375.19,0,.379-.285.569-.285s.19,0,.285.1c.19.379-.1.9-.1,1.375s-1.375.759-1.565,1.185c-.094.379.666,2.463.568,2.56-.759.569-1.28-.285-1.944.19a2.706,2.706,0,0,1-1.659.569c-.569,0-1.28.1-1.849.1a3.174,3.174,0,0,1-1.565.379c-1.091-.19-2.039-.379-3.034-.569-.9-.19,0,1.659.474,1.754a18.684,18.684,0,0,0,3.224-.379c.474-.1,1.375.474,1.849.474.569-.1.759-.664,1.28-.664,1.091-.1,2.655-.9,3.413-.285.569.474.285,1.754,0,2.465-.379,1-2.939,2.939-2.133,3.6.9.759,2.133-3.129,3.224-3.413a.71.71,0,0,1,.474.1,2.065,2.065,0,0,1,.474.759,9.389,9.389,0,0,1-.19,2.845,7.67,7.67,0,0,1-.9,2.039c-.19.474-.759,1.565-1,2.039a4.426,4.426,0,0,1-.474,1.185c-.379.379-.474.9-.9,1.28-.1,0-.1.19-.1.285-.1,0-.379-.19-.474-.1-.569.1-2.039,1-2.039,1.659A2.888,2.888,0,0,0,11.4,52.979a3.616,3.616,0,0,0,2.56-1.754c.1-.379-.379-1.091-.379-1.47,0-.474.474-1.47.474-2.039,0-.1-.1-.379-.1-.474a19.527,19.527,0,0,1,1.568-4.127,2.951,2.951,0,0,1,.379-.569c.1-.19,0-.569.1-.759.1-.1.19-.285.285-.379.19-.19.285-.9.569-1a3.358,3.358,0,0,1,1.375,0c.379.1,1.28.19,1.47.569.1.19-.379.569-.285.759.19.285,1.28.1,1.375-.19s-.9-.474-.9-.759c0-.379,1-.664,1.28-.759.19-.1.759-.379,1-.285.285.1.474,1.091.9,1.091a.427.427,0,0,0,.285-.285c0-.285-.664-.664-.664-1.091.1-.379.9-.569,1.091-.9.285-.285.664-1.28,1.185-1.375.19-.1.474,0,.664,0-.285-.1-.379-.285-.474-.569,0-.379.9-.569,1.185-.759a1.848,1.848,0,0,1,.76-.092,8.382,8.382,0,0,1,1.47.379c.759.1,1.565.474,1.849.19,1.47,1,4.789,2.133,4.883.379.19-1.944-3.6-.9-5.547-1.185-1.47-.285-4.125.379-4.409-.759-.285-1,3.034-1.185,2.845-2.56-.1-.759-1.47.664-2.228-.19-.19-.19-.664.19-.759-.19-.1-.759,1.849-1.185,1.47-1.565-.285-.285-1.47,1.185-1.754.474a4.5,4.5,0,0,1-.474-1.28,2.106,2.106,0,0,1,0-1.091c0-.1.1-.1.19-.1.759.1,1.754-.1,1.091-.9-.379-.474-1,.569-1.28-.1-.379-1,1.091-1.849.19-3.129-.285-.379.569-1,0-1.28-.569-.379-.569-.9-.759-1.47-.19-.474-.759-.664-1.28-1.185-.19-.19-.759.285-1,0-.569-.759-.569-.1-1,0-.664.1-.569-3.224-1.185-3.319C19.228,16.85,19.323,19.79,19.133,19.98Z" transform="translate(-2.484 -14.243)" fill="#d03731"/>
                    <path id="Path_174" d="M51.4,59.3a.57.57,0,0,0,.379.1C51.59,59.4,51.5,59.3,51.4,59.3Z" transform="translate(-28.208 -36.543)" fill="#d03731"/>
                    <path id="Path_175" d="M34.486,11.869a9.278,9.278,0,0,0,1,2.465c.285.664.664,2.655,1,2.655.1,0,.1-.1.1-.19.1-1.754-.1-1.375-.664-2.655-.474-1,0-2.75-1.185-2.845C34.389,11.3,34.486,11.679,34.486,11.869Z" transform="translate(-19.307 -11.3)" fill="#d03731"/>
                    <path id="Path_176" d="M57.12,61.159C57.689,59.5,53.9,59.974,52,59.5,53.9,60.306,56.5,62.819,57.12,61.159Z" transform="translate(-28.524 -36.648)" fill="#d03731"/>
                    <path id="Path_177" d="M40.961,70.064a1.754,1.754,0,0,1,1.185-.664,2.813,2.813,0,0,1,1.185,1.375,3.829,3.829,0,0,1-.285,2.039c-1,1.091-2.228-.19-2.323-.379A4.341,4.341,0,0,1,40.961,70.064Z" transform="translate(-22.557 -41.854)" fill="#d03731"/>
                    <path id="Path_178" d="M65.154,34.538c-.285-.285.9-1.375,1.28-1.091C66.811,33.874,65.579,34.917,65.154,34.538Z" transform="translate(-35.419 -22.923)" fill="#d03731"/>
                    <path id="Path_179" d="M52.641,19.291c.759.1,1.091,2.56.569,3.224-.285.474-1.944,1-2.323.474C50.413,22.231,51.693,19.1,52.641,19.291Z" transform="translate(-27.885 -15.498)" fill="#d03731"/>
                  </g>
                  <g id="Group_6" transform="translate(36.368 5.915)" opacity="0.8">
                    <path id="Path_180" d="M34.685,80.5v.19c-.1,0-.1.1-.19.1l-.1-.049c0-.1.19-.1,0-.19a.6.6,0,0,1,.285-.046Z" transform="translate(-27.934 -45.212)" fill="#df7326"/>
                    <path id="Path_181" d="M28.533,15.961a.093.093,0,0,1,.1.1.493.493,0,0,1-.19.379c-.19.1-.285,0-.379-.1v-.1C27.916,15.961,28.2,15.864,28.533,15.961Z" transform="translate(-24.579 -11.255)" fill="#df7326"/>
                    <path id="Path_182" d="M21.3,31.9c.19,0,.379.1.379.285,0,.1-.1-.1,0,.1.285.285-1.091.19-.9-.1A.824.824,0,0,1,21.3,31.9Z" transform="translate(-20.761 -19.656)" fill="#df7326"/>
                    <path id="Path_183" d="M59.09,32.017c.19-.285.569.285.379.379l-.19.19C59,32.679,58.9,32.2,59.09,32.017Z" transform="translate(-40.866 -19.676)" fill="#df7326"/>
                    <path id="Path_184" d="M30.035,46.209c0,.19-.759.1-.569-.19a.423.423,0,0,1,.474,0C30.035,46.115,30.035,46.115,30.035,46.209Z" transform="translate(-25.323 -27.043)" fill="#df7326"/>
                    <path id="Path_185" d="M25.145,48.554c.285-.19.9.285.569.474-.1.1-.285,0-.474,0a.356.356,0,0,1-.1-.474Z" transform="translate(-23.039 -28.391)" fill="#df7326"/>
                    <path id="Path_186" d="M24.584,54.584c.285-.1.664.285.474.474a.288.288,0,0,1-.379,0C24.49,54.963,24.392,54.584,24.584,54.584Z" transform="translate(-22.717 -31.577)" fill="#df7326"/>
                    <path id="Path_187" d="M23.272,54.753c.19-.19.474.285.285.285S23.175,54.942,23.272,54.753ZM23.462,54.942Z" transform="translate(-22.068 -31.65)" fill="#df7326"/>
                    <path id="Path_188" d="M58.4,62.987c.379-.1.285.379.379.759s-.1,1.091-.664.759C57.6,64.267,57.977,63.082,58.4,62.987Zm0,1.185h-.1C58.4,64.172,58.4,64.267,58.4,64.172Z" transform="translate(-40.274 -35.998)" fill="#df7326"/>
                    <path id="Path_189" d="M23.38,26.9c.1,0,0,.285-.1.285a.348.348,0,0,1-.285.1C22.717,27.327,23.191,27.042,23.38,26.9Z" transform="translate(-21.892 -17.026)" fill="#df7326"/>
                    <path id="Path_190" d="M45.159,64.354c-.19.285-.9.19-.9-.1a1.323,1.323,0,0,1,.379-1.279C44.969,62.79,45.443,64.07,45.159,64.354Z" transform="translate(-33.098 -35.99)" fill="#df7326"/>
                    <path id="Path_191" d="M45.769,18.865v.1A8.306,8.306,0,0,0,45.2,16.4,10.39,10.39,0,0,0,45.769,18.865Z" transform="translate(-33.613 -11.505)" fill="#df7326"/>
                    <path id="Path_192" d="M43.916,10.306c0-.1.19-.19.19-.379a4.366,4.366,0,0,0-.285-2.56l-.285-.285c0-.19.379-.664,0-1-.1-.1-.1.379-.19.285-.379-.19-.569.474-.474,1.091a11.683,11.683,0,0,0,1.091,3.509A3.13,3.13,0,0,1,43.916,10.306Z" transform="translate(-32.376 -6.074)" fill="#df7326"/>
                    <path id="Path_193" d="M30.434,49.649a.447.447,0,0,0,.1.569c.19.19.569-.1.9-.19.285-.19.379-.474.569-.664.379-.379.285-.664.664-1.185a.947.947,0,0,1,.474-.379C32.188,48.275,30.906,48.749,30.434,49.649Z" transform="translate(-25.815 -28.018)" fill="#df7326"/>
                    <path id="Path_194" d="M40.4,52.269a2.514,2.514,0,0,0,.474-.569A2.514,2.514,0,0,0,40.4,52.269Z" transform="translate(-31.089 -30.069)" fill="#df7326"/>
                    <path id="Path_195" d="M41.373,31.2c-.1-.285-.379,0-.474-.1-.19-.19.285.1.19-.19v-.19c0-.1-.19.1-.19,0,0-.759-1.375-.759-2.133-1.47-.379-.285.1-.569-.19-.9-.19-.19-.379.379-.474.379h-.19c-.1.1,0,.19-.1.285s-.379.1-.379.1c0,.1.19.1.19.285a1.173,1.173,0,0,1-1,1.184c-.474.1.474-1.565.474-1.565,0-.1.1-.1.1-.19h0c.285-.19.569-.285.474-.474s.285-.285.285-.664v-.379c.1-.1.379.19.379.19.1-.1,0-.19,0-.285,0-.19.285-.379.19-.664-.1-.1-.19,0-.19-.1-.1-.474.474-1,.474-1.565,0-.1-.1-.19-.19-.285-.19-.19-.379.19-.569.1-.569-.379,0-1.185-.285-1.754-.285-.474-1-.474-1.091-.9-.285-1.185,1.565-1.849,1.849-2.75.1-.19.19-.569,0-.569-.664,0-.569,1.47-1.28,1.754-.1,0-.19-.1-.19,0-1.091.9-1.849,1.375-2.039.379a5.369,5.369,0,0,1,.568-3.412.6.6,0,0,0,0-.569c-.19-.285-.379-.285-.664-.285-.379,0-.1.9-.19,1.375-.1.664.19,2.465-.474,2.845-.474.285-.759-.19-.9-.569a4.431,4.431,0,0,0-.1-1.091,6.258,6.258,0,0,1-.285,1.849c-.569,1.28-2.845.569-3.793-1.091-.474-1-1.091-2.655-2.133-2.228h-.188c-1.091.569.569,1.849,1.375,2.465,1,.664,2.465,1.375,2.56,2.56.285,1.944-2.845,0-3.888-.474a5.8,5.8,0,0,1-2.655-2.132c-.285-.379-1-.474-1.091-1,0-.1-.1-.379-.1-.474-.474-.379-2.323.1-1,1.091a.719.719,0,0,1,.379.19A6.633,6.633,0,0,0,24.4,21.294a5.161,5.161,0,0,0,1.185.474A10.286,10.286,0,0,1,29.473,24a1.7,1.7,0,0,1,.474.664c.1.759-.569,1.185-.379,1.944.1.19.379.285.379.664s-.569.19-.569.664c0,.379,1.091.1.9.569-.474,1.185-3.793,1.185-3.224,2.228.474,1,2.75-2.465,3.129-1.28a.8.8,0,0,1,0,.664c.379-.569.9-1.375,1.375-.759.1,0,.1.1.1.19.19,1.565-2.75,2.228-1.849,3.319.379.474,1.47-1.565,1.754-.664a1.5,1.5,0,0,1-.379,1.28h0c.19-.1.19-.19.285-.19s.379-.1.474.1c0,.285-.474,1.185-.1,1,.474-.19.379-1.659.9-1.185.1,0,.1.1.1.19v1.849c0,.474-.569.759-.569,1.28,0,.379.285,1.375.569,1.47,1.28.379.759-2.228,1-3.413.1-.664.569-1.754.19-2.465-.1-.1-.19-.19-.19-.285.1-.19,0-.474.379-.379.664.19.569,1.28.9,1.849a4.71,4.71,0,0,1,.57,1.469,3.379,3.379,0,0,0-.285-1.944c-.1-.19-.379-.569-.285-.9,0-.1.19.1.19,0,0-.379.1-1.659.474-1.28.19.19.379.19.379.379.1,1.47,1,2.655,1.185,4.03a2.667,2.667,0,0,0,.664,1.375c.1.1.1.474.285.379.285-.1-.1-.664.19-.9.19-.1.474-.1.474-.285s-.1-.285-.19-.474c-.19-.285-.379.285-.569.285-.664-.1-1.091-1.565-.664-1.849,1-.664,2.655.759,3.319,0a3.007,3.007,0,0,0,.663-1.282A5.079,5.079,0,0,0,41.373,31.2Z" transform="translate(-21.205 -11.609)" fill="#df7326"/>
                    <path id="Path_196" d="M36.3,46.38c.664-.379,1.375-.759,1.47-1.28l-.285.285C37.153,45.764,36.679,45.953,36.3,46.38Z" transform="translate(-28.933 -26.597)" fill="#df7326"/>
                    <path id="Path_197" d="M51.69,60.359c-.19,1.28-.379,2.845.379,3.793.1.19.285.474.474.379.1-.1,0-.1,0-.19a3.374,3.374,0,0,0,.19-1c-.1-.474-.1-1.091-.379-1.091-.1,0,0,.285-.1.19s.1-.285.1-.379c-.1-.379,0-.379-.19-.664a1.348,1.348,0,0,1-.19-.569h-.1V60.17a4.386,4.386,0,0,0-.19-.9,1.348,1.348,0,0,0-.19-.569c0,.474.1,1,.1,1.47C51.6,60.17,51.69,60.17,51.69,60.359Z" transform="translate(-36.927 -33.75)" fill="#df7326"/>
                    <path id="Path_198" d="M51.1,54.6h0c0,.285.1.569.1.759A2.088,2.088,0,0,0,51.1,54.6Z" transform="translate(-36.716 -31.592)" fill="#df7326"/>
                    <path id="Path_199" d="M35.973,55.934c.664.474,1-1.375,1.47-2.039a2.778,2.778,0,0,0,.474-1C36.732,54.085,34.978,55.081,35.973,55.934Z" transform="translate(-28.607 -30.699)" fill="#df7326"/>
                    <path id="Path_200" d="M51.392,57.491c0-.379-.1-.759-.1-1.091a3.719,3.719,0,0,0,.1,1Z" transform="translate(-36.818 -32.54)" fill="#df7326"/>
                  </g>
                  <path id="Path_201" d="M93.49,47.29c0-.1.1-.1.1-.19-.1.1-.19.1-.285.19C93.4,47.385,93.49,47.385,93.49,47.29Z" transform="translate(-40.247 -24.611)" fill="#abb537" opacity="0.8"/>
                  <path id="Path_202" d="M65.374,62.8c-.19.1-.285.1-.474.19,0,.1.1.19.1.285C65.09,63.085,65.279,62.99,65.374,62.8Z" transform="translate(-25.312 -32.867)" fill="#abb537" opacity="0.8"/>
                  <path id="Path_203" d="M80.47,76.4c-.285.1-.474.19-.474.474-.1,1.375,1.659,3.509,3.034,2.465.19-.19.285-.379.19-.569A3.456,3.456,0,0,1,80.47,76.4Z" transform="translate(-33.249 -40.02)" fill="#abb537" opacity="0.8"/>
                  <path id="Path_204" d="M64.89,65.7c-.1.1-.1.285-.19.379h.379A.493.493,0,0,1,64.89,65.7Z" transform="translate(-25.206 -34.392)" fill="#abb537" opacity="0.8"/>
                  <g id="Group_7" transform="translate(37.325 4.34)" opacity="0.8">
                    <path id="Path_205" d="M40.557,36.173h0c.379.285.474,1.375.19,1.47-.379,0-.569-1-.474-1.28,0-.1.19-.379.285-.285Z" transform="translate(-31.553 -21.049)" fill="#e4ab24"/>
                    <path id="Path_206" d="M31.651,29.769c-.1,0-.19-.379-.1-.474l.285-.1C31.983,29.342,31.793,29.769,31.651,29.769Z" transform="translate(-26.961 -17.442)" fill="#e4ab24"/>
                    <path id="Path_207" d="M24.96,22.951c.1-.1.474-.19.569-.1.1.19-.19.569-.379.569C24.96,23.473,24.862,23.046,24.96,22.951Z" transform="translate(-23.492 -14.085)" fill="#e4ab24"/>
                    <path id="Path_208" d="M48.3,24.179c0-.1.1-.379.285-.379a.423.423,0,0,1,.379.285c0,.1,0,.19-.1.19C48.727,24.369,48.3,24.274,48.3,24.179Z" transform="translate(-35.787 -14.602)" fill="#e4ab24"/>
                    <path id="Path_209" d="M40.054,11.975c-.1.1-.1-.19-.1-.379-.285-.569,0-1.28,0-1.944,0-.19-.1-.759.1-.664C40.955,9.415,40.955,11.406,40.054,11.975Z" transform="translate(-31.334 -6.808)" fill="#e4ab24"/>
                    <path id="Path_210" d="M52.49,14.3c.1,0,.1.1.1.19.19.285-.664.9-1,.569v-.1C51.492,14.585,52.111,14.4,52.49,14.3Z" transform="translate(-37.511 -9.606)" fill="#e4ab24"/>
                    <path id="Path_211" d="M42.885,13.926c-.285,0,.1-.569.19-.9,0-.19.19-.664.379-.474a.938.938,0,0,1-.285,1.28.348.348,0,0,1-.284.1Z" transform="translate(-32.884 -8.663)" fill="#e4ab24"/>
                    <path id="Path_212" d="M40.2,6.19c-.1,0-.1-.1-.1-.19Z" transform="translate(-31.475 -5.241)" fill="#e4ab24"/>
                    <path id="Path_213" d="M39.942,5.159c-.19,0-.19-.759,0-.759C40.322,4.5,40.227,5.159,39.942,5.159Z" transform="translate(-31.317 -4.4)" fill="#e4ab24"/>
                    <path id="Path_214" d="M25.712,14.325a.3.3,0,0,1-.285.285c-.1,0-.759-.19-.759.19a.716.716,0,0,0,.379.664c0-.1.19-.19.285-.19a.6.6,0,0,1,0,.569,1.263,1.263,0,0,1-.474.285c-.1-.1.1-.285,0-.379a1.072,1.072,0,0,0-.758.094v.569a.861.861,0,0,0,.664.285c.19,0,.474-.285.664-.285.1,0,.474.19.474.285s-.285.1-.285.1.19.19.19.285a4.623,4.623,0,0,1-.285.664c.379.379.569-.379.759-.379l.1.1a2.225,2.225,0,0,1-.759,1.28c-.1,0-.285-.19-.285-.1-.285.1-.285.474-.379.569-.1.19-.759.569-.569.759s.475-.569.759-.666c.1,0,.19.19.285.1.19-.1.19-.474.285-.569.19-.285.759-1,1.091-1l.1.1c0,.285-.569.569-.759.759,0,.19-.19.474-.1.569s.285.379.474.379.379-.379.379-.569c0-.1-.19-.19-.19-.19,0-.19.379-.664.569-.664s.19.379.1.569-.379.1-.285.19c0,.19.569.19.759.1.1-.1,0-.285.1-.285s0-.1,0-.1c.19,0,.285.285.474.379s-.1.759,0,.9c.1.19,1.185.379,1.185.379,0,.474-.474.379-.474.759a1.077,1.077,0,0,1-.285.759c-.19.285-.285.474-.474.759-.19.19-.285.474-.474.664L26.8,24.374c-.285.285.664.379.759.285a6.4,6.4,0,0,0,.759-1.375c.1-.19.569-.379.664-.569s0-.474.1-.664c.285-.379.379-1.28.9-1.47.379-.1.759.379,1,.664.285.379.285,1.944.759,1.754.569-.19-.569-1.659-.379-2.133,0-.1.1-.1.19-.19h.474a2.264,2.264,0,0,1,1,.9c.19.285.379.569.569.9a6.589,6.589,0,0,1,.474,1,1.263,1.263,0,0,1,.285.474c0,.285.19.379.19.664l.1.1c0,.1-.19.1-.19.1-.1.285-.19,1.091.1,1.28A1.247,1.247,0,0,0,36.1,25.8a1.981,1.981,0,0,0,.1-1.47c-.1-.19-.569-.1-.664-.19-.19-.1-.379-.569-.569-.759l-.19-.1a6.657,6.657,0,0,1-1.185-1.659c0-.1-.1-.19-.1-.285s-.19-.19-.285-.285c0-.1,0-.1-.1-.19,0-.1-.285-.379-.19-.474,0-.19.285-.379.379-.474s.474-.474.664-.379c.1,0,.1.285.19.285.19,0,.379-.474.285-.569s-.474.19-.569.1,0-.569.1-.664a1,1,0,0,1,.19-.474c.1-.1.569.1.664,0v-.19c-.1-.1-.474.1-.569,0s0-.474,0-.664-.285-.569-.19-.759c0-.1.1-.19.19-.285a1.267,1.267,0,0,1-.474.1c-.19-.1,0-.474.1-.664a.182.182,0,0,1,.1-.285c.19-.19.379-.285.569-.474.19-.285.569-.474.569-.664.759-.285,2.133-1.28,1.565-1.849-.664-.569-1.375,1.185-2.039,1.849-.474.474-1.091,1.659-1.565,1.47-.379-.19.379-1.47-.19-1.754-.285-.19-.1.759-.664.759-.1,0-.19.285-.285.285-.285-.19.1-1.091-.19-1-.19,0,0,.9-.285.759a1.2,1.2,0,0,1-.569-.1,1.309,1.309,0,0,1-.379-.285v-.1c.285-.285.474-.664,0-.664-.285,0,0,.569-.379.474-.474-.1-.379-.9-1.185-.9-.19,0-.19-.474-.474-.379-.285.19-.474,0-.759,0a2.232,2.232,0,0,0-.759.19c-.19,0-.19.379-.285.379-.474,0-.19.19-.285.379-.19.285-1.47-.664-1.659-.474C24.527,13.471,25.712,14.23,25.712,14.325Z" transform="translate(-23.061 -8.588)" fill="#e4ab24"/>
                    <path id="Path_215" d="M45.2,20.6c.1,0,.1-.1.19-.1C45.342,20.5,45.342,20.6,45.2,20.6Z" transform="translate(-34.157 -12.867)" fill="#e4ab24"/>
                    <path id="Path_216" d="M22.141,14.5c.379.1.759.19,1.28.285.379.1,1.185.474,1.28.285a.093.093,0,0,0-.1-.1c-.569-.474-.474-.285-1.185-.379-.474-.1-1.091-.759-1.47-.285C21.809,14.408,22.046,14.408,22.141,14.5Z" transform="translate(-21.907 -9.524)" fill="#e4ab24"/>
                    <path id="Path_217" d="M47.739,17.029c-.474-.664-1.375,1-2.039,1.565C46.459,18.072,48.213,17.692,47.739,17.029Z" transform="translate(-34.42 -10.96)" fill="#e4ab24"/>
                    <path id="Path_218" d="M46.868,26.821a.833.833,0,0,1,.1-.664,1.449,1.449,0,0,1,.9-.1,1.146,1.146,0,0,1,.661.664.7.7,0,0,1-.9.759,1.687,1.687,0,0,1-.756-.664Z" transform="translate(-35.017 -15.775)" fill="#e4ab24"/>
                    <path id="Path_219" d="M40.1,8.249c-.19,0-.285-.664,0-.759C40.291,7.393,40.291,8.154,40.1,8.249Z" transform="translate(-31.381 -6.02)" fill="#e4ab24"/>
                    <path id="Path_220" d="M30.734,8.619c.285-.285,1.28.285,1.47.664.1.285-.19,1-.474,1C31.206,10.276,30.448,9,30.734,8.619Z" transform="translate(-26.517 -6.578)" fill="#e4ab24"/>
                  </g>
                  <path id="Path_221" d="M16.2,39.627c3.509-1.47,4.694,4.125,1,4.219a2.144,2.144,0,0,1-2.322-2.038A1.978,1.978,0,0,1,16.2,39.627ZM17.956,41c-.1.19.1.379.285.379h.474c.285.1.1-.379,0-.569-.1-.332-.474-.1-.759.19Z" transform="translate(1.008 -20.552)" fill="#b41e45" opacity="0.8"/>
                  <g id="Group_8" transform="translate(21.854 22.899)" opacity="0.8">
                    <path id="Path_222" d="M20.7,31.443c.285,0,.285-.569.569-.474.1,0,.19.1.285.1a4.767,4.767,0,0,1,2.323,2.75c.1.474.474.9.379,1.185a.2.2,0,0,1-.19.19c-.664.379-.9-.664-1.375-1.28a7.864,7.864,0,0,0-.9-1.091c-.285-.285-.474-.1-1-.1-.569.1-.664-1-1.185-1.28a10.979,10.979,0,0,1-1.754-1c-.19-.19-.474-.379-.379-.664,0-.1.19-.19.285-.285C19.044,29.595,19.283,31.538,20.7,31.443Z" transform="translate(-11.686 -27.159)" fill="#eb9523"/>
                    <path id="Path_223" d="M80.533,62.662c.19.285-.19,0-.474.285s-.664-.285-1.091-.19c-.1,0,.1.1,0,.19a.819.819,0,0,1-1.091-.285v-.1c-.1-.1.19,0,.285,0C79.063,62.756,80.154,62.14,80.533,62.662Z" transform="translate(-43.449 -44.485)" fill="#eb9523"/>
                    <path id="Path_224" d="M73.485,33.382c.1.569-1,1.659-1.47,1.091-.1-.19-.285-.19-.474-.19-.9.1-1.091,1.28-1.944,1.565-.19.1-.285,0-.664,0-.1,0-.1-.1-.19-.1-.19,0-.474.285-.569,0-.19-.379.664-.379,1.091-.569,1.375-.569,1.944-2.655,3.6-2.323C73.2,32.813,73.387,33.1,73.485,33.382Z" transform="translate(-38.342 -28.908)" fill="#eb9523"/>
                    <path id="Path_225" d="M70.229,68.8c.19.19-.569.1-.9-.1C69,68.371,70.039,68.561,70.229,68.8Z" transform="translate(-38.928 -47.681)" fill="#eb9523"/>
                    <path id="Path_226" d="M64.069,66.779c.19.285-.379.19-.569-.1C63.5,66.492,63.974,66.59,64.069,66.779Z" transform="translate(-35.897 -46.659)" fill="#eb9523"/>
                    <path id="Path_227" d="M63.4,66.4v.1h-.1v-.1Z" transform="translate(-35.792 -46.564)" fill="#eb9523"/>
                    <path id="Path_228" d="M69.149,50.785c.1.1,0,.285-.1.379-.285.285-.569-.474-.285-.664C68.959,50.5,69.054,50.69,69.149,50.785Z" transform="translate(-38.606 -38.203)" fill="#eb9523"/>
                    <path id="Path_229" d="M51.057,60.384c.1-.1.19.285.1.379C51.057,60.763,50.96,60.479,51.057,60.384Z" transform="translate(-29.333 -43.393)" fill="#eb9523"/>
                    <path id="Path_230" d="M33.181,61.679c.1.1-.285.759-.285.759s-1.091,1.375-2.039.9c-.664-.285-1.659-.379-1.565-1.47.1-.9-.285-2.133.759-2.465,1.754-.474,1,1.091,2.323,1.849C32.422,61.3,33.085,61.489,33.181,61.679Z" transform="translate(-17.904 -42.839)" fill="#eb9523"/>
                    <path id="Path_231" d="M38.747,34.5a1.035,1.035,0,0,1-.9-.19c-.664-.664-1.185-2.323-.285-2.655.664-.285,1,1.091,1.28,1.849C38.939,33.838,39.034,34.408,38.747,34.5Z" transform="translate(-22.003 -28.274)" fill="#eb9523"/>
                    <path id="Path_232" d="M46.37,36.641c.1-.285.285-.285.569-.379.379-.1,1,0,1.091.379a.841.841,0,0,1-.569,1h-.379a.788.788,0,0,1-.711-1Z" transform="translate(-26.874 -30.697)" fill="#eb9523"/>
                    <path id="Path_233" d="M35.326,26.808c-.19-.1-.474-.19-.664-.285-.19-.285-.474-.474-.569-.759-.1-.569,1.091-1.659,1.849-1,.474.759-.285,1.185-.474,1.565A2.555,2.555,0,0,0,35.326,26.808Z" transform="translate(-20.43 -24.562)" fill="#eb9523"/>
                    <path id="Path_234" d="M75.522,62.326c.379.19-.285-.1-.759-.1s.569-.379.664-.19C75.617,62.136,75.427,62.231,75.522,62.326Z" transform="translate(-41.756 -44.244)" fill="#eb9523"/>
                    <path id="Path_235" d="M74.308,70.836c.379-.664,2.465.19,2.465,1,0,.664-1.28-.19-1.849-.474C74.495,71.12,74.021,71.31,74.308,70.836Z" transform="translate(-41.535 -48.772)" fill="#eb9523"/>
                    <path id="Path_236" d="M66.875,59.762a1.406,1.406,0,0,1-.664.1c-.285.1-1.091.379-1.375,0-.569-.9.664-.474,1.091-.569a1.406,1.406,0,0,1,.664-.1.521.521,0,0,1,.474.285C67.159,59.572,66.97,59.762,66.875,59.762Z" transform="translate(-36.522 -42.771)" fill="#eb9523"/>
                    <path id="Path_237" d="M64.208,65.718c.379-.285,1.091.285,1.375.474s.9.19.759.569c-.1.285-.664-.285-1-.379s-1-.19-1.185-.474C64.208,65.81,64.016,65.81,64.208,65.718Z" transform="translate(-36.224 -46.164)" fill="#eb9523"/>
                    <path id="Path_238" d="M61.62,64.106c.1.19-.474-.19-.474,0,0,.1.1.1.19.19.1.285-.285,0-.474-.19-.379-.474-1.28-.569-1.091-1C59.961,62.778,61.429,63.537,61.62,64.106Z" transform="translate(-33.922 -44.792)" fill="#eb9523"/>
                    <path id="Path_239" d="M49.566,62.168c.1,0,.1-.1.1-.19,0-.19-.1-.1-.19,0S49.566,62.168,49.566,62.168Z" transform="translate(-28.506 -44.181)" fill="#eb9523"/>
                    <path id="Path_240" d="M49.353,60.943c.1,0,.1-.1,0-.19-.285-.285-.474-.569-.474-.285C48.782,60.659,49.068,61.133,49.353,60.943Z" transform="translate(-28.198 -43.383)" fill="#eb9523"/>
                    <path id="Path_241" d="M18.956,48.872c-.1.1,0,.379,0,.474a1.309,1.309,0,0,0,.379.285c.759.474,2.323-.1,3.224-.1.474,0,1.185.379,1.185,0C23.933,48.777,20.045,47.592,18.956,48.872Z" transform="translate(-12.45 -37.048)" fill="#eb9523"/>
                    <path id="Path_242" d="M7.85,53.7l.19.1c.1.1.19-.19.379-.1l-.1.1c.569.285,2.228.379,2.465,0,0,0-.1-.1,0-.1a.348.348,0,0,1,.285-.1h-.758c-1.659,0-4.03-1.47-4.978-.19-.285.379.569.664,1,.664a8.865,8.865,0,0,0,1.659-.19" transform="translate(-5.28 -39.462)" fill="#eb9523"/>
                    <path id="Path_243" d="M30.507,45.4s-.19-.19-.1-.285c0-.1.285,0,.379,0h.192c0-.1-.1-.285.1-.285.1,0,.1.379.19.19.1-.285.1-.569.379-.474.19.1-.19.474,0,.379.379-.1.569.285.664.19.285-.19,0-.759-.285-.759-.1,0,0-.1,0-.1s-.285-.1-.1-.1h.19l.1.1c.19.19.285.9.474.759.19-.19-.285-.474-.1-.759.1-.19.19-.1.285,0,.9.379.9,1.375,1.659,1.47.285,0,.285.1.474.285.474.285,1.091.9,1.185.474.285-.759-1.754-.759-2.323-1.375a2.57,2.57,0,0,1-.285-1.185c0-.19.474,0,.379-.19-.19-.285-1-.285-.569-.379.19-.1.569,0,.759,0,1.28-.474.19-.9.19-1.565,0-.19-.379-.19-.379-.474h0c.19-.285,1.091,1.185,1.375.759.19-.285-.9-.664-.759-1,0-.19.19.19.474.285a.331.331,0,0,0,.19-.1c.285-.285-.664-.285-.379-.569.285-.19.569.569.759.379.285-.285-.474-.285-.19-.474s1.185.664,1.565.474c1.091-.474,2.75.569,2.655-.19,0-1.185-3.7,0-4.219-1.091a1.083,1.083,0,0,1,.19-1.375c.19-.19.1,0,.285-.19a16.159,16.159,0,0,1,3.6-1.849c.569-.285,1.565-.285,1.28-.664-1.375-1.754-3.888,3.413-5.974,1.849a.96.96,0,0,1-.285-1c0-.1.19,0,.285-.1.19-.474,1.565-.664,1.375-1.185,0-.1-.19-.1-.1-.1.379-.1.569-.664,1-.759,1.091-.285.379-1.849,1.375-2.323.1,0,.285-.285.285-.379,0-.19-.379-.285-.569-.19-.474.19-.569,1-1.185,1.565-.474.474-.379,1.28-1,1.849a7.6,7.6,0,0,1-2.228,1.659c-.285.1-.759.569-1.091.474-.285-.1-.474-1.185-.9-1.091-.379.1-.19,1-.474,1.185a2.024,2.024,0,0,1-1.944-.19c-.569-.379-.285-2.939-1.565-2.133-.759.474,2.228,1.659-.1,3.129-.9.474-.759,1.944-1.754,2.655a1.4,1.4,0,0,1-1.091.1c-.664-.19-1.849-.664-1.944,0-.1.474,1.28.19,1.849.379.19.1.379.1.474.19.1.19.379.285.19.474a1.348,1.348,0,0,1-.57.19c-.759.19-2.039.19-2.845.379-.1,0-.1.1-.19.19a1.632,1.632,0,0,1-.9-.19,6.509,6.509,0,0,0-4.03-.1c2.465.1,5.452.9,7.823.569.379,0,.9-.569,1.375-.379.664.19.19,1.091.569,1.754.474.759,1.565.9,2.039,1.185C29.229,45.686,29.985,46.587,30.507,45.4Zm4.077-4.978c-.1-.1,0-.1.1-.19a.093.093,0,0,1,.1.1c0,.1-.19.19-.19.1ZM33.921,41.8c0-.1,0-.19.1-.19.1-.1.19.1.19.19C34.3,41.894,33.921,41.894,33.921,41.8Zm-.285.664a.331.331,0,0,1,.1-.19c.1-.1.379.1.379.19C34.205,42.747,33.636,42.652,33.636,42.462Zm-.711,1.185c-.1-.1.19-.19.19-.1S33.02,43.742,32.925,43.647Z" transform="translate(-11.391 -28.221)" fill="#eb9523"/>
                    <path id="Path_244" d="M46.2,60.2Z" transform="translate(-26.8 -43.304)" fill="#eb9523"/>
                  </g>
                  <path id="Path_245" d="M100.352,32.9c1.47,0,2.228.664,1.849,1.091C101.4,35.033,97.7,32.9,100.352,32.9Z" transform="translate(-43.459 -17.143)" fill="#e09026" opacity="0.8"/>
                  <path id="Path_246" d="M7.359,41.169c.379-.285,1.47-1.091,1.944-.9.1,0,0,.379.19.379.285.19,1.091-.474,1.47-.379.664.19,1,1.849,1.565,2.133a3.675,3.675,0,0,0,1.754.1c.19,0,.285-.285.474-.379a3.742,3.742,0,0,1,1.47.379,5.033,5.033,0,0,1,1,.759,2.52,2.52,0,0,1,.569,1.185,1.694,1.694,0,0,1,.1,1.185,4.426,4.426,0,0,1-.474,1.185A4.443,4.443,0,0,1,16.226,47.9a2.268,2.268,0,0,1-1,.285,3.01,3.01,0,0,1-1.28.19,2.334,2.334,0,0,1-1.091-.1,10.314,10.314,0,0,1-1.185-.664c-.19-.1.19-.285.1-.474a.521.521,0,0,0-.474-.285c-1,.19-1.659.759-2.323.664-.19,0-.285-.285-.474-.285s-.379.285-.474.19-.1-.285-.19-.379c-.38-.664-2.039-1.565-2.134-2.323,0-.19.474-.474.474-.664S5.8,43.587,5.8,43.4a2.362,2.362,0,0,1,.569-1,4.551,4.551,0,0,1,1-1.233Z" transform="translate(5.821 -21.003)" fill="#b61e51" opacity="0.8"/>
                  <path id="Path_247" d="M82.348,27.065c-.1.1-.379.285-.569.474a2.073,2.073,0,0,1-2.655.285c-.9-.759-1-2.655.1-2.939.379-.1.664-.19,1.091-.285a2.868,2.868,0,0,1,1.754.9C82.253,25.785,82.869,26.591,82.348,27.065Z" transform="translate(-32.424 -12.779)" fill="#ea9323" opacity="0.8"/>
                  <path id="Path_248" d="M87.078,52.226c.1-.1.19.1.285,0s-.19-.19-.285-.379c-.664-1.28.759-1.944,2.133-1.565a1.971,1.971,0,0,1,.759,0,.971.971,0,0,1,.474.569c.1.1.19.285.1.379,0,.1.1,0,.1.1.19.19-.19.19,0,.285.474.285.569.285.379.664-.1.19-.664.1-.569.285,0,.1.1.1.19.19.19.1,0,.19.19.379a2.888,2.888,0,0,1,.664,2.133c-.1.285-.664.759-.664,1-.19.285-.285.285-.664.379-.19.1-.1.19-.19.19a4.434,4.434,0,0,1-1.565.19c-2.133-.19-4.03-3.319-2.039-4.314.285-.19.569-.1.664-.379C87.078,52.416,86.984,52.321,87.078,52.226Z" transform="translate(-36.159 -26.229)" fill="#eb9523" opacity="0.8"/>
                  <path id="Path_249" d="M63.309,26.584c-.474.569-1,.569-1.185,1.47a2.02,2.02,0,0,0-2.655.1c-.1.1-.19.19-.19.285-.19,0-.379.1-.379.285h0c0,.1.19.19.19.19S58.8,30.472,60.844,30.9c.19,0,0,.379.1.379s.285.19.19.285c-.474.19-.664.664,0,.759.285,0,.474-.19.474-.569.1,0,.1.1.19.1a1.823,1.823,0,0,0,2.322-1.186h0c.1-.285-.1-.569.1-.759a.71.71,0,0,1,.474-.1,1.475,1.475,0,0,0,.759-.569c.569-.759.474-2.465-.474-2.75-.379-.1-.285-.1-.759-.19C64.257,26.395,63.5,26.395,63.309,26.584Z" transform="translate(-22.157 -13.672)" fill="#ffcc04" opacity="0.8"/>
                  <g id="Group_9" transform="translate(37.201 17.309)" opacity="0.85">
                    <path id="Path_250" d="M48.651,75.1c0,.1.1.1.1.19-.1,0,0,.1-.1.1h-.094c-.1-.1.1-.1,0-.1C48.46,75.1,48.557,75.1,48.651,75.1Z" transform="translate(-35.919 -48.265)" fill="#f0b91c"/>
                    <path id="Path_251" d="M25.593,29.6a.093.093,0,0,1,.1.1c.1.19,0,.19,0,.285a.288.288,0,0,1-.379,0h0C25.072,29.79,25.4,29.6,25.593,29.6Z" transform="translate(-23.671 -24.337)" fill="#f0b91c"/>
                    <path id="Path_252" d="M24.648,42.959c.1-.1.285,0,.379.1,0,0-.1-.1.1,0,.285.19-.759.474-.664.1C24.362,43.147,24.459,42.959,24.648,42.959Z" transform="translate(-23.247 -31.342)" fill="#f0b91c"/>
                    <path id="Path_253" d="M53.972,33.385c.1-.285.474.1.379.19s-.1.1-.1.19C54.066,33.954,53.875,33.574,53.972,33.385Z" transform="translate(-38.774 -26.273)" fill="#f0b91c"/>
                    <path id="Path_254" d="M35.363,51.279c.1.19-.569.19-.474,0C34.938,51.184,35.126,51.089,35.363,51.279Z" transform="translate(-28.747 -35.68)" fill="#f0b91c"/>
                    <path id="Path_255" d="M32.076,54.217c.1-.19.759,0,.569.19-.1.1-.19.1-.379.1C32.217,54.5,31.978,54.4,32.076,54.217Z" transform="translate(-27.261 -37.242)" fill="#f0b91c"/>
                    <path id="Path_256" d="M33.372,58.82c.19-.19.664,0,.474.285a.348.348,0,0,1-.285.1C33.466,59.1,33.274,58.912,33.372,58.82Z" transform="translate(-27.94 -39.663)" fill="#f0b91c"/>
                    <path id="Path_257" d="M32.4,59.431c.1-.19.379.1.285.1S32.4,59.525,32.4,59.431ZM32.59,59.431Z" transform="translate(-27.443 -39.99)" fill="#f0b91c"/>
                    <path id="Path_258" d="M62.279,56.154c.285-.19.285.285.474.474s.285.759-.285.664C62.04,57.291,61.947,56.342,62.279,56.154Zm.285.853h0c0,.094.095,0,0,0Z" transform="translate(-43.051 -38.278)" fill="#f0b91c"/>
                    <path id="Path_259" d="M24.756,39.1c.1,0,0,.19,0,.285l-.19.19C24.282,39.479,24.566,39.1,24.756,39.1Z" transform="translate(-23.26 -29.333)" fill="#f0b91c"/>
                    <path id="Path_260" d="M52.487,60.482c-.1.19-.569.379-.664.1a1.213,1.213,0,0,1-.093-1C51.871,59.439,52.582,60.2,52.487,60.482Z" transform="translate(-37.574 -40.095)" fill="#f0b91c"/>
                    <path id="Path_261" d="M39.78,27.465h0A4.347,4.347,0,0,0,38.5,25.9C38.927,26.469,39.306,26.943,39.78,27.465Z" transform="translate(-30.651 -22.391)" fill="#f0b91c"/>
                    <path id="Path_262" d="M36.279,21.392c0-.1.1-.19,0-.285-.19-.664-.474-1.565-1-1.754-.1,0-.19-.1-.285-.1,0-.19.19-.664-.19-.759-.1,0,0,.285-.1.285-.379-.1-.285.474-.1.9a6.565,6.565,0,0,0,1.849,2.228.863.863,0,0,1-.189-.521Z" transform="translate(-28.523 -18.499)" fill="#f0b91c"/>
                    <path id="Path_263" d="M37.1,52.839c0,.19,0,.285.285.379.19.1.474-.19.664-.379a.7.7,0,0,0,.19-.569c.19-.379.1-.569.19-1,.1-.19.19-.285.285-.474C38.1,51.511,37.2,52.175,37.1,52.839Z" transform="translate(-29.915 -35.486)" fill="#f0b91c"/>
                    <path id="Path_264" d="M45.1,52.869l.285-.569Z" transform="translate(-34.122 -36.274)" fill="#f0b91c"/>
                    <path id="Path_265" d="M40.651,33.5c-.19-.19-.285.1-.379,0-.19-.1.285,0,.1-.19-.1,0,0,0,0-.1s-.1.1-.1,0c-.19-.569-1.28-.19-2.133-.474-.379-.1-.1-.474-.379-.569-.19-.1-.19.379-.285.379s-.1,0-.19.1,0,.1,0,.19-.19.1-.19.19.19.1.19.1a.966.966,0,0,1-.379,1.091c-.379.19-.1-1.28-.1-1.28,0-.1,0-.1.1-.19h0c.19-.19.379-.379.19-.474s.19-.285,0-.569a.955.955,0,0,1-.1-.285c0-.1.379.1.379,0a.132.132,0,0,0,0-.19c-.1-.1.1-.379-.1-.569-.1-.1-.1.1-.19,0-.19-.379.1-.759,0-1.28,0-.1-.1-.1-.19-.19-.19-.1-.19.285-.474.19-.474-.1-.379-.9-.759-1.185-.285-.285-.9-.1-1.091-.379-.474-.759.664-1.754.664-2.465,0-.19,0-.474-.1-.379-.569.474-.1,1.565-.474,1.849h-.19c-.569.9-1,1.47-1.47.9a3.7,3.7,0,0,1-.474-2.655c0-.19-.1-.285-.19-.474s-.379-.19-.569-.19c-.379.19.1.759.19,1.185.1.569.9,1.754.379,2.133a.459.459,0,0,1-.664,0,.331.331,0,0,1-.1-.19c-.19-.285-.19-.474-.379-.664A3.242,3.242,0,0,1,31.5,28.24c-.1,1.091-2.039,1.185-3.224.19-.759-.474-1.659-1.565-2.323-1.091a.093.093,0,0,0-.1.1c-.759.664.759,1.185,1.659,1.375,1,.19,2.228.379,2.75,1.185.664,1.47-2.228.759-3.224.664a4.449,4.449,0,0,1-2.75-.9c-.285-.19-.9-.1-1.091-.379,0-.1-.19-.285-.19-.285-.474-.1-1.849.664-.474,1.091h.379a4.521,4.521,0,0,0,1.944.474,3.081,3.081,0,0,0,1,.1,11.249,11.249,0,0,1,3.6.569,1.984,1.984,0,0,1,.569.379c.285.474-.1,1,.285,1.565.1.19.379.19.474.379.1.285-.379.285-.19.664.1.285.9-.19.759.19-.1,1-2.655,1.849-1.944,2.465.664.569,1.47-2.465,2.039-1.754a.724.724,0,0,1,.19.474c.19-.474.285-1.28.9-1a.093.093,0,0,1,.1.1c.569,1.091-1.47,2.323-.474,2.845.379.19.664-1.565,1.185-1a1.213,1.213,0,0,1,.1,1h0c.1-.1.1-.19.19-.19s.285-.19.379-.1c.1.19,0,1,.19.759.285-.285-.1-1.28.379-1.091.1,0,.1,0,.1.1a7.881,7.881,0,0,1,.474,1.375c.1.379-.19.759-.1,1.091.1.285.569.9.9.9,1.091,0,0-1.849-.19-2.75-.1-.474,0-1.47-.569-1.849-.1-.1-.19-.1-.19-.19,0-.19-.1-.379.19-.379.569-.1.759.759,1.28,1.185l.9.9a2.841,2.841,0,0,0-.759-1.375c-.1-.1-.474-.379-.474-.569h.1c-.1-.285-.379-1.185.1-1.091.19.1.285,0,.379.19.474,1.091,1.47,1.659,2.039,2.655a1.316,1.316,0,0,0,.9.759c.1.1.19.285.379.19s-.285-.379-.1-.664c.1-.19.379-.19.285-.285l-.285-.285c-.19-.1-.19.285-.379.379-.569.1-1.28-.9-1.091-1.185.569-.664,2.228-.1,2.56-.9a2.312,2.312,0,0,0,.19-1.091,6.208,6.208,0,0,1-.569-.617Z" transform="translate(-21.945 -21.602)" fill="#f0b91c"/>
                    <path id="Path_266" d="M40.6,49.38c.474-.474.9-.9.759-1.28,0,.1-.1.19-.1.285C41.074,48.716,40.79,49,40.6,49.38Z" transform="translate(-31.755 -34.066)" fill="#f0b91c"/>
                    <path id="Path_267" d="M56.321,56.042A3.85,3.85,0,0,0,57.7,58.7c.1.1.379.285.474.19s0-.1,0-.1a2.088,2.088,0,0,0-.1-.759c-.19-.285-.379-.759-.569-.664-.1,0,.1.19,0,.19s0-.19,0-.285c-.19-.19-.1-.285-.285-.474-.19-.1-.379-.285-.379-.379h-.1c-.1-.19-.1-.379-.19-.474-.1-.19-.285-.379-.379-.569-.1-.285-.19-.19-.379-.379.19.379.285.664.474,1C56.132,56.042,56.227,55.948,56.321,56.042Z" transform="translate(-39.749 -37.694)" fill="#f0b91c"/>
                    <path id="Path_268" d="M54,52h0l.285.569A.676.676,0,0,0,54,52Z" transform="translate(-38.802 -36.117)" fill="#f0b91c"/>
                    <path id="Path_269" d="M43.253,56.25c.664.19.379-1.185.569-1.849a2.771,2.771,0,0,0,.1-.9C43.348,54.685,42.257,55.918,43.253,56.25Z" transform="translate(-32.938 -36.906)" fill="#f0b91c"/>
                    <path id="Path_270" d="M54.979,54.059c-.1-.285-.285-.474-.379-.759Z" transform="translate(-39.118 -36.8)" fill="#f0b91c"/>
                  </g>
                  <path id="Path_271" d="M63.033,87.5c1.47-.1,1.754,2.845.379,3.319C61.848,91.385,61.563,87.592,63.033,87.5Z" transform="translate(-23.824 -45.854)" fill="#227d71" opacity="0.8"/>
                  <path id="Path_272" d="M41.543,24.8c-.1.19.19.664.19.9,0,.285-.285.285-.285.474,0,.285.19.1.569.19.19,0,.285.1.379.285.19.379-.285.379-.569.379-.379.1,0,.474-.1.9-.1.379-.1.664.19.664s.569,0,.664.285c.285.474-.19.759-.569.759-.19,0-.664.379-1.091.285-.19,0-.285-.379-.474-.474-.379-.1-.19.759-.9,1.185-.1.1-.19.379-.474.285-.379-.19-.379.285-.569.19-.285,0-.1.379-.379.379-.569,0-.9-.664-1.754-.759-1.28-.19-1.944-1.28-2.845-2.228-.1-.1-.379-.1-.474-.19-.19-.285.1-.474.1-.759,0-.19-.379-.1-.379-.19-.1-.285.1-.474.19-.759.1-.19.474-.1.474-.285.19-.285-.19-.474.1-.664a1.275,1.275,0,0,0,.569-.664c.285-.569,1.47-.285,1.754-.9.1-.19-.1-.379,0-.569.1-.285.569-.569.759-.285.1.1.19.285.285.379.19.379.664.1.664-.285,0-.569.19-.664.569-.569.474.1.569.9.19,1-.1,0-.19.19-.19.285h0c.19.285,1,.379,1.185-.1.1-.19-.1-.19-.1-.379-.1-.285.379-.759.569-.474.1.1.379-.1.569.19.1.1.1.379.19.379C41.021,23.807,41.732,24.519,41.543,24.8Z" transform="translate(-8.402 -11.795)" fill="#c42126" opacity="0.8"/>
                </g>
              </g>
            </g>
          </g>
        </g>
        <g id="Group_19" transform="translate(18.766 17.937)">
          <g id="Group_18" transform="translate(0 0)">
            <g id="Group_13" transform="translate(4.633 9.418)">
              <path id="Path_274" d="M25.4,32" transform="translate(-25.4 -32)" fill="none" stroke="#181816" stroke-linecap="round" stroke-linejoin="round" stroke-width="17.316"/>
            </g>
            <g id="Group_17">
              <g id="Group_16">
                <g id="Group_15">
                  <g id="Group_14">
                    <path id="Path_275" d="M24.369,21.8a4.881,4.881,0,0,1,2.039.379l-.474,1.28a3.063,3.063,0,0,0-1.565-.285A2.449,2.449,0,0,0,21.9,25.638v.049a2.441,2.441,0,0,0,2.323,2.56h.19a4.551,4.551,0,0,0,1.565-.285l.474,1.28a5.33,5.33,0,0,1-2.133.379,3.914,3.914,0,0,1-.237-7.823Z" transform="translate(-20.284 -21.795)" fill="#1a1818"/>
                    <path id="Path_276" d="M49.063,28.448H45.839l-.379,1.091H43.8L46.834,22h1.28l3.034,7.538h-1.66Zm-2.845-1.28h2.228L47.26,24.228Z" transform="translate(-32.651 -21.903)" fill="#1a1818"/>
                    <path id="Path_277" d="M73.613,27.141l2.323,2.323H73.993l-2.228-2.225v2.228H70.2V21.976h2.655A2.607,2.607,0,0,1,75.795,24.3v.285a2.453,2.453,0,0,1-2.181,2.558ZM71.765,26.1h.759c1.091,0,1.659-.474,1.659-1.375A1.248,1.248,0,0,0,73,23.35H71.812Z" transform="translate(-46.535 -21.878)" fill="#1a1818"/>
                    <path id="Path_278" d="M94.1,22h1.185l3.6,4.789V22h1.565v7.538H99.268l-3.6-4.694v4.789H94.1Z" transform="translate(-59.103 -21.903)" fill="#1a1818"/>
                    <path id="Path_279" d="M122.065,22v7.538H120.5V22Z" transform="translate(-72.986 -21.903)" fill="#1a1818"/>
                    <path id="Path_280" d="M139.1,27.357,141.142,22H142.8l-3.034,7.538h-1.28L135.5,22h1.659Z" transform="translate(-80.875 -21.903)" fill="#1a1818"/>
                    <path id="Path_281" d="M164.263,28.448h-3.224l-.379,1.091H159L162.034,22h1.28l3.034,7.538H164.69Zm-2.7-1.28h2.228L162.6,24.228Z" transform="translate(-93.233 -21.903)" fill="#1a1818"/>
                    <path id="Path_282" d="M185.6,22h1.565v6.258H190.2v1.28h-4.6Z" transform="translate(-107.222 -21.903)" fill="#1a1818"/>
                  </g>
                </g>
              </g>
            </g>
          </g>
        </g>
      </g>
      <g id="Group_22" transform="translate(42.46 29.705)" opacity="0.8">
        <g id="Group_21" transform="translate(0 0)">
          <path id="Path_283" d="M47.1,34.6v4.694h-1V34.6Z" transform="translate(-46.1 -34.591)" fill="#cd1f3c"/>
          <path id="Path_284" d="M56.1,34.6h.664l2.228,2.939V34.6h1v4.694h-.759L57,36.354v2.939H56Z" transform="translate(-51.306 -34.591)" fill="#cd1f3c"/>
          <path id="Path_285" d="M72.98,35.359H71.7V34.6h3.413v.759h-1.28v3.793h-1Z" transform="translate(-59.563 -34.591)" fill="#cd1f3c"/>
          <path id="Path_286" d="M86.2,34.6H89.04v.759H87.1v1.28H88.66V37.4H87.1v1h1.944v.759H86.1Z" transform="translate(-67.136 -34.591)" fill="#cd1f3c"/>
          <path id="Path_287" d="M100.9,39.284h-1V34.591h1.565a1.692,1.692,0,0,1,1.849,1.47v.187a1.381,1.381,0,0,1-.9,1.375,1.888,1.888,0,0,1,.759,1.47v.1h-1v-.1c-.1-.759-.474-1.28-1.185-1.28h-.285Zm0-2.181h.569a.9.9,0,0,0,.9-.9.872.872,0,0,0-.9-.9H100.9Z" transform="translate(-74.393 -34.582)" fill="#cd1f3c"/>
          <path id="Path_288" d="M114.8,34.6h.664l2.228,2.939V34.6h1v4.694h-.664L115.8,36.354v2.939h-1Z" transform="translate(-82.229 -34.591)" fill="#cd1f3c"/>
          <path id="Path_289" d="M130.9,34.6h2.845v.759H131.9v1.28h1.565V37.4H131.9v1h1.944v.759H130.9Z" transform="translate(-90.695 -34.591)" fill="#cd1f3c"/>
          <path id="Path_290" d="M145.08,35.359H143.8V34.6h3.508v.759h-1.28v3.793h-1V35.359Z" transform="translate(-97.479 -34.591)" fill="#cd1f3c"/>
        </g>
      </g>
    </g>
  </g>
</svg>
