<svg width="85" height="85" viewBox="0 0 85 85" fill="none" xmlns="http://www.w3.org/2000/svg">
	<g clip-path="url(#clip0_23_374)">
		<path d="M57.6786 3.03571V85H3.03571C2.23059 85 1.45845 84.6802 0.88914 84.1109C0.319833 83.5415 0 82.7694 0 81.9643V3.03571C0 2.23059 0.319833 1.45845 0.88914 0.88914C1.45845 0.319833 2.23059 0 3.03571 0H54.6429C55.448 0 56.2201 0.319833 56.7894 0.88914C57.3587 1.45845 57.6786 2.23059 57.6786 3.03571Z" fill="url(#paint0_linear_23_374)" />
		<path d="M85 30.3571V81.9643C85 82.7694 84.6802 83.5415 84.1109 84.1108C83.5416 84.6802 82.7694 85 81.9643 85H57.6786V27.3214H81.9643C82.7694 27.3214 83.5416 27.6412 84.1109 28.2106C84.6802 28.7799 85 29.552 85 30.3571Z" fill="url(#paint1_linear_23_374)" />
		<path d="M48.5715 10.625H42.5C41.6617 10.625 40.9822 11.3046 40.9822 12.1429V18.2143C40.9822 19.0526 41.6617 19.7321 42.5 19.7321H48.5715C49.4098 19.7321 50.0893 19.0526 50.0893 18.2143V12.1429C50.0893 11.3046 49.4098 10.625 48.5715 10.625Z" fill="url(#paint2_linear_23_374)" />
		<path d="M75.8928 34.9108H66.7857C65.9474 34.9108 65.2678 35.5903 65.2678 36.4286V42.5001C65.2678 43.3383 65.9474 44.0179 66.7857 44.0179H75.8928C76.7311 44.0179 77.4107 43.3383 77.4107 42.5001V36.4286C77.4107 35.5903 76.7311 34.9108 75.8928 34.9108Z" fill="url(#paint3_linear_23_374)" />
		<path d="M75.8928 51.6072H66.7857C65.9474 51.6072 65.2678 52.2867 65.2678 53.125V59.1965C65.2678 60.0348 65.9474 60.7143 66.7857 60.7143H75.8928C76.7311 60.7143 77.4107 60.0348 77.4107 59.1965V53.125C77.4107 52.2867 76.7311 51.6072 75.8928 51.6072Z" fill="url(#paint4_linear_23_374)" />
		<path d="M75.8928 68.3036H66.7857C65.9474 68.3036 65.2678 68.9832 65.2678 69.8214V75.8929C65.2678 76.7312 65.9474 77.4107 66.7857 77.4107H75.8928C76.7311 77.4107 77.4107 76.7312 77.4107 75.8929V69.8214C77.4107 68.9832 76.7311 68.3036 75.8928 68.3036Z" fill="url(#paint5_linear_23_374)" />
		<path d="M15.1785 10.625H9.10709C8.2688 10.625 7.58923 11.3046 7.58923 12.1429V18.2143C7.58923 19.0526 8.2688 19.7321 9.10709 19.7321H15.1785C16.0168 19.7321 16.6964 19.0526 16.6964 18.2143V12.1429C16.6964 11.3046 16.0168 10.625 15.1785 10.625Z" fill="url(#paint6_linear_23_374)" />
		<path d="M31.8751 10.625H25.8036C24.9653 10.625 24.2858 11.3046 24.2858 12.1429V18.2143C24.2858 19.0526 24.9653 19.7321 25.8036 19.7321H31.8751C32.7133 19.7321 33.3929 19.0526 33.3929 18.2143V12.1429C33.3929 11.3046 32.7133 10.625 31.8751 10.625Z" fill="url(#paint7_linear_23_374)" />
		<path d="M48.5715 28.8392H42.5C41.6617 28.8392 40.9822 29.5188 40.9822 30.3571V36.4285C40.9822 37.2668 41.6617 37.9464 42.5 37.9464H48.5715C49.4098 37.9464 50.0893 37.2668 50.0893 36.4285V30.3571C50.0893 29.5188 49.4098 28.8392 48.5715 28.8392Z" fill="url(#paint8_linear_23_374)" />
		<path d="M15.1785 28.8392H9.10709C8.2688 28.8392 7.58923 29.5188 7.58923 30.3571V36.4285C7.58923 37.2668 8.2688 37.9464 9.10709 37.9464H15.1785C16.0168 37.9464 16.6964 37.2668 16.6964 36.4285V30.3571C16.6964 29.5188 16.0168 28.8392 15.1785 28.8392Z" fill="url(#paint9_linear_23_374)" />
		<path d="M31.8751 28.8392H25.8036C24.9653 28.8392 24.2858 29.5188 24.2858 30.3571V36.4285C24.2858 37.2668 24.9653 37.9464 25.8036 37.9464H31.8751C32.7133 37.9464 33.3929 37.2668 33.3929 36.4285V30.3571C33.3929 29.5188 32.7133 28.8392 31.8751 28.8392Z" fill="url(#paint10_linear_23_374)" />
		<path d="M48.5715 47.0536H42.5C41.6617 47.0536 40.9822 47.7332 40.9822 48.5714V54.6429C40.9822 55.4812 41.6617 56.1607 42.5 56.1607H48.5715C49.4098 56.1607 50.0893 55.4812 50.0893 54.6429V48.5714C50.0893 47.7332 49.4098 47.0536 48.5715 47.0536Z" fill="url(#paint11_linear_23_374)" />
		<path d="M15.1785 47.0536H9.10709C8.2688 47.0536 7.58923 47.7332 7.58923 48.5714V54.6429C7.58923 55.4812 8.2688 56.1607 9.10709 56.1607H15.1785C16.0168 56.1607 16.6964 55.4812 16.6964 54.6429V48.5714C16.6964 47.7332 16.0168 47.0536 15.1785 47.0536Z" fill="url(#paint12_linear_23_374)" />
		<path d="M31.8751 47.0536H25.8036C24.9653 47.0536 24.2858 47.7332 24.2858 48.5714V54.6429C24.2858 55.4812 24.9653 56.1607 25.8036 56.1607H31.8751C32.7133 56.1607 33.3929 55.4812 33.3929 54.6429V48.5714C33.3929 47.7332 32.7133 47.0536 31.8751 47.0536Z" fill="url(#paint13_linear_23_374)" />
		<path d="M40.9821 68.3036V85.0001H16.6964V68.3036C16.6964 67.9011 16.8563 67.515 17.141 67.2303C17.4256 66.9457 17.8117 66.7858 18.2143 66.7858H39.4643C39.8668 66.7858 40.2529 66.9457 40.5376 67.2303C40.8222 67.515 40.9821 67.9011 40.9821 68.3036Z" fill="url(#paint14_linear_23_374)" />
	</g>
	<defs>
		<linearGradient id="paint0_linear_23_374" x1="-5.47946" y1="77.69" x2="78.3289" y2="39.1165" gradientUnits="userSpaceOnUse">
			<stop stop-color="#EF5147" />
			<stop offset="1" stop-color="#FEBF28" />
		</linearGradient>
		<linearGradient id="paint1_linear_23_374" x1="49.2104" y1="92.8289" x2="87.796" y2="26.8421" gradientUnits="userSpaceOnUse">
			<stop stop-color="#EB4F45" />
			<stop offset="1" stop-color="#FFC725" />
		</linearGradient>
		<linearGradient id="paint2_linear_23_374" x1="40.9822" y1="15.1786" x2="50.0893" y2="15.1786" gradientUnits="userSpaceOnUse">
			<stop stop-color="#F5E7D3" />
			<stop offset="1" stop-color="#FCF8F0" />
		</linearGradient>
		<linearGradient id="paint3_linear_23_374" x1="65.2678" y1="39.4643" x2="77.4107" y2="39.4643" gradientUnits="userSpaceOnUse">
			<stop stop-color="#F5E7D3" />
			<stop offset="1" stop-color="#FCF8F0" />
		</linearGradient>
		<linearGradient id="paint4_linear_23_374" x1="65.2678" y1="56.1607" x2="77.4107" y2="56.1607" gradientUnits="userSpaceOnUse">
			<stop stop-color="#F5E7D3" />
			<stop offset="1" stop-color="#FCF8F0" />
		</linearGradient>
		<linearGradient id="paint5_linear_23_374" x1="65.2678" y1="72.8572" x2="77.4107" y2="72.8572" gradientUnits="userSpaceOnUse">
			<stop stop-color="#F5E7D3" />
			<stop offset="1" stop-color="#FCF8F0" />
		</linearGradient>
		<linearGradient id="paint6_linear_23_374" x1="7.58923" y1="15.1786" x2="16.6964" y2="15.1786" gradientUnits="userSpaceOnUse">
			<stop stop-color="#F5E7D3" />
			<stop offset="1" stop-color="#FCF8F0" />
		</linearGradient>
		<linearGradient id="paint7_linear_23_374" x1="24.2858" y1="15.1786" x2="33.3929" y2="15.1786" gradientUnits="userSpaceOnUse">
			<stop stop-color="#F5E7D3" />
			<stop offset="1" stop-color="#FCF8F0" />
		</linearGradient>
		<linearGradient id="paint8_linear_23_374" x1="40.9822" y1="33.3928" x2="50.0893" y2="33.3928" gradientUnits="userSpaceOnUse">
			<stop stop-color="#F5E7D3" />
			<stop offset="1" stop-color="#FCF8F0" />
		</linearGradient>
		<linearGradient id="paint9_linear_23_374" x1="7.58923" y1="33.3928" x2="16.6964" y2="33.3928" gradientUnits="userSpaceOnUse">
			<stop stop-color="#F5E7D3" />
			<stop offset="1" stop-color="#FCF8F0" />
		</linearGradient>
		<linearGradient id="paint10_linear_23_374" x1="24.2858" y1="33.3928" x2="33.3929" y2="33.3928" gradientUnits="userSpaceOnUse">
			<stop stop-color="#F5E7D3" />
			<stop offset="1" stop-color="#FCF8F0" />
		</linearGradient>
		<linearGradient id="paint11_linear_23_374" x1="40.9822" y1="51.6072" x2="50.0893" y2="51.6072" gradientUnits="userSpaceOnUse">
			<stop stop-color="#F5E7D3" />
			<stop offset="1" stop-color="#FCF8F0" />
		</linearGradient>
		<linearGradient id="paint12_linear_23_374" x1="7.58923" y1="51.6072" x2="16.6964" y2="51.6072" gradientUnits="userSpaceOnUse">
			<stop stop-color="#F5E7D3" />
			<stop offset="1" stop-color="#FCF8F0" />
		</linearGradient>
		<linearGradient id="paint13_linear_23_374" x1="24.2858" y1="51.6072" x2="33.3929" y2="51.6072" gradientUnits="userSpaceOnUse">
			<stop stop-color="#F5E7D3" />
			<stop offset="1" stop-color="#FCF8F0" />
		</linearGradient>
		<linearGradient id="paint14_linear_23_374" x1="16.6964" y1="75.8929" x2="40.9821" y2="75.8929" gradientUnits="userSpaceOnUse">
			<stop stop-color="#F5E7D3" />
			<stop offset="1" stop-color="#FCF8F0" />
		</linearGradient>
		<clipPath id="clip0_23_374">
			<rect width="85" height="85" fill="white" />
		</clipPath>
	</defs>
</svg>
