<svg width="96" height="85" viewBox="0 0 96 85" fill="none" xmlns="http://www.w3.org/2000/svg">
	<g clip-path="url(#clip0_23_412)">
		<path d="M49.6568 56.4857C65.1975 56.4857 77.7957 43.8409 77.7957 28.2428C77.7957 12.6448 65.1975 0 49.6568 0C34.1162 0 21.5179 12.6448 21.5179 28.2428C21.5179 43.8409 34.1162 56.4857 49.6568 56.4857Z" fill="url(#paint0_linear_23_412)" />
		<path d="M56.5062 15.4971V46.5177H35.9019C35.5981 46.5177 35.3068 46.3966 35.092 46.181C34.8771 45.9653 34.7565 45.6729 34.7565 45.368V15.4971C34.7565 15.1922 34.8771 14.8997 35.092 14.6841C35.3068 14.4685 35.5981 14.3474 35.9019 14.3474H55.3608C55.6645 14.3474 55.9559 14.4685 56.1707 14.6841C56.3855 14.8997 56.5062 15.1922 56.5062 15.4971Z" fill="url(#paint1_linear_23_412)" />
		<path d="M66.8084 25.8373V45.368C66.8084 45.6729 66.6877 45.9654 66.4729 46.181C66.2581 46.3966 65.9667 46.5177 65.663 46.5177H56.5062V24.6876H65.6646C65.9681 24.6881 66.259 24.8094 66.4735 25.0249C66.6879 25.2405 66.8084 25.5327 66.8084 25.8373Z" fill="url(#paint2_linear_23_412)" />
		<path d="M51.9344 17.8147H50.0144C49.5573 17.8147 49.1868 18.1866 49.1868 18.6454V20.5725C49.1868 21.0313 49.5573 21.4032 50.0144 21.4032H51.9344C52.3915 21.4032 52.7621 21.0313 52.7621 20.5725V18.6454C52.7621 18.1866 52.3915 17.8147 51.9344 17.8147Z" fill="url(#paint3_linear_23_412)" />
		<path d="M62.5262 26.5815H60.6062C60.1491 26.5815 59.7786 26.9534 59.7786 27.4122V29.3394C59.7786 29.7981 60.1491 30.17 60.6062 30.17H62.5262C62.9833 30.17 63.3539 29.7981 63.3539 29.3394V27.4122C63.3539 26.9534 62.9833 26.5815 62.5262 26.5815Z" fill="url(#paint4_linear_23_412)" />
		<path d="M62.5262 33.2269H60.6062C60.1491 33.2269 59.7786 33.5988 59.7786 34.0576V35.9848C59.7786 36.4435 60.1491 36.8154 60.6062 36.8154H62.5262C62.9833 36.8154 63.3539 36.4435 63.3539 35.9848V34.0576C63.3539 33.5988 62.9833 33.2269 62.5262 33.2269Z" fill="url(#paint5_linear_23_412)" />
		<path d="M62.5262 39.8723H60.6062C60.1491 39.8723 59.7786 40.2442 59.7786 40.703V42.6301C59.7786 43.0889 60.1491 43.4608 60.6062 43.4608H62.5262C62.9833 43.4608 63.3539 43.0889 63.3539 42.6301V40.703C63.3539 40.2442 62.9833 39.8723 62.5262 39.8723Z" fill="url(#paint6_linear_23_412)" />
		<path d="M41.0795 17.8147H39.1594C38.7023 17.8147 38.3318 18.1866 38.3318 18.6454V20.5725C38.3318 21.0313 38.7023 21.4032 39.1594 21.4032H41.0795C41.5365 21.4032 41.9071 21.0313 41.9071 20.5725V18.6454C41.9071 18.1866 41.5365 17.8147 41.0795 17.8147Z" fill="url(#paint7_linear_23_412)" />
		<path d="M46.4407 17.8147H44.5206C44.0635 17.8147 43.693 18.1866 43.693 18.6454V20.5725C43.693 21.0313 44.0635 21.4032 44.5206 21.4032H46.4407C46.8978 21.4032 47.2683 21.0313 47.2683 20.5725V18.6454C47.2683 18.1866 46.8978 17.8147 46.4407 17.8147Z" fill="url(#paint8_linear_23_412)" />
		<path d="M51.9344 24.99H50.0144C49.5573 24.99 49.1868 25.3619 49.1868 25.8207V27.7478C49.1868 28.2066 49.5573 28.5785 50.0144 28.5785H51.9344C52.3915 28.5785 52.7621 28.2066 52.7621 27.7478V25.8207C52.7621 25.3619 52.3915 24.99 51.9344 24.99Z" fill="url(#paint9_linear_23_412)" />
		<path d="M41.0795 24.99H39.1594C38.7023 24.99 38.3318 25.3619 38.3318 25.8207V27.7478C38.3318 28.2066 38.7023 28.5785 39.1594 28.5785H41.0795C41.5365 28.5785 41.9071 28.2066 41.9071 27.7478V25.8207C41.9071 25.3619 41.5365 24.99 41.0795 24.99Z" fill="url(#paint10_linear_23_412)" />
		<path d="M46.4407 24.99H44.5206C44.0635 24.99 43.693 25.3619 43.693 25.8207V27.7478C43.693 28.2066 44.0635 28.5785 44.5206 28.5785H46.4407C46.8978 28.5785 47.2683 28.2066 47.2683 27.7478V25.8207C47.2683 25.3619 46.8978 24.99 46.4407 24.99Z" fill="url(#paint11_linear_23_412)" />
		<path d="M51.9344 32.1653H50.0144C49.5573 32.1653 49.1868 32.5372 49.1868 32.996V34.9231C49.1868 35.3819 49.5573 35.7538 50.0144 35.7538H51.9344C52.3915 35.7538 52.7621 35.3819 52.7621 34.9231V32.996C52.7621 32.5372 52.3915 32.1653 51.9344 32.1653Z" fill="url(#paint12_linear_23_412)" />
		<path d="M41.0795 32.1653H39.1594C38.7023 32.1653 38.3318 32.5372 38.3318 32.996V34.9231C38.3318 35.3819 38.7023 35.7538 39.1594 35.7538H41.0795C41.5365 35.7538 41.9071 35.3819 41.9071 34.9231V32.996C41.9071 32.5372 41.5365 32.1653 41.0795 32.1653Z" fill="url(#paint13_linear_23_412)" />
		<path d="M46.4407 32.1653H44.5206C44.0635 32.1653 43.693 32.5372 43.693 32.996V34.9231C43.693 35.3819 44.0635 35.7538 44.5206 35.7538H46.4407C46.8978 35.7538 47.2683 35.3819 47.2683 34.9231V32.996C47.2683 32.5372 46.8978 32.1653 46.4407 32.1653Z" fill="url(#paint14_linear_23_412)" />
		<path d="M50.2114 40.1979V46.511H41.053V40.1979C41.053 40.0454 41.1133 39.8992 41.2207 39.7914C41.3281 39.6836 41.4738 39.623 41.6257 39.623H49.6387C49.7905 39.623 49.9362 39.6836 50.0436 39.7914C50.151 39.8992 50.2114 40.0454 50.2114 40.1979Z" fill="url(#paint15_linear_23_412)" />
		<path d="M26.8479 77.8738L28.6206 88.1393C28.6633 88.3856 28.6366 88.639 28.5433 88.8708C28.4501 89.1027 28.2941 89.3038 28.093 89.4514C27.8919 89.5989 27.6537 89.6871 27.4053 89.706C27.1569 89.7248 26.9082 89.6736 26.6873 89.558L17.3783 84.7019L8.06929 89.558C7.84838 89.6736 7.59967 89.7248 7.35127 89.706C7.10287 89.6871 6.86467 89.5989 6.66358 89.4514C6.46248 89.3038 6.30651 89.1027 6.21328 88.8708C6.12005 88.639 6.09328 88.3856 6.13599 88.1393L7.91039 77.8738L0.408891 70.6204C0.228914 70.446 0.101255 70.2245 0.0404128 69.981C-0.0204289 69.7375 -0.0120146 69.4817 0.0647001 69.2428C0.141415 69.0038 0.283355 68.7913 0.4744 68.6292C0.665444 68.4672 0.897936 68.3621 1.14547 68.3261L11.5155 66.8309L16.1816 57.4642C16.2924 57.2413 16.463 57.0539 16.6741 56.9228C16.8852 56.7918 17.1285 56.7224 17.3766 56.7224C17.6248 56.7224 17.8681 56.7918 18.0792 56.9228C18.2903 57.0539 18.4608 57.2413 18.5717 57.4642L23.2196 66.8292L33.6111 68.3244C33.8587 68.3601 34.0913 68.4649 34.2824 68.6267C34.4735 68.7886 34.6156 69.0011 34.6923 69.24C34.7691 69.4789 34.7775 69.7346 34.7166 69.9781C34.6556 70.2215 34.5278 70.4429 34.3477 70.6171L26.8479 77.8738Z" fill="url(#paint16_linear_23_412)" />
		<path d="M88.0913 77.638L89.864 87.9034C89.9067 88.1497 89.88 88.4031 89.7867 88.635C89.6935 88.8669 89.5375 89.0679 89.3364 89.2155C89.1353 89.3631 88.8971 89.4513 88.6487 89.4701C88.4003 89.489 88.1516 89.4377 87.9307 89.3222L78.6217 84.4661L69.3127 89.3222C69.0918 89.4377 68.8431 89.489 68.5947 89.4701C68.3463 89.4513 68.1081 89.3631 67.907 89.2155C67.7059 89.0679 67.5499 88.8669 67.4567 88.635C67.3635 88.4031 67.3367 88.1497 67.3794 87.9034L69.1538 77.638L61.6523 70.3845C61.4723 70.2102 61.3447 69.9887 61.2838 69.7452C61.223 69.5017 61.2314 69.2459 61.3081 69.0069C61.3848 68.768 61.5268 68.5554 61.7178 68.3934C61.9088 68.2313 62.1413 68.1263 62.3889 68.0902L72.7589 66.595L77.425 57.2284C77.5359 57.0055 77.7064 56.818 77.9175 56.687C78.1286 56.556 78.3719 56.4866 78.6201 56.4866C78.8682 56.4866 79.1115 56.556 79.3226 56.687C79.5337 56.818 79.7043 57.0055 79.8151 57.2284L84.463 66.5933L94.8545 68.0886C95.1021 68.1243 95.3347 68.229 95.5258 68.3909C95.717 68.5528 95.859 68.7652 95.9357 69.0041C96.0125 69.243 96.0209 69.4988 95.96 69.7422C95.899 69.9857 95.7712 70.2071 95.5911 70.3812L88.0913 77.638Z" fill="url(#paint17_linear_23_412)" />
		<path d="M59.7422 88.337L61.9387 101.055C61.9912 101.36 61.9578 101.673 61.8424 101.96C61.7269 102.247 61.5338 102.496 61.285 102.678C61.0362 102.861 60.7415 102.971 60.4341 102.994C60.1267 103.018 59.8188 102.955 59.5452 102.812L48.0132 96.7966L36.4796 102.812C36.2059 102.955 35.8981 103.018 35.5906 102.994C35.2832 102.971 34.9885 102.861 34.7397 102.678C34.4909 102.496 34.2979 102.247 34.1824 101.96C34.0669 101.673 34.0336 101.36 34.0861 101.055L36.2826 88.337L26.9901 79.3508C26.7669 79.1349 26.6086 78.8605 26.5332 78.5588C26.4577 78.2571 26.4682 77.9401 26.5634 77.6441C26.6587 77.348 26.8348 77.0848 27.0717 76.8843C27.3087 76.6837 27.597 76.554 27.9038 76.5099L40.7501 74.6542L46.5301 63.053C46.6676 62.777 46.8789 62.5448 47.1404 62.3826C47.4019 62.2203 47.7033 62.1344 48.0107 62.1344C48.3182 62.1344 48.6195 62.2203 48.881 62.3826C49.1426 62.5448 49.3539 62.777 49.4913 63.053L55.2482 74.6525L68.1209 76.5099C68.4277 76.554 68.716 76.6837 68.953 76.8843C69.19 77.0848 69.3661 77.348 69.4613 77.6441C69.5565 77.9401 69.567 78.2571 69.4916 78.5588C69.4161 78.8605 69.2578 79.1349 69.0346 79.3508L59.7422 88.337Z" fill="url(#paint18_linear_23_412)" />
	</g>
	<defs>
		<linearGradient id="paint0_linear_23_412" x1="25.2974" y1="50.8481" x2="75.4656" y2="6.11634" gradientUnits="userSpaceOnUse">
			<stop stop-color="#F5E7D3" />
			<stop offset="1" stop-color="#FCF8F0" />
		</linearGradient>
		<linearGradient id="paint1_linear_23_412" x1="32.6902" y1="43.751" x2="64.3336" y2="29.2404" gradientUnits="userSpaceOnUse">
			<stop stop-color="#E94A46" />
			<stop offset="1" stop-color="#FBC82C" />
		</linearGradient>
		<linearGradient id="paint2_linear_23_412" x1="53.8382" y1="48.2406" x2="66.2591" y2="24.8235" gradientUnits="userSpaceOnUse">
			<stop stop-color="#E94A46" />
			<stop offset="1" stop-color="#FFC824" />
		</linearGradient>
		<linearGradient id="paint3_linear_23_412" x1="49.1868" y1="19.6089" x2="52.7621" y2="19.6089" gradientUnits="userSpaceOnUse">
			<stop stop-color="#F5E7D3" />
			<stop offset="1" stop-color="#FCF8F0" />
		</linearGradient>
		<linearGradient id="paint4_linear_23_412" x1="59.7786" y1="28.3758" x2="63.3539" y2="28.3758" gradientUnits="userSpaceOnUse">
			<stop stop-color="#F5E7D3" />
			<stop offset="1" stop-color="#FCF8F0" />
		</linearGradient>
		<linearGradient id="paint5_linear_23_412" x1="59.7786" y1="35.0212" x2="63.3539" y2="35.0212" gradientUnits="userSpaceOnUse">
			<stop stop-color="#F5E7D3" />
			<stop offset="1" stop-color="#FCF8F0" />
		</linearGradient>
		<linearGradient id="paint6_linear_23_412" x1="59.7786" y1="41.6666" x2="63.3539" y2="41.6666" gradientUnits="userSpaceOnUse">
			<stop stop-color="#F5E7D3" />
			<stop offset="1" stop-color="#FCF8F0" />
		</linearGradient>
		<linearGradient id="paint7_linear_23_412" x1="38.3318" y1="19.6089" x2="41.9071" y2="19.6089" gradientUnits="userSpaceOnUse">
			<stop stop-color="#F5E7D3" />
			<stop offset="1" stop-color="#FCF8F0" />
		</linearGradient>
		<linearGradient id="paint8_linear_23_412" x1="43.693" y1="19.6089" x2="47.2683" y2="19.6089" gradientUnits="userSpaceOnUse">
			<stop stop-color="#F5E7D3" />
			<stop offset="1" stop-color="#FCF8F0" />
		</linearGradient>
		<linearGradient id="paint9_linear_23_412" x1="49.1868" y1="26.7842" x2="52.7621" y2="26.7842" gradientUnits="userSpaceOnUse">
			<stop stop-color="#F5E7D3" />
			<stop offset="1" stop-color="#FCF8F0" />
		</linearGradient>
		<linearGradient id="paint10_linear_23_412" x1="38.3318" y1="26.7842" x2="41.9071" y2="26.7842" gradientUnits="userSpaceOnUse">
			<stop stop-color="#F5E7D3" />
			<stop offset="1" stop-color="#FCF8F0" />
		</linearGradient>
		<linearGradient id="paint11_linear_23_412" x1="43.693" y1="26.7842" x2="47.2683" y2="26.7842" gradientUnits="userSpaceOnUse">
			<stop stop-color="#F5E7D3" />
			<stop offset="1" stop-color="#FCF8F0" />
		</linearGradient>
		<linearGradient id="paint12_linear_23_412" x1="49.1868" y1="33.9595" x2="52.7621" y2="33.9595" gradientUnits="userSpaceOnUse">
			<stop stop-color="#F5E7D3" />
			<stop offset="1" stop-color="#FCF8F0" />
		</linearGradient>
		<linearGradient id="paint13_linear_23_412" x1="38.3318" y1="33.9595" x2="41.9071" y2="33.9595" gradientUnits="userSpaceOnUse">
			<stop stop-color="#F5E7D3" />
			<stop offset="1" stop-color="#FCF8F0" />
		</linearGradient>
		<linearGradient id="paint14_linear_23_412" x1="43.693" y1="33.9595" x2="47.2683" y2="33.9595" gradientUnits="userSpaceOnUse">
			<stop stop-color="#F5E7D3" />
			<stop offset="1" stop-color="#FCF8F0" />
		</linearGradient>
		<linearGradient id="paint15_linear_23_412" x1="41.053" y1="43.067" x2="50.2114" y2="43.067" gradientUnits="userSpaceOnUse">
			<stop stop-color="#F5E7D3" />
			<stop offset="1" stop-color="#FCF8F0" />
		</linearGradient>
		<linearGradient id="paint16_linear_23_412" x1="17.3785" y1="56.7224" x2="17.3785" y2="89.7098" gradientUnits="userSpaceOnUse">
			<stop stop-color="#F7D136" />
			<stop offset="1" stop-color="#F6E291" />
		</linearGradient>
		<linearGradient id="paint17_linear_23_412" x1="78.6219" y1="56.4866" x2="78.6219" y2="89.4739" gradientUnits="userSpaceOnUse">
			<stop stop-color="#F7D136" />
			<stop offset="1" stop-color="#F6E291" />
		</linearGradient>
		<linearGradient id="paint18_linear_23_412" x1="48.0124" y1="62.1344" x2="48.0124" y2="102.999" gradientUnits="userSpaceOnUse">
			<stop stop-color="#F7D136" />
			<stop offset="1" stop-color="#F6E291" />
		</linearGradient>
		<clipPath id="clip0_23_412">
			<rect width="96" height="85" fill="white" />
		</clipPath>
	</defs>
</svg>
