<svg width="55" height="36" viewBox="0 0 55 36" fill="none" xmlns="http://www.w3.org/2000/svg">
	<path d="M54.7536 11.4406C54.3289 12.0335 53.9324 12.6472 53.3262 13.0853C52.9216 13.3776 52.4872 13.5301 51.9799 13.5293C48.1171 13.5219 44.2543 13.5249 40.3916 13.5264C40.2309 13.5264 40.0695 13.5308 39.9103 13.5502C39.792 13.5651 39.7035 13.6357 39.6946 13.7681C39.6857 13.8961 39.7556 13.9727 39.8672 14.0255C40.0435 14.1088 40.2302 14.0939 40.4146 14.0939C44.0669 14.0947 47.7191 14.0947 51.3714 14.0947C51.483 14.0947 51.5945 14.0984 51.7054 14.0947C51.9479 14.0865 52.0342 14.1743 51.898 14.4019C51.4926 15.0795 51.0054 15.6798 50.301 16.071C50.0012 16.2369 49.6777 16.2875 49.3355 16.2868C45.9064 16.2816 42.4766 16.283 39.0474 16.2853C38.8756 16.2853 38.7008 16.2949 38.532 16.3247C38.41 16.3463 38.2872 16.408 38.288 16.562C38.2895 16.7286 38.413 16.803 38.5528 16.8246C38.7105 16.8491 38.8734 16.8484 39.0341 16.8491C42.3151 16.8506 45.5955 16.8491 48.8766 16.8528C49.0305 16.8528 49.244 16.774 49.3251 16.9287C49.4151 17.0998 49.2262 17.2419 49.1317 17.3765C48.3417 18.5012 47.3152 19.1208 45.8789 19.097C43.1438 19.0516 40.4072 19.0836 37.6706 19.0836C37.5471 19.0836 37.4222 19.0769 37.2994 19.0866C37.135 19.1 36.8985 19.0531 36.8888 19.2926C36.8777 19.5559 37.1157 19.5775 37.3173 19.5916C37.4527 19.6013 37.5895 19.5961 37.7256 19.5961C40.5485 19.5961 43.3714 19.5954 46.1935 19.5983C46.3356 19.5983 46.5216 19.5359 46.6071 19.6816C46.6949 19.8312 46.5439 19.9591 46.4665 20.0751C45.7197 21.1961 44.7282 21.8522 43.3208 21.8403C40.4243 21.8157 37.527 21.847 34.6298 21.8276C32.8312 21.8157 31.5317 20.938 30.6599 19.3968C30.4122 18.9586 30.4375 18.9118 30.8875 18.7139C32.4979 18.0043 33.9819 17.1028 35.2196 15.8353C36.3228 14.7061 37.1038 13.3865 37.475 11.8468C37.565 11.4734 37.7056 11.3306 38.1162 11.332C43.5142 11.3477 48.9115 11.3425 54.3096 11.3432C54.4576 11.3432 54.6056 11.3573 54.7536 11.3648C54.7536 11.3908 54.7536 11.4154 54.7536 11.4406Z" fill="#2E2E3F" />
	<path d="M13.6008 35.1185C14.8467 32.591 16.0926 30.0634 17.3386 27.5358C17.8741 26.4491 18.4149 25.3653 18.9386 24.2733C19.0628 24.0137 19.2316 23.9096 19.515 23.9126C20.4553 23.923 21.3955 23.923 22.3357 23.9133C22.6384 23.9103 22.7693 24.0316 22.8289 24.3299C23.5221 27.7932 24.2265 31.2543 24.9287 34.7161C24.9555 34.8492 24.9934 34.9809 24.9659 35.1193C23.8271 35.1193 22.6875 35.1193 21.5487 35.1193C21.5011 34.7771 21.4475 34.4364 21.4089 34.0935C21.3851 33.8808 21.2854 33.7997 21.0704 33.8012C20.0937 33.8086 19.1178 33.8064 18.1412 33.8027C17.9634 33.8019 17.8258 33.8443 17.7573 34.0236C17.616 34.3918 17.4077 34.7325 17.3148 35.12C16.077 35.1185 14.8393 35.1185 13.6008 35.1185ZM20.45 27.6675C20.4196 27.666 20.3891 27.6645 20.3593 27.663C19.8669 28.8346 19.3759 30.0068 18.882 31.1777C18.7846 31.4082 18.8977 31.4625 19.1015 31.4618C19.6333 31.4588 20.1659 31.4544 20.6977 31.4648C20.9172 31.4692 20.9826 31.3837 20.9507 31.1762C20.8919 30.7976 20.845 30.4174 20.7907 30.0388C20.6777 29.2474 20.5631 28.4574 20.45 27.6675Z" fill="#2E2E3F" />
	<path d="M35.4408 35.1185C36.4026 33.1533 37.3614 31.1873 38.3254 29.2236C39.1317 27.5812 39.9507 25.9455 40.7466 24.2979C40.8783 24.0249 41.0322 23.9066 41.3365 23.9111C42.264 23.9252 43.1924 23.9275 44.1207 23.9103C44.4613 23.9044 44.5952 24.0405 44.6599 24.3641C45.3056 27.5983 45.9646 30.8295 46.6177 34.063C46.6884 34.4134 46.7442 34.7667 46.8067 35.1185C45.6679 35.1185 44.5283 35.1185 43.3895 35.1185C43.3367 34.7771 43.2742 34.4364 43.2362 34.0928C43.2147 33.9009 43.1507 33.8004 42.9417 33.8019C41.9271 33.8071 40.9125 33.8049 39.8979 33.8042C39.761 33.8042 39.6539 33.8495 39.6033 33.9827C39.4575 34.3628 39.2478 34.7176 39.1563 35.1185C37.9163 35.1185 36.6785 35.1185 35.4408 35.1185ZM42.1986 27.6154C41.6816 28.8524 41.184 30.044 40.6849 31.2357C40.5964 31.4469 40.7235 31.4618 40.8805 31.4611C41.3871 31.4596 41.8944 31.4454 42.4002 31.4663C42.726 31.4797 42.816 31.348 42.7691 31.0475C42.6278 30.1333 42.4991 29.2169 42.3578 28.3027C42.325 28.0922 42.354 27.8639 42.1986 27.6154Z" fill="#2E2E3F" />
	<path d="M28.3094 35.1185C28.4634 34.031 28.6129 32.9428 28.7736 31.8568C29.0012 30.3178 29.2348 28.7795 29.472 27.242C29.5211 26.9236 29.4222 26.7882 29.083 26.7949C28.3407 26.8106 27.5983 26.8009 26.856 26.7987C26.368 26.7972 26.3531 26.7868 26.4364 26.3293C26.5621 25.6368 26.7079 24.9472 26.8336 24.2547C26.8812 23.9921 27.0003 23.885 27.2807 23.8858C30.2999 23.894 33.3184 23.8925 36.3377 23.888C36.6248 23.8873 36.7453 23.9654 36.6784 24.28C36.5281 24.98 36.3935 25.6844 36.2737 26.3903C36.2224 26.6923 36.0758 26.8076 35.7753 26.8024C35.0947 26.7912 34.4141 26.7987 33.7335 26.7994C33.1652 26.8001 33.1622 26.8001 33.0819 27.3476C32.8104 29.1923 32.5404 31.0371 32.2711 32.8825C32.1625 33.6279 32.0569 34.3739 31.9498 35.1192C30.7358 35.1185 29.5226 35.1185 28.3094 35.1185Z" fill="#2E2E3F" />
	<path d="M7.73248 35.1186C8.33797 32.0896 8.94345 29.0607 9.5482 26.0318C9.66424 25.4501 9.78548 24.8692 9.88813 24.2853C9.93574 24.0153 10.0748 23.9126 10.3426 23.9148C11.3208 23.9215 12.2982 23.9223 13.2763 23.9141C13.5835 23.9111 13.6512 24.0197 13.591 24.3202C12.8821 27.8326 12.1851 31.348 11.4852 34.8627C11.468 34.9475 11.4599 35.0338 11.4472 35.1193C10.2087 35.1186 8.97023 35.1186 7.73248 35.1186Z" fill="#2E2E3F" />
	<path d="M8.50616 11.3432C11.2167 11.3432 13.9273 11.3461 16.6378 11.3394C16.9138 11.3387 17.0975 11.3789 17.1719 11.6972C17.7699 14.2709 19.3633 16.1052 21.5293 17.5081C22.2784 17.9931 23.0639 18.4134 23.8888 18.7548C24.1618 18.8679 24.2168 18.9988 24.0814 19.2591C23.2461 20.8621 21.9511 21.7986 20.1264 21.8224C17.1444 21.8618 14.1608 21.838 11.178 21.8306C9.76846 21.8268 8.82676 21.0547 8.12234 19.9152C7.98324 19.6898 8.07176 19.5983 8.31128 19.5976C8.71964 19.5968 9.12801 19.5953 9.53638 19.5953C12.0617 19.5953 14.5863 19.5953 17.1116 19.5938C17.2835 19.5938 17.4605 19.6176 17.6234 19.5403C17.7275 19.4912 17.819 19.4213 17.8056 19.2889C17.7923 19.1513 17.6874 19.1066 17.5699 19.0977C17.4218 19.0858 17.2731 19.0828 17.125 19.0828C14.3275 19.0821 11.5299 19.0538 8.73303 19.0932C7.22229 19.1148 6.20993 18.3799 5.42741 17.1957C5.2407 16.9123 5.2898 16.8498 5.69147 16.8491C8.21681 16.8468 10.7414 16.8483 13.2667 16.8483C14.1207 16.8483 14.9746 16.8491 15.8285 16.8468C15.9513 16.8461 16.077 16.8409 16.196 16.8141C16.3105 16.7888 16.3946 16.7085 16.4028 16.5813C16.4109 16.4481 16.3224 16.3842 16.2131 16.3381C16.0353 16.2637 15.8479 16.2838 15.6634 16.2838C12.3213 16.2823 8.97924 16.2599 5.63792 16.2979C4.73341 16.3083 4.06321 15.9736 3.48673 15.3413C3.22787 15.0572 3.00695 14.7447 2.81058 14.4137C2.66032 14.1601 2.74884 14.082 3.00919 14.0931C3.12002 14.0976 3.23159 14.0931 3.34317 14.0931C6.98203 14.0931 10.6209 14.0931 14.2598 14.0924C14.4442 14.0924 14.6309 14.1095 14.8087 14.0314C14.9352 13.9756 15.0148 13.8923 14.9924 13.7465C14.9731 13.6163 14.8779 13.5553 14.7596 13.5442C14.5997 13.5286 14.4383 13.5256 14.2776 13.5256C10.5026 13.5248 6.72764 13.5092 2.95265 13.5367C2.08757 13.5434 1.41811 13.2392 0.849073 12.6322C0.586498 12.3518 0.345494 12.0535 0.142425 11.727C0.0799429 11.6273 -0.0539476 11.5291 0.0234117 11.4019C0.0858943 11.3 0.227967 11.3447 0.336568 11.3439C1.12876 11.3409 1.92095 11.3424 2.71314 11.3424C4.64415 11.3432 6.57515 11.3432 8.50616 11.3432Z" fill="#2E2E3F" />
	<path d="M20.7052 8.77395C21.1381 8.77395 21.571 8.77321 22.0032 8.77395C22.602 8.77544 22.6221 8.78436 22.666 9.39134C22.7448 10.4974 23.0185 11.5567 23.3964 12.5936C23.6248 13.2206 23.6233 13.2177 23.0304 13.533C22.5164 13.806 22.0248 14.117 21.5733 14.4844C21.3724 14.6473 21.2415 14.6124 21.0779 14.4316C19.7129 12.9231 18.9423 11.158 18.7422 9.1362C18.7154 8.8647 18.8307 8.77618 19.0725 8.77618C19.6162 8.77693 20.1607 8.77618 20.7045 8.77618C20.7052 8.77544 20.7052 8.7747 20.7052 8.77395Z" fill="#2E2E3F" />
	<path d="M20.6628 8.25178C20.1317 8.25178 19.5998 8.24807 19.0687 8.25327C18.8188 8.2555 18.7132 8.16699 18.7407 7.89772C18.9453 5.87819 19.7077 4.11157 21.0831 2.60976C21.2489 2.42901 21.365 2.38586 21.5695 2.55992C22.1088 3.01813 22.7098 3.38633 23.3518 3.68238C23.5846 3.79023 23.6277 3.91371 23.5295 4.1443C23.0423 5.28907 22.7552 6.48219 22.654 7.7244C22.6109 8.25178 22.5901 8.25104 22.0716 8.25253C21.6023 8.25402 21.1322 8.25253 20.6628 8.25253C20.6628 8.25253 20.6628 8.25253 20.6628 8.25178Z" fill="#2E2E3F" />
	<path d="M35.9151 9.33926C35.7061 11.2859 34.9117 13.0019 33.5609 14.4673C33.4121 14.6287 33.2857 14.6369 33.1198 14.5008C32.5723 14.0522 31.9758 13.6788 31.3383 13.3724C31.1255 13.2705 31.0824 13.1552 31.1746 12.9365C31.5518 12.0453 31.8136 11.1193 31.9579 10.1627C32.0115 9.80937 32.0494 9.45232 32.0732 9.09602C32.0873 8.87808 32.1855 8.77915 32.3931 8.77915C33.4813 8.77766 34.5695 8.7732 35.6578 8.78064C36.0691 8.78361 35.8846 9.09677 35.9151 9.33926Z" fill="#2E2E3F" />
	<path d="M34.0208 8.25255C33.5016 8.25255 32.9832 8.2466 32.464 8.25553C32.2103 8.25999 32.0891 8.17965 32.0682 7.90071C31.9723 6.60048 31.6948 5.33893 31.1831 4.13539C31.0938 3.92637 31.1295 3.79843 31.3452 3.69132C31.9887 3.37296 32.5971 2.9936 33.1483 2.53167C33.3462 2.3658 33.454 2.47589 33.579 2.60978C34.6657 3.77091 35.4088 5.11578 35.751 6.67412C35.8388 7.07207 35.8871 7.47524 35.9243 7.88137C35.9511 8.17296 35.841 8.25776 35.5769 8.25478C35.0585 8.24734 34.5393 8.25181 34.0208 8.25255Z" fill="#2E2E3F" />
	<path d="M25.1265 8.77542C25.6338 8.77542 26.1418 8.78063 26.6491 8.77319C26.9347 8.76873 27.0783 8.86171 27.0731 9.18007C27.059 10.1448 27.0619 11.1096 27.0716 12.0744C27.0746 12.3429 26.9638 12.4582 26.7056 12.4701C25.9343 12.5058 25.1845 12.6583 24.4563 12.9104C24.2324 12.9878 24.1171 12.9149 24.0278 12.7044C23.5391 11.5537 23.2847 10.3509 23.1947 9.10867C23.1769 8.86617 23.3041 8.77542 23.5294 8.77617C24.062 8.77766 24.5939 8.77691 25.1265 8.77691C25.1265 8.77617 25.1265 8.77542 25.1265 8.77542Z" fill="#2E2E3F" />
	<path d="M29.5724 8.77547C30.079 8.77547 30.5863 8.78291 31.0928 8.77249C31.3941 8.76654 31.5176 8.88407 31.4953 9.19202C31.409 10.397 31.136 11.5552 30.6696 12.6702C30.5803 12.8837 30.4822 13.002 30.2285 12.909C29.5159 12.6479 28.7743 12.5207 28.0208 12.4634C27.7337 12.4419 27.6146 12.3266 27.6199 12.0238C27.6355 11.0732 27.6332 10.1218 27.6213 9.17119C27.6176 8.88035 27.7381 8.77101 28.0156 8.77398C28.534 8.77993 29.0532 8.77547 29.5724 8.77547Z" fill="#2E2E3F" />
	<path d="M29.5384 8.25252C29.0318 8.25252 28.5245 8.24433 28.018 8.25549C27.7383 8.26144 27.617 8.16325 27.6207 7.86869C27.6327 6.90542 27.6297 5.94215 27.6222 4.97887C27.62 4.72597 27.6899 4.59803 27.9704 4.57795C28.7365 4.52365 29.4878 4.37413 30.216 4.12643C30.4362 4.05131 30.5611 4.10561 30.6519 4.31909C31.1309 5.44303 31.4076 6.61384 31.4969 7.83076C31.5185 8.12681 31.4054 8.26293 31.0952 8.25549C30.5768 8.24285 30.0576 8.25252 29.5384 8.25252Z" fill="#2E2E3F" />
	<path d="M25.1303 8.25254C24.6104 8.25254 24.0912 8.24585 23.5712 8.25478C23.2789 8.25998 23.1748 8.13427 23.1971 7.84864C23.29 6.68304 23.5422 5.55613 23.961 4.46268C24.0889 4.12795 24.2585 4.03051 24.6037 4.15771C25.2806 4.40689 25.9894 4.52144 26.7065 4.57351C26.9668 4.59211 27.0747 4.69178 27.0717 4.9618C27.0613 5.93846 27.0613 6.91512 27.071 7.89178C27.074 8.17295 26.946 8.25924 26.6887 8.25552C26.1694 8.24734 25.6502 8.25254 25.1303 8.25254Z" fill="#2E2E3F" />
	<path d="M28.2655 0.043498C28.6322 -0.0383244 28.9245 0.0925913 29.2154 0.159537C30.4851 0.451866 31.6515 0.974042 32.6839 1.78185C32.8565 1.91723 32.9219 2.01765 32.7152 2.17683C32.1945 2.57776 31.6567 2.94968 31.0564 3.22565C30.8883 3.30301 30.7678 3.31639 30.6599 3.12225C30.0552 2.03253 29.2898 1.06628 28.383 0.210117C28.3488 0.177388 28.3272 0.132015 28.2655 0.043498Z" fill="#2E2E3F" />
	<path d="M26.1679 0.000356754C26.2445 0.0115144 26.3427 -0.0323727 26.3643 0.0673019C26.3851 0.164745 26.2899 0.216071 26.2296 0.273347C25.555 0.915281 24.9584 1.62342 24.4504 2.4037C24.3023 2.63132 24.158 2.8634 24.0331 3.1044C23.9379 3.28887 23.8337 3.31565 23.6478 3.23085C23.0348 2.95191 22.4874 2.57404 21.9592 2.1627C21.7681 2.01393 21.8335 1.91574 21.9912 1.79227C22.709 1.23141 23.4997 0.805192 24.3522 0.488316C24.9443 0.268139 25.5527 0.109701 26.1679 0.000356754Z" fill="#2E2E3F" />
	<path d="M28.285 16.9703C28.3021 16.8387 28.4233 16.7799 28.5089 16.6996C29.3405 15.9104 30.0494 15.0245 30.605 14.021C30.7344 13.7867 30.8594 13.7346 31.1034 13.8566C31.6702 14.14 32.2095 14.4606 32.7012 14.863C32.8581 14.991 32.9117 15.0936 32.7212 15.2357C31.4374 16.1967 30.0018 16.7911 28.4159 17.0269C28.3683 17.0336 28.317 17.0321 28.285 16.9703Z" fill="#2E2E3F" />
	<path d="M26.4379 17.0365C25.7089 16.9725 25.0707 16.7947 24.4437 16.5761C23.5749 16.2726 22.7767 15.833 22.0321 15.2907C21.8157 15.133 21.7896 15.017 22.0158 14.8474C22.5208 14.4688 23.0326 14.1043 23.6098 13.8402C23.7869 13.7591 23.9245 13.739 24.0398 13.9488C24.643 15.0534 25.4293 16.0152 26.3486 16.8721C26.3724 16.8952 26.3829 16.9338 26.4379 17.0365Z" fill="#2E2E3F" />
	<path d="M27.6251 2.19024C27.6251 1.69633 27.6229 1.20242 27.6273 0.708508C27.6281 0.616272 27.5887 0.495026 27.7047 0.445932C27.7977 0.406509 27.8654 0.490561 27.9271 0.546349C28.787 1.32069 29.5226 2.19544 30.0783 3.21525C30.1861 3.41385 30.2003 3.56336 29.9466 3.64221C29.3092 3.84082 28.6695 4.02157 27.9933 4.03719C27.7218 4.04389 27.6147 3.94272 27.6214 3.67122C27.634 3.17806 27.6251 2.68415 27.6251 2.19024Z" fill="#2E2E3F" />
	<path d="M27.6252 14.8586C27.6252 14.4138 27.6245 13.9697 27.6252 13.5249C27.626 13.0064 27.626 13.0213 28.1355 13.0444C28.7343 13.0711 29.3048 13.2229 29.8791 13.3709C30.1409 13.4386 30.222 13.5576 30.0747 13.8187C29.5042 14.8274 28.805 15.7296 27.9295 16.4913C27.861 16.5508 27.797 16.6743 27.6862 16.6126C27.5873 16.5575 27.6282 16.434 27.6275 16.3396C27.623 15.8464 27.6252 15.3525 27.6252 14.8586Z" fill="#2E2E3F" />
	<path d="M27.0679 2.21033C27.0679 2.69233 27.0568 3.17509 27.0724 3.6571C27.082 3.95166 26.9608 4.0491 26.6767 4.03794C26.0005 4.01042 25.3623 3.81777 24.7218 3.62883C24.5463 3.57676 24.4764 3.47114 24.5731 3.2941C25.1481 2.24157 25.886 1.32069 26.7986 0.540407C26.8522 0.494289 26.9139 0.428087 26.9935 0.46156C27.0962 0.504703 27.0664 0.609585 27.0672 0.689919C27.0701 1.19647 27.0679 1.70303 27.0679 2.21033Z" fill="#2E2E3F" />
	<path d="M27.068 14.8578C27.068 15.3406 27.0702 15.8226 27.0665 16.3053C27.0658 16.399 27.1015 16.521 26.9981 16.5753C26.8895 16.6319 26.8166 16.5277 26.7467 16.4638C25.9158 15.7117 25.1891 14.8734 24.652 13.8826C24.4512 13.5129 24.4683 13.478 24.8781 13.3478C25.4829 13.1552 26.1055 13.0681 26.737 13.0213C26.9847 13.0034 27.0732 13.1001 27.0702 13.3359C27.0635 13.8432 27.068 14.3505 27.068 14.8578Z" fill="#2E2E3F" />
</svg>
