<svg fill="#697488" width="20" height="20" version="1.1" id="Capa_1" xmlns="http://www.w3.org/2000/svg"
            xmlns:xlink="http://www.w3.org/1999/xlink" viewBox="0 0 612 612" xml:space="preserve">
            <g>
              <path d="M202.772,404.687l-30.998,4.222c-8.503-11.019-14.959-23.733-18.73-37.611l39.719-5.41
		C195.223,379.208,198.589,392.343,202.772,404.687z M268.104,450.642c0.686-0.067,1.372-0.128,2.055-0.209
		c6.816-1.601,13.936-12.896,18.398-29.286l-45.408,6.186C251.946,442.194,261.166,450.416,268.104,450.642z M198.215,433.451
		c7.206,4.744,14.999,8.632,23.215,11.557c-2.697-4.264-5.257-8.838-7.669-13.677L198.215,433.451z M194.012,259.044
		c0.427-1.606,0.884-3.16,1.353-4.696c-7.795,5.475-14.893,12.001-21.109,19.494l16.995-2.315
		C192.041,267.215,192.95,263.035,194.012,259.044z M241.301,236.052c-0.12,0-0.237,0.02-0.354,0.025
		c-0.552,0.086-1.104,0.173-1.654,0.268c-6.827,1.841-13.93,13.331-18.326,29.863c-0.112,0.421-0.192,0.887-0.301,1.314
		l46.903-6.389C258.349,244.949,248.538,236.052,241.301,236.052z M289.297,324.593c-2.56-13.724-5.943-26.098-9.806-36.941
		l-63.26,8.618c-0.856,11.995-0.717,24.882,0.435,38.219L289.297,324.593z M188.069,300.104l-31.737,4.323
		c-4.775,12.472-7.17,25.736-7.059,39.239l39.705-5.408C187.791,325.132,187.498,312.3,188.069,300.104z M563.417,101.746
		l-52.283,366.432c-3.419,23.959-21.681,42.851-44.572,47.946c1.604,13.992-2.145,27.825-10.695,39.072
		c-8.79,11.563-21.558,19.012-35.954,20.972l-259.387,35.329c-2.449,0.335-4.934,0.502-7.388,0.502
		c-27.038,0-50.18-20.225-53.836-47.048L48.503,191.966c-1.961-14.393,1.802-28.689,10.592-40.254
		c8.791-11.563,21.558-19.012,35.954-20.972l91.709-12.491l9.82-68.84C200.603,21.24,225.064,0,253.479,0
		c2.722,0,5.472,0.195,8.18,0.583L514.59,36.671c15.213,2.17,28.669,10.135,37.892,22.425
		C561.705,71.387,565.584,86.536,563.417,101.746z M392.348,324.63c-9.142-67.134-67.056-117.757-134.713-117.757
		c-6.152,0-12.385,0.424-18.524,1.261c-0.51,0.07-1.015,0.17-1.523,0.245c-0.368,0.039-0.742,0.064-1.107,0.112
		c-0.828,0.112-1.64,0.293-2.451,0.46c-33.938,5.907-63.94,24.099-84.901,51.672c-22.007,28.943-31.422,64.724-26.514,100.748
		c3.648,26.781,15.074,50.919,31.768,70.282c0.714,1.04,1.531,1.991,2.488,2.797c25.08,27.534,61.11,44.68,100.455,44.68
		c0.003,0,0.006,0,0.006,0c4.359,0,8.754-0.223,13.133-0.644c0.923-0.053,1.843-0.131,2.755-0.257
		c0.22-0.031,0.435-0.089,0.655-0.123c0.658-0.081,1.319-0.145,1.977-0.234c36.027-4.906,67.984-23.549,89.988-52.492
		C387.844,396.437,397.257,360.656,392.348,324.63z M530.174,75.835c-4.752-6.334-11.682-10.436-19.522-11.554L257.721,28.193
		c-1.408-0.201-2.834-0.304-4.242-0.304c-14.625,0-27.219,10.946-29.289,25.46l-8.701,60.987l67.744-9.226l71.203-9.697
		c2.449-0.335,4.936-0.502,7.388-0.502c27.041,0,50.186,20.228,53.836,47.051l0.424,3.104c0,0.003,0,0.008,0.003,0.011
		l46.758,343.279c10.715-3.296,19.037-12.572,20.682-24.113L535.81,97.811C536.926,89.972,534.924,82.166,530.174,75.835z
		 M321.539,388.509l36.294-4.945c5.299-13.046,7.973-27.005,7.856-41.231l-44.968,6.124
		C321.974,362.268,322.236,375.752,321.539,388.509z M220.404,362.123c2.702,14.485,6.322,27.473,10.453,38.737l62.504-8.514
		c1.01-12.522,0.887-26.084-0.324-40.118L220.404,362.123z M315.691,427.675c-0.753,2.831-1.587,5.516-2.465,8.13
		c9.538-5.731,18.178-12.96,25.646-21.511l-20.771,2.828C317.392,420.751,316.592,424.279,315.691,427.675z M286.316,238.685
		c3.762,5.6,7.279,11.791,10.511,18.46l22.222-3.026C309.159,247.244,298.118,241.973,286.316,238.685z M361.919,314.701
		c-3.575-13.161-9.552-25.287-17.416-35.904l-36.972,5.037c3.904,11.816,7.067,24.322,9.41,36.994L361.919,314.701z" />
            </g>
          </svg>