<svg width="85" height="85" viewBox="0 0 85 85" fill="none" xmlns="http://www.w3.org/2000/svg">
	<g clip-path="url(#clip0_23_395)">
		<path d="M65.6325 20.2437H15.1878C6.79981 20.2437 0 27.0393 0 35.4222V69.8214C0 78.2043 6.79981 85 15.1878 85H65.6325C74.0205 85 80.8203 78.2043 80.8203 69.8214V35.4222C80.8203 27.0393 74.0205 20.2437 65.6325 20.2437Z" fill="url(#paint0_linear_23_395)" />
		<path d="M77.075 52.187H65.4047C61.0279 52.187 57.4797 55.733 57.4797 60.1072C57.4797 64.4814 61.0279 68.0274 65.4047 68.0274H77.075C81.4519 68.0274 85 64.4814 85 60.1072C85 55.733 81.4519 52.187 77.075 52.187Z" fill="url(#paint1_linear_23_395)" />
		<path d="M66.0138 62.7164C67.4565 62.7164 68.6261 61.5476 68.6261 60.1057C68.6261 58.6639 67.4565 57.495 66.0138 57.495C64.5711 57.495 63.4015 58.6639 63.4015 60.1057C63.4015 61.5476 64.5711 62.7164 66.0138 62.7164Z" fill="#ECEFF1" />
		<path d="M58.388 13.8368L53.2242 34.1761H17.6635L24.9855 5.36263C25.4499 3.53649 26.621 1.96948 28.2413 1.00624C29.8617 0.0429941 31.7985 -0.237591 33.6258 0.226196L53.2454 5.20628C55.0725 5.67076 56.6403 6.8412 57.6043 8.46038C58.5683 10.0796 58.8497 12.015 58.3865 13.8414L58.388 13.8368Z" fill="url(#paint2_linear_23_395)" />
		<path d="M45.0181 3.11164L37.1205 34.17H25.5094L34.1072 0.341553L45.0181 3.11164Z" fill="#ECEFF1" />
		<path d="M81.9245 25.1752L75.7111 34.17H29.7377L50.8032 3.69293C51.3856 2.85024 52.1285 2.13046 52.9893 1.5747C53.8501 1.01893 54.812 0.638068 55.8201 0.453849C56.8282 0.269631 57.8628 0.285667 58.8647 0.501042C59.8666 0.716416 60.8162 1.12691 61.6594 1.70909L79.9364 14.3301C81.6381 15.5054 82.8035 17.3079 83.1762 19.3414C83.549 21.3749 83.0988 23.4732 81.9245 25.1752Z" fill="url(#paint3_linear_23_395)" />
		<path d="M47.0123 34.1686H36.191L38.1078 31.397C38.6307 30.6406 39.4327 30.1228 40.3376 29.9575C41.2425 29.7921 42.176 29.9926 42.9329 30.5151L45.6986 32.423C46.315 32.8464 46.7763 33.4593 47.0123 34.1686Z" fill="white" />
		<path d="M68.3077 14.722L66.3382 17.574C65.7941 18.3619 65.9919 19.4412 66.7799 19.9848C67.5679 20.5283 68.6478 20.3302 69.1919 19.5423L71.1615 16.6904C71.7056 15.9025 71.5078 14.8231 70.7198 14.2796C69.9318 13.736 68.8519 13.9341 68.3077 14.722Z" fill="#ECEFF1" />
		<path d="M61.2622 9.86033L59.2927 12.7123C58.7486 13.5002 58.9463 14.5795 59.7343 15.1231C60.5224 15.6666 61.6023 15.4685 62.1464 14.6806L64.1159 11.8287C64.66 11.0408 64.4623 9.96142 63.6743 9.41788C62.8862 8.87434 61.8063 9.07243 61.2622 9.86033Z" fill="#ECEFF1" />
		<path d="M61.6612 24.3443L59.7529 27.1076C59.2088 27.8955 59.4065 28.9748 60.1946 29.5183C60.9826 30.0619 62.0625 29.8638 62.6066 29.0759L64.5149 26.3126C65.059 25.5247 64.8612 24.4454 64.0732 23.9018C63.2852 23.3583 62.2053 23.5564 61.6612 24.3443Z" fill="#ECEFF1" />
		<path d="M53.5751 14.9581L58.4993 7.82749C59.0434 7.0396 58.8457 5.96025 58.0576 5.41671C57.2696 4.87318 56.1897 5.07127 55.6456 5.85916L50.7214 12.9897C50.1772 13.7776 50.375 14.857 51.163 15.4005C51.951 15.944 53.031 15.746 53.5751 14.9581Z" fill="#ECEFF1" />
		<path d="M0 38.7387C1.30149 40.9008 3.14003 42.69 5.33727 43.9328C7.53451 45.1756 10.0158 45.8297 12.5406 45.8317H80.8203V43.7431H12.5406C9.35429 43.7402 6.28837 42.5264 3.96442 40.3479C1.64048 38.1694 0.232454 35.1892 0.0258195 32.0116C0.0106318 32.2636 0 32.5186 0 32.7705V38.7387Z" fill="#ECEFF1" />
		<path d="M80.8203 35.2144V33.1258H14.8931C14.6024 33.1335 14.313 33.0829 14.0422 32.977C13.7713 32.8711 13.5244 32.712 13.3161 32.5092C13.1077 32.3064 12.9421 32.064 12.829 31.7962C12.716 31.5283 12.6577 31.2406 12.6577 30.95C12.6577 30.6593 12.716 30.3715 12.829 30.1037C12.9421 29.8359 13.1077 29.5935 13.3161 29.3907C13.5244 29.1879 13.7713 29.0288 14.0422 28.9229C14.313 28.817 14.6024 28.7664 14.8931 28.7741C15.1703 28.7741 15.436 28.6641 15.632 28.4682C15.828 28.2724 15.9381 28.0068 15.9381 27.7298C15.9381 27.4529 15.828 27.1872 15.632 26.9914C15.436 26.7956 15.1703 26.6855 14.8931 26.6855C13.7612 26.6855 12.6757 27.1349 11.8754 27.9348C11.075 28.7347 10.6254 29.8195 10.6254 30.9507C10.6254 32.0819 11.075 33.1668 11.8754 33.9667C12.6757 34.7665 13.7612 35.2159 14.8931 35.2159L80.8203 35.2144Z" fill="#ECEFF1" />
		<path d="M0 70.937C1.29966 73.1013 3.1376 74.8927 5.3351 76.137C7.53261 77.3812 10.0149 78.036 12.5406 78.0376H79.5187C79.852 77.3671 80.1245 76.6681 80.3328 75.949H12.5406C9.21557 75.945 6.02793 74.6231 3.67695 72.2732C1.32596 69.9234 0.00361738 66.7375 0 63.4146V70.937Z" fill="#ECEFF1" />
	</g>
	<defs>
		<linearGradient id="paint0_linear_23_395" x1="-7.67793" y1="79.4309" x2="75.2238" y2="9.25181" gradientUnits="userSpaceOnUse">
			<stop stop-color="#E94A46" />
			<stop offset="1" stop-color="#FBC82C" />
		</linearGradient>
		<linearGradient id="paint1_linear_23_395" x1="54.8653" y1="66.6651" x2="75.1524" y2="42.7587" gradientUnits="userSpaceOnUse">
			<stop stop-color="#E94A46" />
			<stop offset="1" stop-color="#FBC82C" />
		</linearGradient>
		<linearGradient id="paint2_linear_23_395" x1="38.134" y1="0.00756836" x2="38.134" y2="34.1761" gradientUnits="userSpaceOnUse">
			<stop stop-color="#F7D136" />
			<stop offset="1" stop-color="#F6E291" />
		</linearGradient>
		<linearGradient id="paint3_linear_23_395" x1="56.5209" y1="0.32666" x2="56.5209" y2="34.17" gradientUnits="userSpaceOnUse">
			<stop stop-color="#F7D136" />
			<stop offset="1" stop-color="#F6E291" />
		</linearGradient>
		<clipPath id="clip0_23_395">
			<rect width="85" height="85" fill="white" />
		</clipPath>
	</defs>
</svg>
