<svg xmlns="http://www.w3.org/2000/svg" width="15" height="15" viewBox="0 0 15 15" fill="none">
	<path fill-rule="evenodd" clip-rule="evenodd" d="M7.20886 0C11.1838 0 14.417 3.1619 14.417 7.04913C14.417 8.88311 13.6973 10.5558 12.5196 11.8112L14.837 14.0727C15.0539 14.2848 15.0546 14.6279 14.8377 14.84C14.7296 14.9472 14.5868 15 14.4447 15C14.3033 15 14.1612 14.9472 14.0524 14.8415L11.707 12.5542C10.4732 13.5205 8.90887 14.099 7.20886 14.099C3.23396 14.099 0 10.9364 0 7.04913C0 3.1619 3.23396 0 7.20886 0ZM7.20886 1.08582C3.84611 1.08582 1.11031 3.76055 1.11031 7.04913C1.11031 10.3377 3.84611 13.0132 7.20886 13.0132C10.5709 13.0132 13.3067 10.3377 13.3067 7.04913C13.3067 3.76055 10.5709 1.08582 7.20886 1.08582Z" fill="#9CA4AB" />
</svg>