<svg width="18" height="17" viewBox="0 0 18 17" fill="none" xmlns="http://www.w3.org/2000/svg">
<g id="Group 1000003491">
<path id="Vector" d="M3.26959 11.3686C3.93225 12.0706 4.51434 12.6882 5.09751 13.3047C5.65638 13.8958 6.22098 14.4814 6.77356 15.078C7.1038 15.4347 7.13931 15.8316 6.9003 16.1897C6.57197 16.6817 6.0325 16.7237 5.57634 16.2643C4.98361 15.6674 4.41054 15.0509 3.82982 14.4418C2.80414 13.3659 1.77655 12.2919 0.754974 11.2121C0.271498 10.701 0.267401 10.2787 0.689691 9.80729C0.886905 9.58741 1.12536 9.58659 1.37967 9.58659C3.69379 9.58768 6.00792 9.58713 8.32177 9.58713C11.1688 9.58713 14.0159 9.58549 16.8629 9.58877C17.5452 9.58959 17.9186 9.89934 17.9312 10.4527C17.941 10.8911 17.7091 11.2176 17.2811 11.3099C17.0511 11.3596 16.8085 11.3659 16.5714 11.3662C12.336 11.3692 8.10052 11.3683 3.86506 11.3683C3.70253 11.3686 3.54001 11.3686 3.26959 11.3686Z" fill="white"/>
<path id="Vector_2" d="M15.1101 6.04219C13.9429 4.81247 12.8725 3.68491 11.8028 2.55653C11.6968 2.44481 11.5835 2.33691 11.495 2.21181C11.2057 1.8029 11.2658 1.30987 11.6313 1.00012C11.9618 0.720139 12.4084 0.750458 12.7613 1.11375C13.67 2.04929 14.5676 2.99575 15.4671 3.9403C16.2021 4.71222 16.9375 5.4836 17.6651 6.26262C18.0631 6.68874 18.0598 7.10748 17.7064 7.54069C17.5327 7.75375 17.3191 7.78216 17.0708 7.78161C14.8686 7.77751 12.6665 7.77943 10.4646 7.77943C7.47719 7.77943 4.48948 7.7797 1.50204 7.77833C1.30701 7.77833 1.10925 7.79691 0.922143 7.71223C0.569779 7.55244 0.362185 7.17768 0.428288 6.77888C0.495482 6.37325 0.746234 6.12987 1.14722 6.05885C1.31111 6.0299 1.48292 6.04246 1.65091 6.04246C5.92871 6.04165 10.2068 6.04192 14.4846 6.04192C14.6493 6.04219 14.8137 6.04219 15.1101 6.04219Z" fill="white"/>
</g>
</svg>
