<svg xmlns="http://www.w3.org/2000/svg" width="55" height="41" viewBox="0 0 55 41" fill="none">
  <path opacity="0.69" d="M9.19078 21.4909L0.190591 27.5529C-0.064982 27.7253 -0.063232 28.1016 0.194091 28.2714L10.2026 34.8708C10.5649 35.1098 11.0323 35.1141 11.3999 34.8839L23.4057 27.3358C23.7777 27.1021 24.2591 27.1441 24.5847 27.4391L25.4275 28.2014C25.7593 28.5016 25.7225 29.0329 25.3531 29.2841L21.1817 32.1269C20.8946 32.3221 20.899 32.7466 21.1896 32.9365L32.5862 40.3901C33.072 40.7079 33.6951 40.7245 34.1967 40.4322L50.4325 30.9935C51.0268 30.6477 51.1187 29.8268 50.6146 29.3585L46.858 25.8706L36.2491 22.1237L25.3969 23.7298L16.8317 27.9152L9.19078 21.4909Z" fill="#D2DBE3"/>
  <path d="M9.79463 23.7626L2.25037 28.3358L2.50808 28.7609L10.0524 24.1878L9.79463 23.7626Z" fill="#253A4E"/>
  <path d="M15.3432 27.5583L7.79895 32.1314L8.05667 32.5566L15.6009 27.9834L15.3432 27.5583Z" fill="#253A4E"/>
  <path d="M4.79561 26.9111L4.52954 27.3311L10.4678 31.0935L10.7339 30.6736L4.79561 26.9111Z" fill="#253A4E"/>
  <path d="M31.5927 0.143524C31.5927 0.143524 14.956 6.90395 12.402 11.5279C12.079 12.1126 11.749 12.692 11.3692 13.2416C10.0108 15.2039 7.29228 19.7124 7.19512 24.4755C7.19512 24.4755 7.0122 29.8425 14.2733 28.8097C14.6566 28.7554 15.0452 28.7257 15.4321 28.7029C16.3327 28.6487 18.6206 28.1891 22.6337 25.3936C22.7614 25.3052 22.9164 25.2571 23.0713 25.2623L24.3203 25.3026C24.6327 25.3122 24.9032 25.5223 24.9907 25.8216L25.6226 27.9791L36.1991 34.273C36.1991 34.273 37.9514 32.975 38.9247 33.9483C38.9247 33.9483 40.936 35.0511 42.1045 34.0131C42.1045 34.0131 43.4506 32.926 43.2563 30.7851L48.8526 27.4758C48.8526 27.4758 49.9721 29.5685 51.5782 28.7414C51.5782 28.7414 54.0604 27.8172 53.6709 25.2378C53.6709 25.2378 53.4136 24.1236 54.2267 23.9862C54.3299 23.9687 54.4035 23.8724 54.4052 23.7674L54.6363 12.9659C54.6415 12.7305 54.5199 12.5099 54.3186 12.3883L43.9267 6.1066C43.7849 6.02082 43.6073 6.02345 43.4672 6.11273L25.7898 17.4297C25.4835 17.6258 25.2988 17.9645 25.2988 18.3277V22.2646C25.2988 22.5578 25.2008 22.8396 25.0187 23.0698C24.5391 23.679 23.2857 24.7949 20.1401 25.8216C20.1401 25.8216 18.2425 23.9722 23.3032 17.4997C23.3032 17.4997 25.2008 13.9471 33.3765 9.76252L41.7465 5.18846L31.5927 0.143524Z" fill="#253A4E"/>
  <path d="M27.0991 18.1991L35.3064 22.8117C35.6381 22.9981 35.8429 23.3482 35.8429 23.7289V32.8228C35.8429 33.0048 35.6442 33.1177 35.4875 33.0249L26.3867 27.6352C26.0375 27.4286 25.8344 27.0435 25.8607 26.6391L26.3849 18.586C26.4077 18.2332 26.7911 18.0258 27.0991 18.1991Z" fill="#FFFEFF"/>
  <path d="M31.7713 0.662565C31.7713 0.662565 18.9725 6.89172 17.075 8.4978C17.075 8.4978 14.5446 9.86056 15.6641 11.2715C16.7835 12.6824 19.1677 13.6075 23.8398 12.8775C23.8398 12.8775 26.9539 12.6342 28.2195 11.9533L40.9693 4.4594L33.1368 0L31.7713 0.662565Z" fill="white"/>
  <path d="M14.3006 10.5905C14.3006 10.5905 11.0884 13.4132 11.7378 16.0083C11.7378 16.0083 12.1842 18.8555 16.7583 18.4012C16.7583 18.4012 19.4348 18.4503 21.8487 17.4971C22.2391 17.3518 22.5944 17.1348 22.9148 16.8687C23.7112 16.2044 25.2526 14.7637 25.3961 13.4456C25.3961 13.4456 22.7441 14.0022 20.184 14.0224C17.777 14.0416 15.5233 12.7576 14.3408 10.6623C14.3277 10.6387 14.3137 10.6141 14.3006 10.5905Z" fill="#FFFEFA"/>
  <path d="M8.4451 21.097C8.39433 21.0156 8.27617 21.0165 8.23503 21.1032C7.8473 21.9346 6.51342 25.1976 8.65516 26.7468C8.65516 26.7468 10.4398 28.6933 13.4892 28.4334C13.4892 28.4334 16.8011 28.2539 18.8466 26.9805C19.0041 26.8824 19.0855 26.7004 19.0662 26.5157C18.9848 25.7499 18.8317 23.6711 19.3971 22.3907C19.4286 22.3189 19.3551 22.248 19.2877 22.2882C18.4947 22.7653 15.7928 24.2015 12.613 23.7945C12.6139 23.7945 10.0179 23.609 8.4451 21.097Z" fill="#FFFFFE"/>
  <path d="M27.6622 17.5225L35.8651 22.0939C36.0891 22.2182 36.3605 22.22 36.5854 22.0974L52.9079 12.959C53.0313 12.8898 53.0348 12.713 52.9141 12.6395L43.9209 7.11929C43.7668 7.02476 43.5725 7.02563 43.4193 7.12191L27.6526 17.0262C27.4679 17.1426 27.4732 17.4131 27.6622 17.5225Z" fill="#FFFFFE"/>
  <path d="M27.1484 19.1067L35.2269 23.8269L34.9022 29.0828L26.9856 24.8002L27.1484 19.1067Z" fill="#253A4E"/>
  <path d="M36.8811 23.1705L37.1244 33.1956L39.3388 33.1711L53.6946 23.4138L53.7603 14.3173C53.7638 13.8753 53.2842 13.5979 52.9025 13.8202L36.8811 23.1705Z" fill="url(#paint0_linear_26_1207)"/>
  <path d="M38.0005 24.5088L38.0976 32.5383H39.0954C39.0954 32.5383 39.2171 31.0057 40.8232 30.2513L40.9203 23.146L38.0005 24.5088Z" fill="#F9FEFF"/>
  <path d="M41.7474 22.1482L41.8691 27.0391L52.6968 20.445V15.6757L41.7474 22.1482Z" fill="#F9FEFF"/>
  <path d="M28.154 26.7791C27.9221 27.2413 27.5063 27.6973 27.1641 27.5257C26.8219 27.3542 26.5427 26.836 26.7746 26.3739C27.0065 25.9118 27.4057 25.6019 27.7479 25.7735C28.0901 25.945 28.3859 26.317 28.154 26.7791Z" fill="#253A4E"/>
  <path d="M34.6422 30.9812C34.4102 31.4433 33.9945 31.6394 33.6523 31.4679C33.31 31.2963 33.0308 30.73 33.2628 30.2679C33.4947 29.8058 34.0234 29.5773 34.3656 29.7489C34.7078 29.9204 34.875 30.5182 34.6422 30.9812Z" fill="#253A4E"/>
  <path d="M41.238 30.2057C40.9387 30.2232 40.6429 30.3134 40.3943 30.4823C39.9672 30.7738 39.2766 31.4145 39.0946 32.5383C38.7051 34.3632 40.4573 34.4358 40.6035 34.4358C40.7426 34.4358 42.4896 34.5461 43.1198 32.1663C43.21 31.8249 43.2196 31.4591 43.0892 31.1317C42.9045 30.6661 42.4328 30.134 41.238 30.2057Z" fill="#253A4E"/>
  <path d="M41.7272 31.1536C41.2265 31.0084 40.6734 31.2097 40.3539 31.621C40.2016 31.8171 40.0607 32.0849 39.9837 32.4446C39.7605 33.4914 40.7653 33.5335 40.8493 33.5335C40.9333 33.5335 42.0353 33.6035 42.3425 32.0123C42.3434 32.0114 42.3854 31.3445 41.7272 31.1536Z" fill="#FFFFFE"/>
  <path d="M52.2723 24.1639C51.4269 23.9608 50.5175 24.2575 49.9477 24.9149C49.6265 25.2851 49.3149 25.8172 49.1547 26.5673C48.7433 28.4955 50.5945 28.5725 50.7485 28.5725C50.8956 28.5725 52.7415 28.6889 53.4075 26.1752C53.5029 25.8146 53.5135 25.4286 53.3752 25.082C53.2316 24.7197 52.9244 24.3206 52.2723 24.1639Z" fill="#253A4E"/>
  <path d="M51.2677 25.2685C51.2677 25.2685 50.5001 25.5337 50.2769 26.5805C50.0537 27.6273 51.0585 27.6693 51.1425 27.6693C51.2265 27.6693 52.3285 27.7393 52.6357 26.1481C52.6357 26.1472 52.7057 25.0453 51.2677 25.2685Z" fill="#FFFFFE"/>
  <defs>
    <linearGradient id="paint0_linear_26_1207" x1="35.5" y1="36" x2="56.5" y2="16" gradientUnits="userSpaceOnUse">
      <stop stop-color="#EF5147"/>
      <stop offset="1" stop-color="#FBC82C"/>
    </linearGradient>
  </defs>
</svg>