<svg xmlns="http://www.w3.org/2000/svg" width="40" height="30" viewBox="0 0 40 30" fill="none">
  <path opacity="0.5" d="M14.1524 24.1255C14.1524 24.1255 8.92675 26.8888 10.8865 29.2005C10.8865 29.2005 12.8463 30.7078 16.1121 27.7938L29.8798 19.5029C29.8798 19.5029 32.2914 17.5431 30.5836 15.7846C30.5836 15.7846 28.3725 14.3273 25.2074 16.5383L14.1524 24.1255Z" fill="#CCCCCC"/>
  <path d="M8.21325 5.49614L16.1621 10.4584L20.7347 15.684L23.3188 27.0742C23.3823 27.3542 23.7009 27.4897 23.9468 27.3413L26.0087 26.0981C26.3871 25.8696 26.6292 25.4693 26.6557 25.0282L27.5175 10.7096L22.4932 5.28276L10.9464 3.42966C10.5241 3.36232 10.0936 3.47733 9.76216 3.74671L8.1845 5.02851C8.03089 5.15337 8.04603 5.39172 8.21325 5.49614Z" fill="url(#paint0_linear_26_1233)"/>
  <path d="M3.89418 20.016L0.370341 17.8556C-0.0571805 17.5931 -0.127551 16.9998 0.227329 16.645L1.07481 15.7975C1.27003 15.6023 1.55454 15.5251 1.82164 15.5955L7.12366 16.993C7.58751 17.1156 8.0801 16.9923 8.43044 16.6646C11.0644 14.2024 22.3911 3.79663 28.9757 0.659451C28.9757 0.659451 32.0909 -0.596628 36.7134 0.358296C36.7134 0.358296 41.0848 1.81565 38.6225 4.67967L29.5281 10.8095L17.8707 17.9949L8.97676 22.8187C8.97676 22.8187 7.21825 23.673 5.61031 22.9193C5.61031 22.9193 3.28808 22.0264 4.03265 20.4927C4.11588 20.3216 4.05535 20.1151 3.89418 20.016Z" fill="#242E3F"/>
  <path d="M5.91223 20.0553C5.91223 20.0553 4.55551 21.3621 5.51044 21.9145C5.51044 21.9145 6.31402 22.97 8.87688 21.9644L20.0817 15.4827L30.7342 8.95034L37.6071 4.44434C38.0921 4.12654 38.3743 3.57114 38.3312 2.99304C38.2911 2.45959 38.1557 1.89284 37.769 1.81566C37.769 1.81566 37.1659 1.4638 36.3116 2.36803C36.3116 2.36803 33.9501 4.77955 32.5434 4.93089C32.5434 4.93089 31.1368 4.72961 31.9403 3.92602C31.9403 3.92602 34.3519 2.5693 35.3575 2.01693C35.3575 2.01693 37.0154 1.1127 35.4581 1.01207C35.4581 1.01207 30.6457 0.264471 28.4551 1.83306C28.303 1.94202 28.1509 2.04947 27.9852 2.13649C27.0257 2.63967 23.1485 4.85219 16.1637 11.0615L5.91223 20.0553Z" fill="#F9F9F9"/>
  <defs>
    <linearGradient id="paint0_linear_26_1233" x1="9.5" y1="15" x2="36" y2="11.5" gradientUnits="userSpaceOnUse">
      <stop stop-color="#EF5147"/>
      <stop offset="1" stop-color="#FBC82C"/>
    </linearGradient>
  </defs>
</svg>