<svg xmlns="http://www.w3.org/2000/svg" width="42" height="47" viewBox="0 0 42 47" fill="none">
  <g filter="url(#filter0_d_26_1297)">
    <path opacity="0.55" d="M4.4899 28.1342L10.8823 23.5758L22.6665 27.3868L31.8125 32.5461L22.4169 38.2878C21.7044 38.723 20.8098 38.7309 20.0901 38.307L4.53399 29.1504C4.15566 28.9278 4.1322 28.3895 4.4899 28.1342Z" fill="#DAE2E9"/>
    <path d="M17.5065 0.696498L7.96162 7.63007C7.79735 7.74954 7.69921 7.93942 7.69708 8.14209L7.48516 26.0606C7.48231 26.2825 7.59965 26.488 7.79237 26.5982L17.8749 32.6258C18.0235 32.7147 18.2112 32.7012 18.3456 32.5924L23.1565 28.9919L29.7842 33.8056C29.962 33.9378 30.2045 33.9428 30.3873 33.8169L37.1353 29.2344C37.3991 29.0552 37.5562 28.7572 37.5562 28.4386L37.5356 16.2291C37.5349 15.9774 37.3998 15.7456 37.1815 15.6218L31.7491 12.539C31.3772 12.3278 30.9569 12.2169 30.5288 12.2169H29.4088C29.3675 12.2169 29.3348 12.1835 29.3348 12.1429V6.38274C29.3348 6.1566 29.2132 5.94824 29.0162 5.8373L18.7481 0.0593195C18.5831 -0.0338393 18.3776 -0.0160606 18.2311 0.104121L17.5065 0.696498Z" fill="#1A2630"/>
    <path d="M9.09867 8.24521L18.5938 1.13385C18.7346 1.0286 18.9244 1.01723 19.0766 1.10541L28.2339 6.41617C28.3384 6.47661 28.347 6.62453 28.2496 6.69636L18.8192 13.6591C18.6492 13.785 18.4209 13.7992 18.2368 13.6954L9.12143 8.59082C8.99129 8.51758 8.9792 8.33481 9.09867 8.24521Z" fill="white"/>
    <path d="M8.3606 9.095L8.53696 26.0677L18.3862 31.9161L18.6059 14.767L8.3606 9.095Z" fill="#FFFFF7"/>
    <path d="M9.59221 11.5136L9.50403 15.3829L12.7141 17.1415L12.8457 13.6242L9.59221 11.5136Z" fill="url(#paint0_linear_26_1297)"/>
    <path d="M14.0774 14.1519L13.901 18.0354L17.1111 19.7798L17.3308 15.7783L14.0774 14.1519Z" fill="#1D2E4C"/>
    <path d="M13.901 19.0324V22.7701L17.067 24.4406L17.1111 21.0548L13.901 19.0324Z" fill="#1D2E4C"/>
    <path d="M13.8135 23.8688L13.6813 27.6065L17.067 29.4974L17.1552 25.5841L13.8135 23.8688Z" fill="#1D2E4C"/>
    <path d="M9.46008 16.4382L9.50417 20.3075L12.6261 22.022L12.7142 18.2409L9.46008 16.4382Z" fill="#1D2E4C"/>
    <path d="M9.50403 21.2313L9.54812 25.0124L12.6259 26.771L12.7141 22.9017L9.50403 21.2313Z" fill="#1D2E4C"/>
    <path d="M23.6636 17.4751L23.7503 28.7935L30.1043 32.9928L30.302 20.5706L23.7646 17.4104C23.7183 17.3883 23.6636 17.4232 23.6636 17.4751Z" fill="white"/>
    <path d="M36.7236 17.2325L36.8538 28.5296L30.1044 32.9927L30.3021 20.5706L36.565 17.1386C36.6361 17.1009 36.7229 17.1514 36.7236 17.2325Z" fill="url(#paint1_linear_26_1297)"/>
    <path d="M18.6061 14.767L18.3864 31.9161L23.0912 28.3106L22.8772 16.5193C22.8736 16.3329 22.9689 16.1587 23.1275 16.0606L29.3357 12.2176V6.65652L18.6061 14.767Z" fill="#1F3749"/>
    <path d="M24.1898 16.7198C23.975 16.5918 23.975 16.2803 24.1905 16.1523L29.598 12.9423C29.8782 12.7759 30.2273 12.778 30.5054 12.9473L36.1803 16.3756C36.3239 16.4624 36.3211 16.6722 36.1746 16.7554L30.9655 19.6966C30.6007 19.9022 30.1541 19.8972 29.7943 19.6824L24.1898 16.7198Z" fill="white"/>
  </g>
  <defs>
    <filter id="filter0_d_26_1297" x="0.235352" y="0" width="41.3209" height="46.6196" filterUnits="userSpaceOnUse" color-interpolation-filters="sRGB">
      <feFlood flood-opacity="0" result="BackgroundImageFix"/>
      <feColorMatrix in="SourceAlpha" type="matrix" values="0 0 0 0 0 0 0 0 0 0 0 0 0 0 0 0 0 0 127 0" result="hardAlpha"/>
      <feOffset dy="4"/>
      <feGaussianBlur stdDeviation="2"/>
      <feComposite in2="hardAlpha" operator="out"/>
      <feColorMatrix type="matrix" values="0 0 0 0 0 0 0 0 0 0 0 0 0 0 0 0 0 0 0.25 0"/>
      <feBlend mode="normal" in2="BackgroundImageFix" result="effect1_dropShadow_26_1297"/>
      <feBlend mode="normal" in="SourceGraphic" in2="effect1_dropShadow_26_1297" result="shape"/>
    </filter>
    <linearGradient id="paint0_linear_26_1297" x1="8.87262" y1="15.647" x2="13.902" y2="13.4118" gradientUnits="userSpaceOnUse">
      <stop stop-color="#E94A46"/>
      <stop offset="1" stop-color="#FBC82C"/>
    </linearGradient>
    <linearGradient id="paint1_linear_26_1297" x1="29.5491" y1="34.6471" x2="38.4903" y2="16.7647" gradientUnits="userSpaceOnUse">
      <stop stop-color="#E94A46"/>
      <stop offset="1" stop-color="#FBC82C"/>
    </linearGradient>
  </defs>
</svg>