<svg version="1.2" xmlns="http://www.w3.org/2000/svg" viewBox="0 0 529 294" width="529" height="294"><defs><clipPath clipPathUnits="userSpaceOnUse" id="cp1"><path d="m528.68 428.01h-947.36v-634.02h947.36z"/></clipPath><clipPath clipPathUnits="userSpaceOnUse" id="cp2"><path d="m415.62 223h-224.74c-5.48 0-9.95-4.48-9.95-9.95v-123.37c0-5.47 4.47-9.95 9.95-9.95h224.74c5.48 0 9.95 4.48 9.95 9.95v123.37c0 5.47-4.47 9.95-9.95 9.95z"/></clipPath></defs><style>tspan{white-space:pre}.a{fill:#929799}.b{fill:#b9b9b9}.c{fill:#f0f0f0}.d{fill:#fbfbfb}.e{fill:#252728}.f{fill:#e6e6e6}.g{fill:#fe4800}.h{fill:#72787a}.i{fill:#feac00}.j{fill:#fefefe}.k{opacity:.3;fill:#a5a1a9}.l{font-size: 12px;fill: #ffffff;font-weight: 700;font-family: "Montserrat-Bold", "Montserrat"}.m{font-size: 7px;fill: #ffffff;font-weight: 700;font-family: "Montserrat-Bold", "Montserrat"}.n{fill:none;stroke:#252728;stroke-miterlimit:10;stroke-width:2}</style><g clip-path="url(#cp1)"><g style="opacity:.1"><path class="a" d="m538.6 281c0 6.9-120.6 12.5-269.3 12.5-148.8 0-269.3-5.6-269.3-12.5 0-6.8 120.5-12.4 269.3-12.4 148.7 0 269.3 5.6 269.3 12.4z"/></g><path class="b" d="m324 244.8q0.8 5.7 1.9 11.7 0.9 5.2 1.9 10.1-22.2 4.6-44.4 9.3 1.5-15.5 3-30.9c4.3-1.1 9.6-2 15.6-2.3 8.9-0.4 16.4 0.8 22 2.1z"/><path class="c" d="m285.5 253.8q14.5 4.2 29.1 8.7 6.7 2 13.2 4.1 0.5 3.2 1 6.4c0.1 2.7-1.5 2.9-3.6 2.9-13.9-0.1-27.8 0-41.7 0q1-11.1 2-22.1z"/><path class="d" d="m419.4 246.1h-231.4c-2.6 0-4.8-2.2-4.8-4.9v-30.3c0-2.6 2.2-4.8 4.8-4.8h231.4c2.7 0 4.9 2.2 4.9 4.8v30.3c0 2.7-2.2 4.9-4.9 4.9z"/><g clip-path="url(#cp2)"><path class="e" d="m416 222.8h-224.7c-5.5 0-10-4.4-10-9.9v-123.4c0-5.4 4.5-9.9 10-9.9h224.7c5.5 0 10 4.5 10 9.9v123.4c0 5.5-4.5 9.9-10 9.9z"/><path class="f" d="m440.3 143.7l-137.7 42.3-6.2-20.1 137.7-42.3z"/><path class="g" d="m330.9 175.8c0.9-1.8 1.8-3.5 2.7-5.2q4.1-8.2 8.1-16.4c0.5-1 1.1-1.6 2.5-2 4.3-1.2 13.4-4.2 13.6-4 0.2 0.1 0 0.3-0.1 0.5q-3.1 6.1-6.1 12.1-2.5 4.9-4.9 9.7c-0.1 0.4-0.3 0.7-0.8 0.8q-7.3 2.2-14.5 4.5c-0.1 0-0.2 0-0.5 0z"/><path class="g" d="m355.5 168.3c1-1.9 1.8-3.6 2.7-5.3q4.1-8.2 8.2-16.4c0.5-1 1.1-1.6 2.5-2 4.3-1.2 8.5-2.6 12.8-3.9 0.3-0.1 0.6-0.3 0.8-0.1 0.1 0.1-0.1 0.3-0.2 0.5q-3 6.1-6.1 12.2-2.4 4.8-4.8 9.7c-0.2 0.3-0.3 0.6-0.9 0.7q-7.2 2.3-14.5 4.5c-0.1 0-0.2 0-0.5 0.1z"/><path class="g" d="m380.2 160.7c0.9-1.9 1.8-3.6 2.7-5.3q4.1-8.2 8.2-16.4c0.4-1 1-1.6 2.4-2 4.3-1.2 8.6-2.6 12.9-3.9 0.2-0.1 0.5-0.3 0.7-0.1 0.2 0.1 0 0.4-0.1 0.6q-3.1 6-6.1 12.1-2.4 4.8-4.9 9.7c-0.1 0.3-0.3 0.6-0.8 0.8q-7.3 2.2-14.5 4.4c-0.1 0-0.2 0-0.5 0.1z"/><path class="g" d="m404.9 153.1c0.9-1.8 1.8-3.6 2.6-5.3q4.1-8.2 8.2-16.4c0.5-1 1.1-1.6 2.5-2 4.3-1.2 8.5-2.6 12.8-3.9 0.3 0 0.6-0.3 0.8-0.1 0.1 0.1-0.1 0.4-0.2 0.6q-3 6-6.1 12.1-2.4 4.8-4.8 9.7c-0.2 0.3-0.3 0.6-0.9 0.8q-7.2 2.2-14.5 4.4c-0.1 0-0.2 0.1-0.4 0.1z"/><path class="f" d="m315.8 182.1l-137.7 42.3-6.2-20.1 137.7-42.3z"/><path class="g" d="m181.7 221.9c0.9-1.9 1.8-3.6 2.7-5.3q4.1-8.2 8.2-16.4c0.5-1 1.1-1.6 2.5-2 4.3-1.2 8.5-2.6 12.8-3.9 0.2-0.1 0.6-0.3 0.8-0.1 0.1 0.1-0.1 0.3-0.2 0.5q-3.1 6.1-6.1 12.2-2.4 4.8-4.8 9.7c-0.2 0.3-0.4 0.6-0.9 0.7q-7.3 2.3-14.5 4.5c-0.1 0-0.2 0-0.5 0.1z"/><path class="g" d="m206.4 214.3c0.9-1.9 1.8-3.6 2.6-5.3q4.2-8.2 8.2-16.4c0.5-1 1.1-1.6 2.5-2 4.3-1.2 8.6-2.6 12.8-3.9 0.3-0.1 0.6-0.3 0.8-0.1 0.1 0.1 0 0.4-0.1 0.6q-3.1 6-6.1 12.1-2.5 4.8-4.9 9.7c-0.2 0.3-0.3 0.6-0.9 0.8q-7.2 2.2-14.5 4.4c0 0-0.1 0-0.4 0.1z"/><path class="g" d="m231 206.7c1-1.8 1.8-3.6 2.7-5.3q4.1-8.2 8.2-16.4c0.5-1 1.1-1.6 2.5-2 4.3-1.2 8.5-2.6 12.8-3.9 0.2 0 0.6-0.3 0.8-0.1 0.1 0.1-0.1 0.4-0.2 0.6q-3 6-6.1 12.1-2.4 4.8-4.8 9.7c-0.2 0.3-0.4 0.6-0.9 0.8q-7.3 2.2-14.5 4.4c-0.1 0-0.2 0.1-0.5 0.1z"/><path class="g" d="m255.7 199.1c0.9-1.8 1.8-3.5 2.7-5.3q4.1-8.2 8.1-16.4c0.5-0.9 1.1-1.5 2.5-1.9 4.3-1.3 8.6-2.6 12.8-3.9 0.3-0.1 0.6-0.4 0.8-0.2 0.2 0.2 0 0.4-0.1 0.6q-3.1 6.1-6.1 12.1-2.5 4.9-4.9 9.7c-0.1 0.3-0.3 0.6-0.9 0.8q-7.2 2.2-14.4 4.4c-0.1 0.1-0.2 0.1-0.5 0.1z"/><path class="g" d="m280.3 191.5c1-1.8 1.8-3.5 2.7-5.3q4.1-8.1 8.2-16.3c0.5-1 1.1-1.6 2.5-2 4.3-1.3 13.4-4.2 13.6-4.1 0.1 0.2-0.1 0.4-0.2 0.6q-3 6.1-6.1 12.1-2.4 4.9-4.8 9.7c-0.2 0.3-0.3 0.6-0.9 0.8q-7.2 2.2-14.5 4.5c-0.1 0-0.2 0-0.5 0z"/><path class="g" d="m306.2 183.4c1-1.8 1.8-3.5 2.7-5.3q4.1-8.1 8.2-16.3c0.5-1 1.1-1.6 2.5-2 4.3-1.3 13.4-4.2 13.6-4.1 0.1 0.2-0.1 0.4-0.2 0.6q-3 6.1-6.1 12.1-2.4 4.9-4.8 9.7c-0.2 0.3-0.3 0.6-0.9 0.8q-7.3 2.2-14.5 4.5c-0.1 0-0.2 0-0.5 0z"/><path class="f" d="m426.1 226.8l-141-29.7 4.3-20.6 141 29.7z"/><path class="g" d="m314.8 201.9c1.7-1.2 3.3-2.2 4.9-3.3q7.6-5.2 15.1-10.4c0.9-0.6 1.7-0.9 3.1-0.5 4.4 1 13.8 2.8 13.9 3 0 0.2-0.2 0.3-0.4 0.5q-5.6 3.8-11.2 7.6-4.5 3.1-9 6.1c-0.3 0.2-0.6 0.4-1.1 0.3q-7.4-1.6-14.9-3.1c0-0.1-0.1-0.1-0.4-0.2z"/><path class="g" d="m340 207.2c1.7-1.1 3.3-2.2 4.9-3.3q7.6-5.2 15.1-10.4c0.9-0.6 1.8-0.8 3.2-0.5 4.3 1 8.7 1.9 13.1 2.8 0.2 0.1 0.6 0 0.7 0.3 0.1 0.2-0.2 0.3-0.4 0.4q-5.6 3.8-11.2 7.6-4.5 3.1-8.9 6.2c-0.3 0.2-0.6 0.3-1.2 0.2q-7.4-1.6-14.8-3.1c-0.1 0-0.2-0.1-0.5-0.2z"/><path class="g" d="m365.3 212.5c1.7-1.1 3.3-2.2 4.9-3.3q7.5-5.2 15.1-10.4c0.9-0.6 1.7-0.8 3.1-0.5 4.4 1 8.7 1.9 13.1 2.8 0.3 0.1 0.7 0 0.8 0.3 0 0.2-0.3 0.3-0.4 0.4q-5.7 3.8-11.3 7.7-4.4 3-8.9 6.1c-0.3 0.2-0.6 0.4-1.2 0.2q-7.4-1.5-14.8-3.1c-0.1 0-0.2-0.1-0.4-0.2z"/><path class="g" d="m390.5 217.9c1.7-1.2 3.3-2.3 4.9-3.4q7.6-5.1 15.1-10.3c0.9-0.6 1.7-0.9 3.2-0.6 4.3 1.1 8.7 1.9 13.1 2.8 0.2 0.1 0.6 0.1 0.7 0.3 0.1 0.2-0.2 0.3-0.4 0.4q-5.6 3.9-11.2 7.7-4.5 3-9 6.1c-0.3 0.2-0.5 0.4-1.1 0.3q-7.4-1.6-14.8-3.2c-0.1 0-0.2 0-0.5-0.1z"/><path class="f" d="m298.6 200l-141-29.7 4.3-20.6 141 29.7z"/><path class="g" d="m162 169.8c1.7-1.2 3.3-2.2 4.9-3.3q7.6-5.2 15.1-10.4c0.9-0.6 1.8-0.9 3.2-0.5 4.3 1 8.7 1.8 13.1 2.8 0.2 0 0.6 0 0.7 0.2 0.1 0.2-0.2 0.3-0.4 0.5q-5.6 3.8-11.2 7.6-4.5 3.1-9 6.1c-0.3 0.2-0.5 0.4-1.1 0.3q-7.4-1.6-14.8-3.1c-0.1-0.1-0.2-0.1-0.5-0.2z"/><path class="g" d="m187.3 175.1c1.7-1.1 3.3-2.2 4.9-3.3q7.5-5.2 15.1-10.4c0.9-0.6 1.7-0.8 3.1-0.5 4.3 1 8.7 1.9 13.1 2.8 0.3 0.1 0.7 0 0.7 0.3 0.1 0.2-0.2 0.3-0.4 0.4q-5.6 3.8-11.2 7.6-4.4 3.1-8.9 6.2c-0.3 0.2-0.6 0.3-1.2 0.2q-7.4-1.6-14.8-3.1c-0.1 0-0.2-0.1-0.4-0.2z"/><path class="g" d="m212.5 180.4c1.7-1.1 3.3-2.2 4.9-3.3q7.6-5.2 15.1-10.4c0.9-0.6 1.7-0.8 3.1-0.5 4.4 1 8.8 1.9 13.1 2.8 0.3 0.1 0.7 0 0.8 0.3 0 0.2-0.2 0.3-0.4 0.4q-5.6 3.8-11.2 7.7-4.5 3-9 6.1c-0.3 0.2-0.6 0.4-1.1 0.2q-7.4-1.5-14.9-3.1c0 0-0.1-0.1-0.4-0.2z"/><path class="g" d="m237.7 185.8c1.7-1.2 3.3-2.3 4.9-3.4q7.6-5.1 15.1-10.3c0.9-0.6 1.8-0.9 3.2-0.6 4.3 1.1 8.7 1.9 13.1 2.8 0.2 0.1 0.6 0.1 0.7 0.3 0.1 0.2-0.2 0.3-0.4 0.4q-5.6 3.9-11.2 7.7-4.5 3-8.9 6.1c-0.3 0.2-0.6 0.4-1.2 0.3q-7.4-1.6-14.8-3.2c-0.1 0-0.2 0-0.5-0.1z"/><path class="g" d="m263 191.1c1.7-1.2 3.3-2.2 4.9-3.3q7.6-5.2 15.1-10.4c0.9-0.6 1.7-0.9 3.1-0.5 4.4 1 13.8 2.8 13.9 3 0 0.2-0.3 0.3-0.4 0.5q-5.7 3.8-11.3 7.6-4.4 3.1-8.9 6.1c-0.3 0.2-0.6 0.4-1.1 0.3q-7.5-1.6-14.9-3.1c-0.1-0.1-0.1-0.1-0.4-0.2z"/><path class="g" d="m289.6 196.6c1.7-1.2 3.3-2.3 4.9-3.4q7.5-5.1 15.1-10.3c0.9-0.7 1.7-0.9 3.1-0.6 4.3 1.1 13.7 2.9 13.8 3.1 0.1 0.2-0.2 0.3-0.4 0.4q-5.6 3.8-11.2 7.7-4.5 3-8.9 6.1c-0.3 0.2-0.6 0.4-1.2 0.3q-7.4-1.6-14.8-3.2c-0.1 0-0.2 0-0.4-0.1z"/><path class="f" d="m441.1 194.9l-144.1 3.4-0.5-21 144.1-3.5z"/><path class="g" d="m327 196.2c1.4-1.5 2.7-3 4-4.4q6.2-6.8 12.4-13.5c0.7-0.9 1.5-1.3 2.9-1.3 4.5 0 14-0.4 14.2-0.2 0.1 0.2-0.2 0.4-0.3 0.5q-4.6 5-9.2 10-3.6 4.1-7.3 8.1c-0.2 0.2-0.5 0.5-1 0.5q-7.6 0.1-15.2 0.3c-0.1 0-0.2 0-0.5 0z"/><path class="g" d="m352.8 195.6c1.4-1.5 2.7-3 4-4.4q6.2-6.8 12.4-13.6c0.7-0.8 1.4-1.2 2.9-1.2 4.4 0 8.9-0.2 13.4-0.3 0.2 0 0.6-0.1 0.8 0.1 0.1 0.2-0.2 0.4-0.3 0.5q-4.6 5-9.2 10-3.6 4-7.3 8c-0.2 0.3-0.5 0.6-1 0.6q-7.6 0.1-15.2 0.3c-0.1 0-0.2 0-0.5 0z"/><path class="g" d="m378.6 195c1.4-1.6 2.7-3 4-4.4q6.2-6.8 12.3-13.6c0.8-0.8 1.5-1.2 3-1.2 4.4 0 8.9-0.2 13.4-0.3 0.2 0 0.6-0.1 0.7 0.1 0.1 0.2-0.1 0.4-0.2 0.5q-4.6 5-9.2 10-3.7 4-7.3 8c-0.2 0.3-0.5 0.6-1.1 0.6q-7.5 0.1-15.1 0.3c-0.1 0-0.2 0-0.5 0z"/><path class="g" d="m404.4 194.3c1.4-1.5 2.7-2.9 4-4.3q6.2-6.8 12.3-13.6c0.8-0.8 1.5-1.2 3-1.2 4.4 0 8.9-0.2 13.4-0.3 0.2 0 0.6-0.1 0.7 0.1 0.1 0.2-0.1 0.3-0.3 0.5q-4.5 5-9.1 10-3.7 4-7.3 8c-0.3 0.3-0.5 0.5-1.1 0.6q-7.5 0.1-15.1 0.3c-0.1 0-0.2 0-0.5-0.1z"/><path class="f" d="m310.8 198.1l-144 3.4-0.5-21 144-3.4z"/><path class="g" d="m171 200c1.4-1.5 2.7-2.9 4-4.4q6.2-6.7 12.3-13.5c0.7-0.8 1.5-1.3 2.9-1.3 4.5 0 9-0.1 13.4-0.2 0.3 0 0.7-0.2 0.8 0.1 0.1 0.1-0.1 0.3-0.3 0.5q-4.6 5-9.1 10-3.7 4-7.3 8c-0.3 0.2-0.5 0.5-1.1 0.5q-7.6 0.2-15.1 0.3c-0.1 0.1-0.2 0-0.5 0z"/><path class="g" d="m196.8 199.4c1.4-1.5 2.7-3 4-4.4q6.2-6.7 12.3-13.5c0.7-0.8 1.5-1.3 2.9-1.3 4.5 0 9-0.1 13.4-0.2 0.3-0.1 0.7-0.2 0.8 0 0.1 0.2-0.1 0.4-0.3 0.5q-4.6 5-9.2 10.1-3.6 4-7.3 8c-0.2 0.2-0.4 0.5-1 0.5q-7.6 0.2-15.2 0.3c-0.1 0-0.1 0-0.4 0z"/><path class="g" d="m222.6 198.8c1.3-1.5 2.7-3 4-4.4q6.1-6.8 12.3-13.5c0.7-0.9 1.5-1.3 2.9-1.3 4.5 0 8.9-0.2 13.4-0.3 0.3 0 0.6-0.1 0.8 0.1 0.1 0.2-0.2 0.4-0.3 0.5q-4.6 5-9.2 10-3.6 4.1-7.3 8.1c-0.2 0.2-0.4 0.5-1 0.5q-7.6 0.1-15.2 0.3c-0.1 0-0.2 0-0.4 0z"/><path class="g" d="m248.3 198.2c1.4-1.5 2.7-3 4-4.4q6.2-6.8 12.4-13.6c0.7-0.8 1.5-1.2 2.9-1.2 4.5 0 8.9-0.2 13.4-0.3 0.3 0 0.6-0.1 0.8 0.1 0.1 0.2-0.2 0.4-0.3 0.5q-4.6 5-9.2 10-3.6 4-7.3 8c-0.2 0.3-0.5 0.6-1 0.6q-7.6 0.1-15.2 0.3c-0.1 0-0.2 0-0.5 0z"/><path class="g" d="m274.1 197.6c1.4-1.6 2.7-3 4-4.4q6.2-6.8 12.4-13.6c0.7-0.8 1.4-1.2 2.9-1.2 4.5 0 14-0.4 14.2-0.2 0.1 0.2-0.2 0.4-0.3 0.5q-4.6 5-9.2 10-3.6 4-7.3 8c-0.2 0.3-0.5 0.6-1 0.6q-7.6 0.1-15.2 0.3c-0.1 0-0.2 0-0.5 0z"/><path class="g" d="m301.2 196.8c1.4-1.5 2.8-3 4.1-4.4q6.1-6.7 12.3-13.5c0.7-0.8 1.5-1.3 2.9-1.3 4.5 0 14-0.4 14.2-0.2 0.1 0.2-0.2 0.4-0.3 0.5q-4.6 5-9.2 10.1-3.6 4-7.3 8c-0.2 0.2-0.4 0.5-1 0.5q-7.6 0.2-15.2 0.3c-0.1 0-0.2 0-0.5 0z"/></g><path class="a" d="m182.4 49.1v46.8h7.9v-48.4z"/><path class="a" d="m258 32.6c-1.2-0.3-2.4-0.4-3.4-1.2-0.4-1.6-1.9-2.1-3.1-2.9-6.9-4.8-8.9-10.9-6.2-18.6 0.6-1.4 1.8-2.6 1.2-4.3-1.5-1.1-2.9-0.2-4.2 0.4-9.4 3.9-18.3 8.8-27.5 13-7.4 3.5-14.7 7.3-22.2 10.6-1.9 0.8-3.8 1.7-4.2 4 0.1 1.6 1.5 2.3 2.7 3.1 2.7 1.7 4.1 4 3.9 7.2-0.2 2-0.7 4.2 1.2 5.9 3.7-0.9 7.3-1.7 11-2.7 5.7-1.6 11.5-3.3 17.3-5 6.4-1.8 12.9-3.6 19.4-5.4 4.7-1.3 9.4-2.7 14.1-4.1z"/><path fill-rule="evenodd" class="a" d="m433.9 63.3l136.8 166.6-40.3 24.5-121.4-174.7zm2.2 13l-2-1.2-0.8 2-3 17.5 1.6 3.1 22 2.3 0.3-0.9zm77.2 96.8l-18.1-22.4-2.1 0.6-6.6 21.5 2 2.8 23.8-0.4zm29.3 37l-4.9-5.7-14.3-17.8-7.9 22.8 4 5 21.4-1.3zm-21.1 16l13.7 18.9 3.7-0.7 8.4-21.4-3.1-4.2-23.1 1.2-1.6 2.8zm-14.1-20.2l2.2 1.6 1.1-2.3 7.5-21.4-2.3-3.1-22.4 0.5-2.5 0.8 0.7 2.5zm-42.8-60l0.9 1.4h0.1l12.8 18.6 3.1 2.2 1.5-3.1 5.3-18.5-2.8-3.6-19-0.4-2.9 0.5zm-3.9-9.1l15.5 0.5 5.5 0.2 1.2-2.5-17.1-21.4-1.7-1-0.9 1.7-4.9 19.4zm-22.3-27.7l11.9 17 3.3 3.6 5.3-22.3-3.3-2.2-14.1-1.1-6.1-0.2zm-19.7-27l4.7 6.7 1.8 1.1 1-1.6 2.1-11.9-2.1-1.1-6.6 3.9z"/><path fill-rule="evenodd" class="a" d="m376.3 42.5l6.9 13.2 4.1 0.9 9.2-6.2-6.6 15.2-134.8-35.4 11.6-26.3 49 13.1 86.5 20.3-4 9.2-15.5-4.3-5-1.3-1.6 0.1zm-101.2-15.3l12.1-7.5 1.6-2-2.2-1.3-18.6-4.7-1.9-0.2 0.2 2.1 2.6 6h0.1l2.9 6.7zm21.7-6.4l-2.7-0.6-13.2 8.4-0.9 1.2 1.3 0.9 20.9 5.7 1.4-1.5zm15.4 16.5l14.1-10-14.2-4.1-7.3-2-2 1.8 6 13.3zm27.3 4.2l-5-10-3.8-1.2-12.2 7.4 0.7 3.1 18.9 5.1 2.2-0.3zm9.7 5.2l12.7-7.8-0.5-2.5-20.3-5.4-1.1 1.6 2.8 6.4 0.2-0.1 2.7 6.3zm27.7 6.1l-5.9-12.1-2.7-0.7-12.8 8.3-1.2 1.1 1.4 1.2 20 5.4 1.8-0.3z"/><path class="h" d="m433.8 56.8c0 14-12 25.3-26.7 25.3-14.8 0-26.7-11.3-26.7-25.3 0-14 11.9-25.3 26.7-25.3 14.7 0 26.7 11.3 26.7 25.3z"/><path class="h" d="m276.6 18.8c0 10.4-9 18.9-20 18.9-11 0-19.9-8.5-19.9-18.9 0-10.4 8.9-18.8 19.9-18.8 11 0 20 8.4 20 18.8z"/><path class="h" d="m202.5 44c0 6.7-5.8 12.1-12.9 12.1-7.1 0-12.8-5.4-12.8-12.1 0-6.7 5.7-12.2 12.8-12.2 7.1 0 12.9 5.5 12.9 12.2z"/><path class="i" d="m491.4 279.1c-0.5-0.5-1.1-0.6-1.7-0.1-0.4 0-0.7 0.2-1 0.2q-2.7 0-5.4 0c-3.4 0-3.3 0-4-3.5-0.8-4.1-1.9-8.2-3.1-12.3-0.3-0.4-0.7-0.5-1.2-0.5-4.1 0-8.1 0.1-12.2 0.1-0.5 0-1 0.1-1.4 0.6-0.3-0.7-0.9-0.6-1.4-0.5-0.6 0.1-1.1 0-1.6-0.1-0.7-0.1-1.4 0.1-2.1 0.1-3.8 0-7.7 0.1-11.5 0.1-0.6 0-1.2-0.1-1.7 0.5q-1.6 7.4-3.2 14.8c-0.2 0.8-0.4 1.2-1.4 1.2-3 0-6.1 0.1-9.1 0.1-1.4 0-0.8 1-1 1.6-0.2 0.9 0.5 0.8 1 0.8 1.6 0 3.2-0.1 4.8-0.1q4.5 0 9-0.1c3 0 6.1 0 9.2-0.1 2.5 0 5 0.1 7.5-0.2 0.3 0.1 0.7 0.2 1 0.2 4.7-0.1 9.4-0.2 14-0.2 4.7-0.1 9.4 0 14.1-0.2 0.8 0 1.8 0.4 2.5-0.4 0.3-0.7 0.5-1.4-0.1-2z"/><path class="j" d="m474.7 256.7q-1.4-6.8-3.3-13.4c-0.4-0.5-23.2-0.4-23.9 0.2q-2.2 10.1-4.4 20.2c0.3 0 29.4-0.3 33.1-0.3 0-2.3-1-4.5-1.5-6.7z"/><path class="i" d="m469.6 235.8c-0.8-4.6-2.4-8.9-3.2-13.5-0.4-2.4-0.5-2.5-2.9-2.5-1.4-0.1-2.9-0.2-4.3 0.1q0 0 0 0 0 0 0 0c-1.5-0.1-3-0.2-4.5-0.1-1.9 0-1.9 0.1-2.4 2.1 0 0.2-0.2 0.5-0.2 0.8q-2.3 10.4-4.6 20.8c4 0 19.9-0.2 23.9-0.2-0.2-2.6-1.3-5-1.8-7.5z"/><path class="k" d="m445.1 253.6l1.1-6.6 33.1 28.7z"/><path class="i" d="m398.2 282.3c0.6-0.3 1-0.8 0.8-1.6 0.1-0.3 0.1-0.7 0.2-1q1-2.5 2-4.9c1.3-3.2 1.3-3.1 4.7-2.4 4.2 0.8 8.4 1.3 12.6 1.8 0.5-0.2 0.7-0.5 0.9-1 1.6-3.7 3-7.5 4.5-11.3 0.2-0.5 0.3-1 0-1.5 0.7-0.1 0.9-0.6 1-1.1 0.1-0.6 0.4-1.1 0.7-1.5 0.4-0.6 0.4-1.3 0.6-1.9 1.5-3.6 2.9-7.2 4.3-10.8 0.3-0.5 0.6-1.1 0.2-1.7q-6.2-4.3-12.5-8.6c-0.7-0.5-0.9-0.8-0.6-1.7 1.2-2.8 2.2-5.7 3.3-8.5 0.6-1.3-0.6-1.1-1.1-1.5-0.7-0.5-0.9 0.1-1.1 0.6-0.6 1.5-1.1 3-1.7 4.5q-1.6 4.2-3.3 8.3c-1.1 2.9-2.3 5.7-3.4 8.6-0.9 2.3-2 4.6-2.6 7-0.2 0.3-0.4 0.6-0.5 0.9-1.8 4.4-3.4 8.7-5.2 13.1-1.7 4.3-3.5 8.6-5.1 13-0.3 0.8-1.1 1.6-0.6 2.5 0.5 0.6 1.1 1 1.9 0.7z"/><path class="j" d="m425.3 275.3q6.8 1.2 13.6 2c0.6-0.2 9.1-21.4 8.8-22.2q-8.5-5.8-17-11.7c-0.1 0.3-10.8 27.3-12.2 30.8 2.2 0.8 4.5 0.7 6.8 1.1z"/><path class="i" d="m446.6 278.4c4.5 1 9.1 1.2 13.6 2.2 2.4 0.5 2.6 0.4 3.5-1.7 0.6-1.4 1.2-2.6 1.5-4.1q0 0 0 0 0 0 0 0c0.6-1.3 1.3-2.7 1.8-4.1 0.7-1.8 0.6-1.8-1-3-0.3-0.1-0.5-0.4-0.7-0.6q-8.8-6-17.6-12c-1.5 3.6-7.3 18.5-8.8 22.2 2.5 0.8 5.1 0.6 7.7 1.1z"/><path class="h" d="m362.5 278.6h-3.8l-27.3-110.7h3.8z"/><path class="h" d="m345.6 278.6h-3.8l-27.3-110.7h3.8z"/><path class="h" d="m336 180.3h-15.2l-0.8-3h15.2z"/><path class="h" d="m338.7 193.2h-15.2l-0.7-3h15.2z"/><path class="h" d="m341 206.1h-15.3l-0.7-2.9h15.2z"/><path class="h" d="m346 219h-15.2l-0.8-2.9h15.2z"/><path class="h" d="m348.7 231.9h-15.2l-0.7-2.9h15.2z"/><path class="h" d="m351 244.8h-15.3l-0.7-2.9h15.2z"/><path class="h" d="m354.4 257.8h-15.2l-0.8-3h15.2z"/><path class="h" d="m357.1 270.7h-15.2l-0.7-3h15.2z"/><path class="a" d="m182.9 126.4q-4.1 0-8.1 0c-0.5-1.3-0.8-2.5-1-3.9-1.1-6.9 2.3-11.8 8.5-15.1 0.2-0.1 0.4-0.3 0.6-0.4 0.3-1.1 0.1-2.2 0.1-3.3q0.1-2.3 0-4.5c0-0.5 0.1-0.8 0.6-0.9 1.8-0.1 3.7-0.1 5.5 0.1 0.1 0 0.2 0.1 0.3 0.2q0 5.8 0 11.7c0 0.6-0.1 0.8-0.8 0.9-2.9 0.6-5.3 2-6.8 4.5-1.6 2.8-2.1 7.2 0.3 9.8q0.4 0.4 0.8 0.9z"/><path class="a" d="m204.7 75h-39.5c-0.8 0.6-1.4 1.5-1.3 2.4 0.2 1 3.6 17.3 3.9 18.8 0.2 1.2 0.9 2 2.1 2.4q0.4 0.3 1 0.3c3.9-0.1 7.8 0.1 11.7 0.2 1.5 0.1 3 0 4.5 0.1 3.9 0.1 7.8-0.5 11.7-0.3q0.5 0 1-0.2c1.4-0.4 2-1.5 2.3-2.8 0.5-3 3.9-19 3.5-19.8q-0.4-0.7-0.9-1.1z"/><path class="i" d="m188.7 256.4l-59.2-40.7c-10.8-7.5-13.6-22.5-6.1-33.4l40.7-59.2c7.5-10.9 22.5-13.7 33.4-6.2l59.2 40.8c10.9 7.5 13.7 22.5 6.2 33.4l-40.8 59.2c-7.5 10.8-22.5 13.6-33.4 6.1z"/><text style="transform:matrix(1.955,-0.422,.471,1.944,190.668,182.31)" ><tspan x="-23.2" y="0" class="l">c</tspan><tspan  y="0" class="l">o</tspan><tspan  y="0" class="l">m</tspan><tspan  y="0" class="l">i</tspan><tspan  y="0" class="l">n</tspan><tspan  y="0" class="l">g</tspan><tspan  y="0" class="l">
</tspan><tspan x="-8.8" y="8.3" class="m">s</tspan><tspan  y="8.3" class="m">o</tspan><tspan  y="8.3" class="m">o</tspan><tspan  y="8.3" class="m">n</tspan><tspan  y="8.3" class="m">
</tspan></text><path class="n" d="m187.6 250.5l-52.1-35.9c-10.9-7.5-13.7-22.5-6.2-33.4l35.9-52.2c7.5-10.9 22.5-13.6 33.4-6.2l52.2 36c10.9 7.5 13.6 22.5 6.1 33.4l-35.9 52.1c-7.5 10.9-22.5 13.7-33.4 6.2z"/><path class="h" d="m194.8 113.3c0 0 0 0 0 0z"/><path class="h" d="m202.2 118.5c-0.1-0.6-0.3-1.1-0.3-1.7 0.1-1-0.2-2-0.8-2.8q-0.1-0.1-0.1-0.1c-0.2-0.6-0.6-1.2-1.1-1.6q0-0.1 0-0.2c-1.3-1-4.4-0.3-5 1.2q-0.1 0-0.1 0 0 0 0 0.1c-0.3 0.9-0.3 1.8 0.1 2.7 0.5 0.7 0.6 1.6 0.8 2.4 0.8 3.1 0.2 5.8-2.4 7.9q-1.1 1.3-2.7 1.8c-0.8 0.3-1.6 0.2-2.3 0.5-1.5 0-1.6 1-1.7 2 0 0.5 0 0.9 0 1.4 0.2 1.1 0.8 2 2 2.2 1.6 0.1 3.3 0 4.8-1 0.9-0.4 1.9-0.8 2.8-1.4 2.3-1.3 3.8-3.2 5-5.4 0.1-0.2 0.1-0.3 0.1-0.4 1.1-2.5 1-5.1 0.9-7.6z"/><path class="h" d="m124.9 283.4l-0.8 0.2c-3.8 1-7.8-1.2-8.8-5l-16.6-60.1c-1.1-3.8 1.2-7.8 4.9-8.8l0.8-0.2c3.8-1.1 7.8 1.2 8.8 4.9l16.7 60.2c1 3.8-1.2 7.7-5 8.8z"/><path class="h" d="m49.6 282.4l-0.8 0.2c-3.8 1.1-7.7-1.2-8.8-5l-16.6-60.1c-1-3.8 1.2-7.7 5-8.8l0.8-0.2c3.8-1.1 7.7 1.2 8.8 5l16.6 60.1c1.1 3.8-1.2 7.7-5 8.8z"/><path class="a" d="m9.6 284l-0.8-0.2c-3.7-1.1-5.9-5.1-4.8-8.9l19.5-66.5c1.1-3.7 5.1-5.9 8.9-4.8l0.7 0.2c3.8 1.1 6 5.1 4.9 8.9l-19.5 66.5c-1.1 3.8-5.1 5.9-8.9 4.8z"/><path class="a" d="m83.3 286.4l-0.8-0.2c-3.8-1.1-5.9-5.1-4.8-8.9l19.4-66.5c1.2-3.7 5.1-5.9 8.9-4.8l0.8 0.2c3.8 1.1 6 5.1 4.9 8.9l-19.5 66.5c-1.1 3.8-5.1 5.9-8.9 4.8z"/><path class="a" d="m35.6 210.9h-9.9c-1.8 0-3.3-1.5-3.3-3.4v-0.3c0-1.9 1.5-3.4 3.3-3.4h9.9c1.8 0 3.3 1.5 3.3 3.4v0.3c0 1.9-1.5 3.4-3.3 3.4z"/><path class="a" d="m30.8 206.8h-0.3c-1.2 0-2.1-1-2.1-2.1v-5.6c0-1.1 0.9-2.1 2.1-2.1h0.3c1.1 0 2.1 1 2.1 2.1v5.6c0 1.1-1 2.1-2.1 2.1z"/><path class="a" d="m38.2 191.6c0 4.4-3.5 8-7.9 8-4.4 0-8-3.6-8-8 0-4.4 3.6-8 8-8 4.4 0 7.9 3.6 7.9 8z"/><path class="i" d="m36.7 191.6c0 3.6-2.9 6.4-6.4 6.4-3.6 0-6.4-2.8-6.4-6.4 0-3.5 2.8-6.4 6.4-6.4 3.5 0 6.4 2.9 6.4 6.4z"/><path class="g" d="m21.9 243.6c-5.1-0.2-10.3-0.2-15.5-0.1l-3.1 11.9q1.6-0.9 3.1-1.9c4.9-2.9 9.8-5.9 14.6-8.9 0.5-0.3 1.1-0.5 0.9-1z"/><path class="g" d="m107.3 243.8q-4-0.1-8 0c-0.6 0.1-1.1 0.4-1.5 0.7q-12.5 7.6-24.9 15.2c-0.5 0.3-1.1 0.5-1.2 1.1 5.6 0.1 11.2 0.2 16.8 0q0.8-0.2 1.5-0.6 7.7-4.7 15.5-9.5z"/><path class="g" d="m36.8 243.6c5.5-0.1 11-0.1 16.5 0-0.2 0.7-0.9 1-1.6 1.4q-12.1 7.4-24.2 14.8-0.8 0.5-1.7 0.8c-5.6 0.1-11.2 0.1-16.8 0 0.1-0.5 0.8-0.8 1.3-1.1q12.4-7.6 24.7-15.1c0.6-0.3 1.1-0.7 1.8-0.8z"/><path class="f" d="m57.1 260.7q5.9-3.6 11.8-7.2 7.6-4.7 15.1-9.3c0.2-0.2 0.3-0.4 0.8-0.5q7.2 0.1 14.5 0.1-8.9 5.4-17.7 10.9-5 3-9.9 6.1-7.3 0-14.6-0.1z"/><path class="f" d="m105.6 250.3q-5.3 3.2-10.6 6.4c-2.2 1.4-4.5 2.6-6.5 4.1q7.2 0.1 14.4 0.1z"/><path class="f" d="m21.9 243.6c-0.1 0.1-0.1 0.3-0.3 0.4q-9.1 5.5-18.2 11l-1.4 5.6q3.5 0 7 0 13.9-8.5 27.8-17-7.4-0.2-14.9 0z"/><path class="f" d="m67.7 244c-3.6 2.2-7.2 4.3-10.8 6.5q-8 4.9-15.9 9.7c-0.2 0.2-0.4 0.3-0.6 0.5q-7.3 0-14.6-0.1 5.9-3.7 11.9-7.4 7.1-4.3 14.1-8.6 0.8-0.5 1.5-1 7.3 0.1 14.6 0.1c0.1 0.1 0.1 0.2-0.2 0.3z"/><path class="g" d="m84.8 243.7c-5.6-0.2-11.3-0.1-16.9 0q-0.1 0.1-0.1 0.1c-0.7 0.1-1.2 0.5-1.8 0.8q-12.2 7.5-24.5 15c-0.5 0.3-1.1 0.5-1.1 1.1 5.5 0.1 11.1 0.1 16.7 0 0.8-0.2 1.4-0.6 2.1-1q11.2-6.8 22.4-13.7c0.6-0.3 1.2-0.7 1.8-1.1 0.3-0.2 0.7-0.4 0.7-0.7q0.3-0.2 0.7-0.5z"/><path class="g" d="m29.7 215.9c-5.2-0.1-10.4-0.1-15.6 0l-3.1 11.9q1.6-0.9 3.1-1.9c4.9-2.9 9.8-5.9 14.7-8.9 0.4-0.3 1-0.5 0.9-1.1z"/><path class="g" d="m115 216.1q-4 0-8 0.1c-0.6 0.1-1 0.4-1.5 0.7q-12.4 7.6-24.8 15.2c-0.5 0.3-1.2 0.5-1.2 1.1 5.5 0.1 11.1 0.1 16.7 0q0.8-0.2 1.5-0.6 7.8-4.8 15.5-9.5z"/><path class="g" d="m44.5 216c5.5-0.1 11.1-0.1 16.6 0-0.3 0.6-1 1-1.7 1.4q-12.1 7.4-24.2 14.8-0.8 0.5-1.7 0.8c-5.6 0.1-11.2 0.1-16.8 0 0.2-0.5 0.8-0.8 1.3-1.1q12.4-7.6 24.8-15.1c0.5-0.3 1-0.7 1.7-0.8z"/><path class="f" d="m64.8 233.1q5.9-3.6 11.8-7.3 7.6-4.6 15.1-9.2c0.2-0.2 0.3-0.5 0.8-0.5q7.3 0.1 14.5 0.1-8.8 5.4-17.7 10.9-4.9 3-9.8 6.1-7.4 0-14.7-0.1z"/><path class="f" d="m113.3 222.7q-5.3 3.2-10.6 6.4c-2.2 1.4-4.5 2.6-6.5 4.1q7.2 0.1 14.4 0.1z"/><path class="f" d="m29.7 215.9c-0.2 0.2-0.2 0.4-0.4 0.5q-9.1 5.5-18.2 11l-1.4 5.5q3.5 0.1 7 0.1 13.9-8.5 27.8-17-7.4-0.2-14.8-0.1z"/><path class="f" d="m75.5 216.4c-3.6 2.2-7.3 4.3-10.9 6.5q-7.9 4.9-15.9 9.7c-0.2 0.2-0.4 0.3-0.6 0.5q-7.3-0.1-14.6-0.1 6-3.7 11.9-7.4 7.1-4.3 14.1-8.6 0.8-0.5 1.6-1 7.2 0 14.5 0.1c0.1 0.1 0.1 0.2-0.1 0.3z"/><path class="g" d="m92.5 216.1c-5.6-0.2-11.3-0.1-16.9 0q0 0-0.1 0.1c-0.7 0.1-1.2 0.5-1.8 0.8q-12.2 7.5-24.4 14.9c-0.6 0.4-1.2 0.6-1.2 1.2 5.6 0.1 11.1 0.1 16.7 0 0.8-0.2 1.5-0.6 2.1-1q11.2-6.9 22.4-13.7c0.6-0.3 1.2-0.7 1.8-1.1 0.3-0.2 0.7-0.4 0.7-0.7q0.3-0.2 0.7-0.5z"/><path class="a" d="m109.4 209.9h-9.8c-1.8 0-3.3-1.5-3.3-3.3v-0.4c0-1.9 1.5-3.3 3.3-3.3h9.8c1.9 0 3.4 1.4 3.4 3.3v0.4c0 1.8-1.5 3.3-3.4 3.3z"/><path class="a" d="m104.6 205.8h-0.2c-1.2 0-2.2-0.9-2.2-2.1v-5.5c0-1.2 1-2.2 2.2-2.2h0.2c1.2 0 2.2 1 2.2 2.2v5.5c0 1.2-1 2.1-2.2 2.1z"/><path class="a" d="m112.1 190.6c0 4.5-3.5 8-8 8-4.4 0-7.9-3.5-7.9-8 0-4.4 3.5-7.9 7.9-7.9 4.5 0 8 3.5 8 7.9z"/><path class="i" d="m110.5 190.6c0 3.6-2.8 6.4-6.4 6.4-3.5 0-6.4-2.8-6.4-6.4 0-3.5 2.9-6.4 6.4-6.4 3.6 0 6.4 2.9 6.4 6.4z"/></g></svg>